<mxfile host="65bd71144e">
    <diagram id="4ApZs3ESX_rJ877tGElo" name="docs">
        <mxGraphModel dx="1548" dy="-1425" grid="1" gridSize="10" guides="1" tooltips="1" connect="1" arrows="1" fold="1" page="1" pageScale="1" pageWidth="1600" pageHeight="1240" math="0" shadow="0">
            <root>
                <mxCell id="0"/>
                <mxCell id="1" parent="0"/>
                <mxCell id="52" value="" style="rounded=1;whiteSpace=wrap;html=1;fontSize=28;fontFamily=Roboto Slab;fontSource=https%3A%2F%2Ffonts.googleapis.com%2Fcss%3Ffamily%3DRoboto%2BSlab;container=0;labelBackgroundColor=none;fillColor=#808285;fontColor=#FFFFFF;strokeColor=none;" parent="1" vertex="1">
                    <mxGeometry x="10" y="3300" width="323" height="200" as="geometry"/>
                </mxCell>
                <mxCell id="53" value="Develop&amp;nbsp;&lt;br&gt;experimental&amp;nbsp;&lt;br&gt;procedures" style="rounded=1;whiteSpace=wrap;html=1;fontSize=28;fontFamily=Roboto Slab;fontSource=https%3A%2F%2Ffonts.googleapis.com%2Fcss%3Ffamily%3DRoboto%2BSlab;container=1;labelBackgroundColor=none;fillColor=#808285;fontColor=#FFFFFF;strokeColor=none;verticalAlign=middle;" parent="1" vertex="1">
                    <mxGeometry x="10" y="3010" width="323" height="200" as="geometry"/>
                </mxCell>
                <mxCell id="54" value="Add stimulus&lt;br&gt;condition &lt;br&gt;parameters" style="rounded=1;whiteSpace=wrap;html=1;fontSize=28;fontFamily=Roboto Slab;fontSource=https%3A%2F%2Ffonts.googleapis.com%2Fcss%3Ffamily%3DRoboto%2BSlab;container=1;labelBackgroundColor=none;fillColor=#808285;fontColor=#FFFFFF;strokeColor=none;" parent="1" vertex="1">
                    <mxGeometry x="348" y="3010" width="323" height="200" as="geometry"/>
                </mxCell>
                <mxCell id="56" value="" style="triangle;whiteSpace=wrap;html=1;fillColor=#FFFFFF;rounded=1;strokeColor=#808285;fontSize=28;" parent="1" vertex="1">
                    <mxGeometry x="318" y="3030" width="60" height="160" as="geometry"/>
                </mxCell>
                <mxCell id="57" value="" style="rounded=1;whiteSpace=wrap;html=1;fontSize=28;fontFamily=Roboto Slab;fontSource=https%3A%2F%2Ffonts.googleapis.com%2Fcss%3Ffamily%3DRoboto%2BSlab;container=1;labelBackgroundColor=none;fillColor=#808285;fontColor=#FFFFFF;strokeColor=none;" parent="1" vertex="1">
                    <mxGeometry x="686" y="3010" width="323" height="200" as="geometry"/>
                </mxCell>
                <mxCell id="59" value="Visualize&lt;br style=&quot;font-size: 28px;&quot;&gt;&lt;br style=&quot;font-size: 28px;&quot;&gt;&lt;br style=&quot;font-size: 28px;&quot;&gt;&lt;br style=&quot;font-size: 28px;&quot;&gt;&amp;nbsp;" style="rounded=1;whiteSpace=wrap;html=1;fontSize=28;fontFamily=Roboto Slab;fontSource=https%3A%2F%2Ffonts.googleapis.com%2Fcss%3Ffamily%3DRoboto%2BSlab;container=1;labelBackgroundColor=none;fillColor=#808285;fontColor=#FFFFFF;strokeColor=none;verticalAlign=bottom;" parent="1" vertex="1">
                    <mxGeometry x="348" y="3300" width="323" height="200" as="geometry"/>
                </mxCell>
                <mxCell id="104" value="" style="shape=image;verticalLabelPosition=bottom;labelBackgroundColor=#ffffff;verticalAlign=top;aspect=fixed;imageAspect=0;image=data:image/png,iVBORw0KGgoAAAANSUhEUgAAAOYAAADlCAYAAABH/osVAAAAAXNSR0IB2cksfwAAAAlwSFlzAAALEwAACxMBAJqcGAAA8H9JREFUeJzsvX+0bddVHjbX2vvce9+TZAMmziCAI0gdnLbGhI5BMO0gDmky7OIQMEaSQWApjmVRwNiisQkQE1xSjH/oPUlPsmQjy/yKJQUU27RAQ0ZL/mjLSEfTBtox0jJGQ5tCAFt6P++Pc87ea3XNOb9vrn1lIJL8niTbOtJ9995z9/m19/rWnPOb35xzlOduz6rbj73znS+ettsv26zXXz6X8kXDMD5vzPlkTfVkFblaqlzVvk5ITtckkatSrSdLSlcNIs+vKUmp9bxI3ZciB+3p9iXViynlQ/0553wp5XSQJO3nlC/mIf1eu+9fJ8n/+od/5Id/+5n+7M/d+m18pt/A5+LtPe95z1UNHC9toGlf6aWb9fY/vHTp4r+3v7//pf/m3/x/cnR4IJvN2o4dhkFSbrBrqMzt99K+UgNgar+M+k/7ewNX+2ow1SNSfX479vntIMnVj2s/2jEptefSowY9fpBxzLK7u9ueYiU/+qPvaH/P/087+v9uz/W/txf8rfaY32qv9Vs//MM/sv8Mnq7PydtzwLyCt/e89725Wb4/P5f5K5uFemkp5Su3281LHzv72LVlrqnUueFIZL3ZyIWLF+Xi+fNyrn0dHB3JvJ3sOYbBUGU/67EGynbXkEdJDZTjKssqrzo47e/6mAbMlB2Q7WvM+FkPad8VjKudUa7aO9G+79jf2jF/tgH2z6Zx+Cvt0e2Yqi9df/wf/PjvtOf8zfZ8v9Us7m+1V/jN9vV/ve3tbyvP5Pn9bL49B8zLfHv3u9/zJW3xf22p5eVHh4cvPzg4+Op5mnbVQikAz104L4eXLsnh4aFMZTbwTA2El/YP5ML+Rdm/eF4uHhyJzA7M2gA4NhOobqoCLys4FZDtaxjH9qU/r9pXQ1z7fZVGA/PQrOLQXjO3+3bwXQGpgDWQtudb7e3K9uRW9nZ2G8BHe77dVQN5ad/b85b2XO3F0lDky9oDvqyZ27/ZfGV9jnVzrf9Fs/z/YwPq/5DT8D/ddttbf/8ZPvWfVbfngHkZbu/6iXftbqbNX5vn8pqD/YvfNG3nFxysj+To4FAuHV6SaeMga9ZTzp47JxcuNGAeHch2mkTxNJUim8ON7G8OZd0AWtr9NZ7dLaT5oOqaDtl+XjUwDquhfW/Aa2BSgKb282pwa5gb0Pb0mN1Zyqhg09dy6zmpG9uOU3PX7ml7wFZ2d/Zk3N2xl9ltLzipVW27QGrvrWZ1gauUBkp1g6XW3bahvLwd9vL2jn6gYf3RU6dPfbxW+UWp5Z/edtsPrJ+J6/DZdHsOmE/x9r73ve/qUus3NhB9y3q7/cajw6OrD5oVPGjx4cXzF+XcubNy/vy5Bszmlq63Mjc/VAGwr/Hj0UbmFkPOxQyYGaFaGwAUBLUa8FIFIEXMWjo4NWZUizfY99wsmrutgziAzcc18O5o7Dmqe9pcVj2+gbg/TkHnbq+6zBt77EaNo9QG4vYu3G3W91QVklW4QdjLCd5Yytgv0gva95vbLze3t3/xve973y+33x9pf/mlH/iB/+LwmblCn9m354D5JG7vete7ri5lfvU0l9eev3DhVWW7PXnYAHZ0tDbrePHiBYsVzzZAnnv0MYsXj7ZrqdvZrI2Cr/3TAFmUPRVf8hrNqauaDaS62G25I040nGqIWZP9XX+cG4BWZtHa30YH29ispbqno7q+7T4ljQZ1WRs41cop8WOusMWcDtrmgtrrjNljV7WoVRHZ/p/bP/o+Et5lxesbJC1Wbcfrb4O/z8HeWdWg+JqS5Pr2t+vbgw7uPHPml3Otv9A+/sff/Obvew6kT/D2HDCfwO32993+DUfrw5v39w++9Wh9dOLwwC3j/sVLDYgX5BJixoODfTl3ab/9fCBzA+s8z2YBzQrqzSyj/2yWRv/V+xJtkAMhDtAjFKAKiqyMrFvHoXgMqWBTKzggdrQ4EgAzQGV/FX3FwRElCiEFrwJ0pTFqA/CqxZg7KwV0+13B6u/MrXjVF9bXbZuJQdHjXH99J6Us7m2vpZvE2CyuxbD2+nKyPdVr22d+bXsXhx/84Ad/scz1Q2+69Zb//um6dp+pt+eA+cfcTp0+/cXNtXzjNE2vv7R/8dqLDYQKwEsXLsj5Sxdlv8WJFy61n9v9+81KHjTLOR0dybbFk2RbzSaqZaRLave42XHcqXvIaBIWUrqr6NbKj1GAqPupUDALKMbLBONqaROLL2EtNSViVjQb2NSa5kHBi1QLjt1pcaWDcmXAVDdYLamzv2Rxxd6VPQdeN4OMqiCSdOfQx+8oAaUEEu7D/tLOSTnRvm4sc7nxgQc+9NullAea4/Azb3zj3/7dp/O6fqbcngPm427vu/32/3ieprccHux/y/poM1w8bNbw4oHFjErcfPKxT7bY8WID6YGsm2Xczlupk7qqzaLMxa0MXD9kHd1tRdwo4byKO4lwVVNySySMJQGM0u5sMDMX2BzZMZuFHBRMajHNlcV97b8VrGdCHOlpFQXkYCztKM7i9hSKAnrw73ofAJ4Ri3pMunCDkQO1jcDyqG6h7bFpQN5Vj3V2OMEC60dPhVZYXjzX8l+18/xf3n///Y9s5+n2W2950288c1f92Xd7DpjtdurUqVX79rrtZvuWSxcv/sWjo0PZV3e1ge/8hXNytrmr+5pjbMB87LFz7f6LDZANjO3LrGELoAqcU9hCOJACm+d/snvMNS0GDFAq9oeU/chMCwVwjgKr1F7BYkhNhyBOHBSkdp9bJ40bLZWigBodnOOAfGZy11cMyOLuL0CeLWfpgEuwrEbsmIXUzcFdYXeTB7PoDlxsAPYYANp+z74ZtOdTd1lBq5+n4vQoyaWfu21qwzCO37Y5Wn9bA+hvTNN8+zRtPvo93/O926d9ETzLbp/TwGyA/Lz27bvnUr532m7+jOYSzyppc/asnGuAPHfuvJw9+5hcvNBc181GpsPmrjYL2XZ6s5B6c8so0h3SDkn/1v+SCEUKBuiy8ndb/LbsI0Vii9oeo4BcqdzHXFRjXQe1XKNZL7V0Cka1WKIMrAF4NFCby6ugGj2H2dAAcshB4xbSwbnS5xW3ev4lUBAN7uIOCY916+j5VY83zVUezE82cOrr7JzYszjYNhqBAgkftoUJstlZy3p3t/28/drNZvvwdrPze/f/1P13tfN875vedOu5K3j5n9W3z0lgnj59aqft3t/ddui3r48OvkiVNsqsKov6iT/4A/nkJx81UCo4mwWVedPAWGZ3SWuFg+pWEVzk4paO/w1WwlU7pFXwoEynFikRe3hX7yhglYHdqYObrPa1q3HjwNRHlh1d6KMTQCoucIs1gohBXGgW0y0tFUIJPw9wUakQMpYJcWbGz2olBwB8iMe5ezukfryBVd3lBKYYANXY01VIYuRVRtCtiqPdnZXsasqmgXS7Xst2u/0z22n6iWk7ffcDH3rgxw+365/+z9906+ZpWBbPqtvnFDBPnT690yBwc7NyP5RSfdHR+kh+//f/QM49dtaInLNnz8kf/OEftljyMVkfHFlaQ93OYtiBL6qAqczs5QCpR5R0Z/1G17Xfm2FBEwgVQZoEZE4CK5SdJDJXVl/WACAgcNzSqVVSdlUMkNnSJdXSIP7cA8ENMiiNiCct/hydVTUXk24urJnFpVAO6eMg4WPM6cdme098/IDY0lxhzb3o/4O7xcWECcWP7xnQsLKpxcrNYMp22sh84oQCU+bmlazX2xet1+sP5EvpR+677wM/3lzcn24u7ucMQD9ngPne97znlW1HPrWd5pfM89Rcp1nOnz8r//b3/6184pOfkIvnL8mFC+fl0WYt1w2wU4sfzYnMQ7iYOSMXKd0uyuJfAxPA223jIjlPUihJv8+zIcgP+uLNSIvwN/91NDfTiJUhgWhJQcBUN1wyVHdFBxJC2d3L0cDtZEwGKTOAWbWXIDgFaZDUY0izjMiLOrGTLI7Vd2gbxTiEK2yvThYYm5gCc8Dns08O95dxrb6Wklmlndu9qR3fgLnZm2XTPJm24bxoZ330gWm7ve2B++9/681veMOvPl1r5pm8fdYD833vO/WSUqZTR5v1Kw8Pm8t6uG+MqooBzp09L59sMeT5c+dkfXgoF9rX3BaHM4z66BoJdqld7eLGrvZ0CKJH/zuBlvod9g1JeogF7PE1wwIzJZHsTzW7Za0m6EnmQjp64CpmB5cyn+bWwoVNYFGN+BlQVqLwAZFTzbKCxCEYM2QE2Cyc0SVgE/S2x9lbs44Wa66M7V2Zew2xPFxbkwiqxSzux5ukr4rpfhOtuQDoks3tNgLrRIYIY25W9Cq5+pqrpV07WR9tXnJ4ePgrDz744K8eHR699aabb/pXV3zxPIO3z1pg3nHH6c9v1vGd683hrZv1ejwwZc7FZhUvNEt53tQ5F86roPxAzu9fMkKn7coiyrQKCJmy5Fip1EGwSIlAdUu49GJzrREnWqxpjGS3lPEdqROh4gfKnqG9blFwFQDQiJQWaw5OyCi6jLAZ07EYMUOON0I9ZPcp4TMsY0uwpOGeMhUyuAu7tJTCeLJ/TyNSJpT86cYwIiUDoA/xmMHlfeK52SC3oGryjw73Gd6AiR8U0O3Pu3MLI5p7e3KzaV7MRo6OTsilg/1X7u4d/acPPfzQ+9t1/dHv/M7vOvs0L62n5fZZCcz3v/++b25xyj3ro/UXXTh/waVyF/blYgPl2QvnZL99v7jffj84kKNL+82t3XgcVKjMqZZzrLByrtBxsOVgYQsEAv6b1UumBGNIK6E3BJMLt3dIqadOJDw8O7ZYHOkL2VzO0L4qoaNsrJdoGaCSy+8yWNcVqkiUqc2WChndusLKafWIAsqY1+yVKfqeCYoEiV5iKoQbAeNBi2eHIHq8pnOEvM8JoQSQm9hBH1NrEEv8bu8lDfE6OfMceUzquG3H7yhId0yZtLvayN7enpw8cVKO1kdjiz+/r222r33ooYduuv766//JFV5ST/vtswqY99z7/i+s8/zBzebomzdth9U0xx9+4hPy2KOPmmrnYrOMF89dlIMGyP3NgWxUXL5RUM6RgnSeBw6suqnka3LP8Rt4a4IlREkWiJtEEbr0FAgtqbtvsLakaRc3UwG1RV3hEhr5owAbd7zEa7VyazW6O2uWMDl4NZViTKxZnWTMrLGy0LXSooaogAKCgbpXt8rukiKeRL5ygMVWIkmYQlG3mHlPgNsVSU4cqeVLyNk6aEkseQzKc1S5sVHnBOkgrbYCv30ymfU5y24D5yQntntWCHBy78QX7e3t/rcf//jHfvbwcH3b9ddf98mnY509HbfPGmCeuevMjZv10amjw80XakmVxpOPtfjx9373d+UPH/ukbA78vovtqxi5UwyQTHYbdgrdVTd6pvessJbZv3taMpuMhW6tVYLYu3DkuqWtbm3gujJz6TK1hQtbGeu59TK3D9ZJFTo7pj2FZWz37Vpd5WhFzEr65NVgoFyxRlOt5WqAOgfWaTVG7tFZ2uRAHxwwI+5PEAeYGxrSPk+zkKF1Cze6CMHSqIPFmsOCuaWraxa3umVcmVu98rpPMLp0a3OC1hc6X98cUuRKLVJunsKoZWea85z3ZLvXgDmflM8rn9822sPvPP/Y2Vc98sgvvvk1r/nWjzz9q+/y3z7jgXnH6TuubjB4/3qzvrF9WcmVuq7qqp5tlvKTn/ikpT82m8nadTQXyMurNBWC+nvGQRXEDKVyBX9ljOihoSnRvfaC4vTgeXo6gEYRWrz2fw4LWYOlhZAg4/fBpW7MYdbBXeNhdN2rxV+Ds5mVIBKPDZkO0cW8wnEr/E6JnMntMhhflI1lvE4Ge5vRqsSYWVpbfV9p6KDxNyuZ/+Xu8mbkPGlpLT9rvNXKUjr+vEMnf8BrOQMOMgqubEpkcXMnrPQUldFc9r12/vXzqXvbXvMLm8fwDz/6jz/6n13av/TdN95446Uru/Ku7O0zGph3nD791XOZH57n6c9p/utSixcfe+wxefTs2RZLnpdL7ecLKp/bTtYlwCR0VjclYE89NgxhuXmoiB31BRKylMxbgqRxl8uRG/cvEijOgDLfiXgV4LflmODCMcdJwgWApQh9HN0t1FvB61A2NxhumOpI3dJBeECLp+6tARVsK1ndAcyuCxXQN4gs6SLVkugu4/U8XoXUD+4pWVyzbZ74dC0t3jdBVsH5JEgQBaL8nu9NvSVKYqsUd/FtM8Pfaq6yA+abUkB9/r1mTa86cfLG8xfOv/wX/vEj1732W17zL56+1Xh5b5+RwDx96lSeS/mBw6Ojf7DebFZbrYfcet+cs2cfNUnd+bPn5EKzmkdHRyb9Kmm2x+rim+V4qxpaOWf2F3FfQdoinF2kRwBmpkXI9zgoIchD7Ckgk1Bs2WPRhdKHWtNqjCqIHLNIo8dhEBigdivAneCeWi3mCLUPLGpoYVl1MnYZHXOI7sK65e3uJNVCnmoxHwDVJCkzv7lwQwFiMcAMBliLR6WrmfIC4J2dlThvfL1OXJNUy9g0WeXin38wnTFKznAOLO5uMbg2F9s7sfvnTuyd+I2P/9LHf+ib/sY3vfcyLr2n7fYZB8zTp04/bzttf/7oaP3q/X0XBSipo2TAgTKt+y2W1JrI5rLOzYpup2KC8zx73FfDCKawmA4dWDaQN3Y7xs0ASCSJKvOVUd/vzx8PBCvrVc4dwJIij1cG9PDRtEJC1zs9xuK3bgkygLgiGAboZxXUY0anAsjkwHg6YJyVJQtqrKz+rjHo4EDOiB/9OdwaVzfHTgbp90oLlsOdtfQOLK2iZgzrOUT87MAdQpCQIL537W4OjwG+q71/nr5QG1GHm7tXYa4/XJUMz2OldTM7YpvUjlrOa65Z7Z3Ye88jv/iLf/mTjz76HbfccsuFK7Yor8DtMwqYp06f/ortdvOxo/X6K5RZ1byk6lo1DaJAXKvmFd83zXXVnjpT2VhusqBIudYZqKpehqRPvKiLTGBa/Regj9Yv2FT/s2thawBVhFagA5H0f+IfaWV1MZeFBcxeRmUWx8q54B4yT0kLObhmdaQ2lTEdyJ+RpVkWk7oqqAvVwZgSZFDpjAByAlkU1SORI+3a2oyOBWOSAEtGSQwtMeNnduWjcJ2WMj+OELPqFgOuhPXmsYLNL/6luL7yzFH70R7XLObeWK37n6ZWUrvoza199TRP//zDDzzwN2+6+eb/8wouz8t6+4wB5p133vHqzWb78wcHh8+zDgJWmnXg+cgWRx4cHhmxo8BU3aXGkebCFgLSy4301lU6FYDyuNIVPizdqu7KIsWWUu0PLF0I5G6Wq1ociMQtc5WCHCgtSCdUUkKHACxWI5/QJsQkc5YCQa3jmMMCjSFS1+/KdA6wRigRG9jhALnFhXVzYTos5ZhRoZJ7pYmxpyPc5BEx3BBd98z6igvnnXn19yHYOGjRR8S1NdMNHRbsbgrQsrzMuzBQVcQ0jLvazskhV5zZnUGCHGIeuCKnlbHRKSn0whf+adlZ7XzFhQsX/vnDDz/8zdddd91nRPeEzwhg3nH69N/fbss7GvDSJe0YcNBix4Mjb+vRrKXed6idAzYNnM19VUBW9tWpswMOAPXeOw5As6LSLWCCiKBbzI7AWnIHZ+68UJjKnnSBe1zcVUMldOQvhQsqeasOgLEOboXcHRV3TUdYVpO3rXq51ehxJfWrlhfMOSxfRg7RyRLvTdsrS3pFiYEfMWmK78yFZuQr0zHFkLmTIywt+wqB7BkTLauDPYEQyqhQEQghmO90hlZ6fSk3AWqGh0VUUUEGCaymn0jp3zqA3YupsrO3Ky/4/M+XnZ2VtJjzebt7u7/2yCOP/J3XvOY1p67IQr2Mt2c1MM/cdddOA9f9ZZ5vnKeNETlqHbVgWfvqaFsPTY2o9ZynWebSADk7yQMf1WLKObCnd7KOkgXMRKX/Q5h5VVZCTFrDreIfyRQK6y9r39X95kBOBsCo8oL1cGuhC7nCgnoXAKY0RuQx3WqtkIccd1YRR2Y0gnbeBWQNDPwyHziQdY08p7+OM6s53OGRXQzA5noOdOxWcsiRTvF4Fe97YN4RrjJzjxkie4oQwAKzhWZPiUD4MC4sNpRAA046mV9aZHsMBMYprCXSXNDm2uP2srU5WaliaO+k7F11YthZrW7/6Mc+9tXnz517w+tf//pnbbXKsxaYZ86c+YJpmn9pmueva3Fls5AHcqmB8uIl772zb82w9lXcbDlKKy9qCNQOrt5PoDKUtN6oBkcyNgEpgKkwJqxyzP6VitaRyY9JvQLTGVfAnZtA7ekTvr4THLXn5MRze7QuxrQWt6Iry9MhrlR3Vp1GU/sMIHI8dhwi3+cuqOcDfRHXkNchAoOV6zEjrSSB2MEwouYz07VNrjLKaCPCx2dYVs+booFX6m6yIDamjC+nvnkkxsDBLKdOLCGFwvSTST9IKpHNxecR5kGln2PbOYe4IC77G73nrgLUPA/bIYcbmyfz5T/7Mz/zN77zu77rsSu+mJ/C7VkJzGYpX9Is2q/MZb72cL8BcX/futBdRDc6jSU37CZQZy82RgbE05TwNauXadmSxSGWWSzdyi1dIigMkOqoiP1qhJ2lLtzV4lazLKxkJ3FphYOHtfts6I8+p8a/Y7U1pB3v2EdntFEHY4BArdKKbujoooLEWFV88VO34IxpF6BHsl6k5zcjfhvi7y6Q7y6wFzrz9Qd0be+MalhFcXG8QE9LqyoLTSxf353M7h042eUbyxibjB+59GAczDWYWOil/M+Yy+KHhpviD8ydjUsmQtCm2O3ga66WF2T3BNoRX9ee73/58AMPvOqmm29+1lWqPOuAefqO01/T4sRfqnN5obqoyrzuq5XcP2ygbLFlA6ZWu2+splJbwySZbSeeG1DdnRvbwt8iNdK1mEsA1QUxI5H8L4gZ6Q1VukQSWRLhs8VPNUX+sqABV+7skmMdr6mLyVzNXD0dYe5Zt5LswZPQRtLSCgJgiuc7vZMARQRYZLAqYi5wilxoTnQ/c6QshkxxwB8RXyJ9Yq8fLrODU8C4emqlW9uBSh4txkkJjRZSuOdCV5tyPcavdLMBQGPDYS11AxtYh4pNQaQzw/a7pYbdnfULgLI6t7Mg4eDeJ1bP7CImBiuc0rVt4/5nP/0zP/3XXv9dr//NK7Oin9rtWQXMU6du/yubo/Uvrbebq44Oj+Rg30cMKDAP9g+a27qWQ9W5tq9qPVudXFHLo4SrWbeiAgInfCraSM6wpk7AlmNx5JK8oZQnkdtnhUkcjB9oQQuXAJ8n+Z99HUmitYw/+c8GojSY22kzRDSOHHcgi0MsZqoYz2+qICJBAmdkUJJOAMENHBPTKDlyoBmicUHqgsXXEbOZRfO0iVnLJGBfETticxCICHJiTlTQAS+7a6ibWTvJkL2HFRe40y5nRD2onqtM8ku0Xa0TZLpBqeA9cqBin3mhZFwQQb1vBAk7pk0SmrXAWfESssL3k220hFx1Ul6g4vgdbbOZX7izs/PPPvKRB1/1utfd8Kzp1PesAWYD5atbTPkLR+vNrlpGBaKKBVQ0cHiwbw2WtWBW54BsN1vZaA8eEjm8cuLuqt5vQh8DpXeyK57ItItXnLQTLzLyG/U9HouWbh314jI0JXYjluxxJRcKVqqxiF5d4fGl3mt1z4NblhEWcNUAtjNwEJBrSXNldYW7bEPJVlcpIyympktAspg1G5F7hNbW6ypRIZIWqRO1HGNvJ5JTOmZRvZsAE/qedknIMcbvZuEGWMnj1SF2RlOC4wq5XYJ00D6zewqC6NDDCOaIqwNRKB7gFfVSuwp5nr8a4n4SdkCl56D9OTNkRHVx/u39aBf75KMHLezRqWopfV47F//0wQcf/KYbbrjhv7sc6/nTvT0rgHnq1Okbmlv6s5vNelTmVatALikQD/fNfd1vLq1a0O16K0ctrizWx3U24YAxrlrx3k79POvOvZE6KQk0GwL1AmkDZsLHU4pIWFOpU+lC8TBoWwGsCvWOW1BBnASgS2d8gxn00hTcn4ORFcRRAwToI5hGJ0wIEO8VW6m6sSlertSxJleoFlmhhEvyKOzE7jEbXFiK2ocRwoIU7SXHgbrahLKvbqVIxPBzjkuiJ3l86vFw8nYhiYxwgubXHye01NhgLKeZ3ELzeDursNrL1EfoanEOC4UMQrVQitAg9kKp4ABKXCd1NxyUKEQQ23PtsdaJvlnMa553DS3sVc2V/+UHH3ro+huuv/5jV3rN/7tuzzgwT91+6lUOys1oyh0FoYJzv7myB811PTq0Hjzr7drE6Nqvp8wT0iBq8bx7nQt6Zru/KEynOaxfQYjpuQ80WYbrSaE5Ul+R16hlEVGiokSEYKMgIUnPdXZmMCFW9ZiJrTS6moUj9XTB76BMyscTwCoNQyhgLMZbIS6044ZQB5mLuepgGsm6UsY2MCbrDZ3ZhMvFAe7GpoEWlAyuu610nf29Ii9qG4Z+yqF/DsazWbqQgQ6Em9g4L743QfAOcEo8h59x3/gwKEkkNg0Jo7ncJLs709toS487pYcQ/tzVahhszEM755pGEbjj7fV322L5hYcefvhbrr/uuv/6cq/1J3N7RoF56vSpr5+20yPr9Vor0k29Y82Wm7Vcbw5lo2Ppmuuq7uu0VXJnihF1qIY0F9VrK5uLq8CcZ+QyPQ1irgy+O1CXFk7CKtKxzebqViMWvDozB4j9YUypLC2w+7heUQL3lR1D3EYAZJ74X6UUsZsn5qE5HUe3UGapEjStqMfU70r5596NjrNKHIziljVylos0SGa7Sc8vjmgjYt0Ell0MKPlLPmjIO+55qiTcWaEwoKJELKHUK3U3GOQPv3KcPQf9iDiXonkP/7LrhQUb1+AbWhFv+kXRfGyXCR3ta43zX3j+AcfHKysFzzPaWoDV3N2Rk/SCPH/aHJn0jx566COvuv761/36FVj2T+j2jAHzzjvv/OpmAf+b5r7uKRgPD46M2NEO6BtrmrU2/eu02bQ4YIal9DziXCePIRoQVVhQGzCt76uWdbW/6QUxmUEh/CpGy1UDnRzDWWeGTNJWmePkUlpwsPB5PAUDy4i0SU+/FFugFZBMmbk4CAwGSM+Sl2M5G4uYcAQIjBldiXcyZ1sQyOoGMq9wUUMrC7ne6K0snU319iE+4DYHWL1TXn+u6KAebC9jSHbbG449joJzMpzMP/qGAFFBdjBXaFvNxkJxJGRaaVkRcwpi4kyBO9xkame7yawoUZOYQlYB/5x8dCDL34O8i2vJeTCoXdGC851V+Duu+kp77Sp+/KGHHvqr119//f98hSDwJ96eEWDeddddX93c0V/bTturtdGysq8WR6pwQEu4LL48tAbACsyNaV5hJ9uJHtqJn9RFnZNZR7WY2o6yWne1CoBUI4G0l09o0fXFF6wOkyGVTCzZvmOA68RSuFOVF9EhvDymLvN0oBxs7OvgLKx2lBtRnsUxAp4Iz+ZeLRtqjXkhpRtGLGyX7Xn+EG0iYblCZ0oWdaQ1BRBHSt7Y6gOgS2BxEySBiS1A8DmiFlM8tUPrBcDUhZUUpG6CvAJ5wyZeAs82wnkSQWNvEyqJryFR6oWz668bxE6KBtyy2IB5mauFMQuSSRiP4vqnhA4vKuQQOVF2JV19DTeBa5rp/JWHH374L1933XX/x2VZ+E/i9rQD88yZM1+4neePNSB9wXajMeSRTVfWahGNMXX4q/YTXW+21tt1o9aworJZxDrQUd1Tm5XctJO/bVbSTvA8Q0jg1jE6DJhbq9/Rk4AujoC1A4Ai/7VwfYJdoGJIFwIS2AlxpNnxSoVPL2ciyeGxVMb8D/G/jyBtzLJ57m9cWCNb4IOXaQWRkzkXxME3GsvqIGV3OdfSIt9I8QBSH0uXVKCJTSCYmCOsmQBjyRYFABxKJNDBwtrBInaBQ47nCkINmxlde2dSUWOaevrGCJpM64n3Qc8EMaT9mN2FtfRYljj/3GGp8oJD6xebF5bX396TshF+1e3crUbZaWHm1VJhCOQF7duvPvwL/+gvXvfab3ta+wk9rcC8++579uZ5/nizcl+y3aj2dWMDXw8OffCrqnq2R1pDubWYUd1XwUkvyQeTK/sqsI4bLeeaZvu9gMQp0OHVUhGHIs7EDmuMvUSEGawrd/CEsVRpsae7d1oB6GwxK8yBL7NF9YjeGAt5gXMC4wqSpp3yHQWP5dgGi7cEsrYY2pOdDWXRs7qtIyykQBlEixdDfDIrVhi3wZLCklG3Gn1hCbwEFxVcp4nOQz7nH99SJgCvNQoT5jVZOL3Ii/J3WRQ+M6YkK5u7a+rYHEASJUsV6bmmxY13EAXrGVaOz9zPvySArrI1TAXVAK1z6ZPXyMj3+aVeAK/qq93dKs8TeF21fEkt5eMf+cg//IbXve7bj64MMj719rQB8567707bMv3cPE0vV5bV4srmsh6uD811pdRuvd0099XBOVtvHsQJSn2rr7eZzYJqH9jZ0iUOxNlcVgckGwwH05roclaaSbwrpEkIUvycYkWRJqy9508tYRHdNWZyu+/sdOFSpBd88Zul8Qqp0KRSTGBkkEncMlQ/ZFJHCMahvNEc3cDhQDlcUyqBWHtJGV4UQkOAkNDfh8ztMLB6JPUueNJBn8C2ciL1AOIqOuzBUtKFjZIunl/p7ridl0EiJRLlXtzgYrPL8ejePQKaW6nHz39cNzwn45IQISCPaUDsBQzGFSBcsasOmaa2LbFxE3siV9erW4ikYdL25c2T+7kHHnjg226++eZOOlzB29MGzBYT/kTZzt9qNZPNQh4o2aOd69RSakqkgXHdrKha0q2SPdrBTvOSGemI6uSOJkEUhJOlSNTFLbB0NXJUtfb6SO+W7p2bs7F4bnmL9I54Pe48jkfbcHX3rrm7RM409AWzAKN/Z/J78PQB3b7mcu5aQyqfT5lRr2jDZdlJIPX5lGRShxWqPIYeJ46MGaNsCyROyhijkHsN5TBCZoeWl5lTvlhRQiB72ZY/bkRrzIymzqsOOjC/iUQSWF07NeLvXxArupB9CN3twFhWXGQRYnSkVAhqt5AAJueD8vwipWw/V7o/iOerx8KFsb2l07KNXrD3XxLAmcG895pZ97Tm2GB1fKDs7MnJq1tItX2eenTf2gD6E+3oH7xSGFnenhZg3nXnXddP2+ntWsRsMeWhi9L3j1TNszHhwBaW0oqb1SIiXlRwmvtaHKwNkcbSamrETubsAA0CAK6MMOR4HCdnKpOChDO3XSdSQzUSxII4OVBSj1dTZXWJBJDdS8oRQ9l/JGcGr8ofI3foVmk1+qKOSosgYlK0qvSi6CFKqlzvOkQcx94+bClJETlLvqL2krElWFIx40zrScu4AMfgwEogpizuSxJJfp/cwMe6ionF1xYjL+LMsMyLNiR6JgfS1BkSd1SQuIXTM+0AHWoX6rvbyl6+lY6QxYomAlkQPKEG4hYK1xWjhOFqw1OaMDxqcnLR36e7/CdWe7I+uZETV10lV23Wb//5n/v5f/kdN37HFW+RecWBedddd31Vc0sfMJ2rpUX8S7sPrJvltNFrWkupcaXubDUF22kpD7VwquTR0q1tNeWPkUEzWFi6pcVZWFyPHh6m5bsBuLhTBmb7zukXETQQPVq2qHOzK+yix+GzPI5qGe2ZM1RnLSuq8H1xeqWHDXOFksfJmEHYdd3+Bivj3Qs87kumix1tkUbj5mWlSOokjIMdih5YRP6d3fQMOIz3hoUaxzYYisv9q+cRB3RZWAgRMl+fbvkQ1puWm+mYnLswnefdT2fuQgP+R9Iogn9nkmrurGtcwo5QCdUPy3JxIEvz6GLX2tl738ubJ5a83UypnNtWzWPYG3fkZAPmxr26n/rwhz/8r2666ab/9cli4cncrigw77zzzj/VLOHH24c5cWS5SWVfD415NbJHO9ippWxgmwpAlkh5u2XTSkv9rmmPjeYoka80ckebbJVijzOWzsMF4en2mHBJk3usSFBWXHjGmJ3DZdIanfOkg5lVXn13ZzwkpCb8X2hQjYkdMAkaMVXUGI4OQDcOIGoImjxE7CaZjKV44+SIH6GDXVRv+BdUPblL5Ow9cTUnBGWZahsHXgZ4Ke9zC0swJcgM4bbC4+gplQXptBgN39+Xu/YdbT2mdL1s7mEEfjAHNQmrLsX78/Y0tGe1F5lmCqH5MrXTCQmVP1GJG1a1YFSg+OZe/eprc2ln3bMJO07s7cnmqpOyWR+d3G62H/3gBz7wlW+85ZbzTxEa/87bFQPmHXfcsdpsNo9sttsv1TTI/oETPPsHlyzGXG+PTIx+tNmaC6HuiCk91JVIRVy74wysglZdXLWqFne2E7YVByJjScaTkmvshuDaFkQB6zSlWzkuACmx6LrMS+DCdq0sF43pNytjK4+TavIWIXYMrJTOEVEhQTIR+iqsHPOEpkSxaV0SeT7PwVPpsiyyTmF5WMOpi3wESZMgNAjLmVFRAlAznrP/YJ1sEUoKC+hKndotLM4u27FwG9JSu5WfLLCwFA50K6W3Gm6yhOY4wyKy+MABXcOSZpbbAVzYYd2TwXO7yqeD1B1U+ZTrLyCE2LDL3J9FW5iQa0oJkiihPYldef3M7Vxre5K93T25qlnOZmhedLhe/9y99977TbfeeusVIYOuoMWsP9w+2X+iulaNH7ULug6KNUWPpkW0teR2bZZQKR1BHF+0AZaSLequ6t/0PM4Yrd7O4hYkUFYWTQmiiqQIqzoKHRa2jxRnaoXXgpZuuXOyUzp2WFzUzOND7wrHRy+WcwgO5oznUJBUj7d04KznJsmgQvhNdjXE5dlHtIOYyTE2L0dMpzfvMADryTiS7wka1oEKHotVfcGPPF6YmqCqhmxrglihi+h7+w63bgQ6p3CNvv9F3amdIiXJcvca7D0nz1Wmyk6BlSdNyKyG8V4ysR1t4XwSvCELYYkQrKpwY539WaqwQqj7QxWbK9lZXmxTci09IbWcrjoUNuzX67W3uyPbE3tyzXSNlrm9en8YfrT96e9fHrwcv10RYN51991/qX3Yv5fzbF3g9MMpcdOsZ/s6Eh34oyVc8+xsmVoePZ9z9TjRqevidYhoqjWbJha0NoXnIj1WDGXdQoJVu16yxo5bJKqXaQHhQtduRhEzgjhIBLQcW1Cx1OgTwxqp1SwqpzPfTRlNH1mg1lP1r56f1MXu8yVHkEOM09IihZIjlqRSh0XM/f4um3Nw10UpV6RrTPfK8jK8PqV5CcfC3SWjK1AgSVekI/5LcMGRx6ywmIgPvbmgnxubj2kbUnX2NPcwgecvLc5/tAgJ/pR8Xn+M/Qs21sUk/X5eVs9Zlw5PptySFzpYwFSdjS0o2J1rDQCb+EA3/dmFLCo4UOLuhI5jaOft5MkTcvHCpb/3kQcf/NXX3XD56zgvOzDvvvvuz6ulfKQBM+sH1bHd+qUjCiw/uVGAbox1dcs3BJjsNFvao+CEiVnKUlDmBWvpx8zhXvFasrvdMrYMlg/tKcNiIgihvC6iJ7pBzuljMdZj8Y3AbV2EQ1D3JBOSs6RLTKMq1u2OzGywk3A7R4Axj2N0s1slbx9pdfyIJTNbjAxMWaSQvrGvbHZNnVu0lMCU9qLnYaHmEUrtEhnfIV7fc5VeXcL4NipIkvQYOSPjuHCD7W+1xmOSsZwEdj/PbJbtLnDtG56Qw0l2/p0Er8K2hEv42jUJGQ+uPzfa5fX3b0bquJEsQfhwoxc8uyu6xEimMqGCyYrri31WmwnTrOZYVro2897F3Z//8AMf/o9uuvmmc5cTR5cdmO303ds+x5ephVQgbjh0tH2ZxWyxIn0VtQiq3KE6Z56TtQSxAmjdqaoDdKvgnCt2tBQnk3G+7YZzp8AZd8oi+OfJd86jWz/DXGdFfItgjBlkBcgDLsS4LciS6l0FbCjQ4DHlHoTi0akO6YqBZV1IaViTqOwpjzRytmW2HKZVfGD+iI2kG1hhQne0s6omWkeXvQFtP4ZhiOMGisvj9XtlCUUQkQNNKYTxURaWU7TNdJcZInlWpCQMEcI4+SzU1C7zuwAvzr93B6HIoNe7drIJOWTgLy9+t7sYv5ZFg7UIZTq7QDc16B9usrULEJKZhlmQI5OaaFWlu7qmzy1Q/w0t9tz58p3d1b3tTzdcThxdVmA2F/amOs/Xq5ROiR1X+BxZkbO2A9FYU3NGpK7df6+Wo1RSRwMET4GIW00VqMuM7gOz7V4FNZjET6GcKuK/DkpephCBiISIuYa17G0s1c2q2LfpBpvaSAjSxfMI825+86lZ2QgRbzbAplo5kuwZrmGMqstMpSDXOKYA1kh9KqpFBnarGyF+h3Y1YSEPA5P+CZZvWACOAE5dSkcWNV6fxdQsiibwU6R6GIeaMUbpGHOgLtfrbn5mZQ3idmrRY8wBrCQvSoKbyzxJXMNc49CamI+s0kcf9vClSu2sbPxFEBphw2drmQpmnzW60NK6JRUHn/4doxrdEPTCiAqvYGe1UnBe/8ADD3z05ptvfvApg+dxt8sGzLvP3P0Fc53fq/66jibQEi5tpmWCgs2RDf2x3q/VW4LoOp8FlHT1ncxIGq231NEGODHzVI2ZtVrL7eQiclaaSKAsTKOf2GMRqOf+6iKGZOe1JAEvu+iYjynM6UU/kc5GZDhgCUWGHnOhO7m5eWMws3Xo5Mo4DtFIK6NCZKTrmD2vacoZxG/JrCMIoUR3FDlNcZfWPM0QIjCPOKIbXvaKjuzqHXZSd8vZ48hoT5J95ogDUmJgkbPDtZNRyS07X18o1+MZgqdR7GPruRwWFlFAPFHs7+c9I36lC4qBLrBsfv49ZGTECAKHcYR5upBu4m8kjQxQCSxO6GMRMuG7YIOvPIYgtDDK7zejMM9R42uhVa7WBWF374TWC5/50Ifu/yd/62+94bK0w7xswGw7z+1zqS8wK9dcVk2RrDVfebSWzdp79RTkHAssohk+S30U28G0BHoSBOQNjNrXx+ow9cyxh09ofBL6UVbpxT4CS1qjaoSZrgqukDlSu2wFFx1xjNVjIoLh0CG3AFwOUKFgIVFMbWsK1sYrLDBHJKHvasY8EkjnBL1hdT6lVZKs0ANohEZ27BUgtIZsLUkpHPOenEcpsMDRnX0YMMiH8yr744VVK+iu7vrc5NY4NK/d4rnAPqPqRZAaciBn5keTn7shUwElfWOz05fDtSzUvUJKx3izJ1qxuSYncBKp24qwxX1Y9iN1S9frueB2Is6E51Rrt7bmnhYngwx0qbOyBCX116pCc07Dn9cAWphmSSZX3N3ZkWlv9wXN6Nze7r3pcuDpsgDzzjvv/Pq2+7xe1TiaBlE97KFVj+iAn0NTTGj3Ae2Uzlh+spIbBtvFlD11O1tqRCher5OdCJmnTqE7K4Pwvy7sZo2EMgmacGcriQFYSj2ruYeRYQ9xkZcEBS2lx6biFkAkFmMiGUJ2MkMvys7iEBckSuES3NmFxYqqj+jb6o/1yc8EFgudWRgtvaokc7w6ta+Y5IU4lnNE6MrGBLChq4DMIsL95PtIUYGS4rP2wbQVx/R1cCx2z0h/ZIbsNS5HCM1Tjwtp+YqKyPGzET4AZwk5V48kSegtqHepsTLIA9EidmtoTGsw+zXGZwgqkngct/EKMJoJoK/LAnuNu7VFyckT+ryv/6n77//w337DG3790wKUXAZgNlDuNBD9lAJIXdiNzg/ReLJZS3VhFaiq7okReOK7lbmj8+wfXE/UrDlKjwEmMLaKUf1bqd7HB1sdLgB3yCTMWpkjg4stpR9hRy2kdBFHSA12VaRbyHhMzRHDMcYx7y35/QW5PXMuV6O5gxYnstxr7ADL1MWSKc0UiQ/B1lqBNOJCA4/0bugDegFFu47Qo1JUPnqHvBGAFoIfqRXUf44D3xNeH+/HSJZQ6XTRAAux3QSm468PAJK9DfBmuKWUAgLYfk6lx+sii2tUXdjOXj56T3G3t8LXsWtUuhCkdxFBSis56AlI8g9s+s3UireZ8bVUCbLgO5xwtPVjXhq9vNnA7aqzTljq8+q1KzrcaXenxZzjvffe+/6X3Xrrd68/HVx92sBsb+6HpjK9WONHL3T2frD7WsZ1uLac5TwjYE5i+cgqlNi5zz6bi9viRwXnXKz42VwIBt7zYhcr3R3ptpIqIFzEugQlrl5sqikYIILSLWwngygoOB4XsZwpOWEiaRGPZauv9OUy+NfCwlheEdpZ+xqRrhj64radF65nosxuQdbQctEKirAaQyThsSO1q5TkDaxMyRju0/sFJVSOUHiub5aiBRZCd4uegUsQV+Y6IOUjqaeKnC2DK0KSJy/qMv38LzzWuFnOMtzSgB7dFklL3yYh9oSbUxHrC67/ssYyLj3cWuMt3Cd1KSeASMtpqTm4rsaGqNGYQP6wjQ1yn9PsAhdmS/Va7e7ufcW8nf+ufJrCg08LmGfuOvOl22n7gxYPWlpk7R3u1GJqbKnpkRn61ipgszwvZNUjBlhxV8K0sgCikkSzg9UD9NmVP34ZApDcGb2gtdMCy8qCTgPwVvv1pX8MdQ/JHD65h0ZpAU6vFqkkYeiuIe+ni3hHLdvoah+f2Jxc30qgZHdt7e8Aw4jyrYT+PuyYzgbQ7A8bHddhlbo2lUDqaY5ovkWLH4IDCQCarSPYYBGPzynBl2ATo9g+Kl1oPT2W7F0IJMY1WLXG8pymLmHkFeN18+90Y6ncWoALm2pn0un5yGJN+MZaQQjCGfW/IiduLmspQQixu4VPgvO1SO/MCKBaovZ3FmdyPa9eI02jr6zn34YY7e784H33feBDb3rTLf/vU8XWpwXM9ibf03aXXd05tJbyyJhYtKDcajnXxj/YBNkcqGzzECy4dsAaAzt5qZcVR5uXOyPB2+NDT6nI0gDKci/WW4mLmoShTA8iH/cQuknVu4hHc+DlomEpFOIpI0HU7VPDaC6rCwPsZKKvD11GI3wW6Qpv+zH2kqzVgDYhTg5FrIrWInkxnzJzhB1dx5RQ3MzcZYr3LuGKujXmc7JrXoJ7SpBVVJDUABp0rzIgSGQjLTw3RPq2aSEeJVmzbPjs/8bJ7l4HCaLUSZ5cuekmoYCA6WS3sCUuOj0bcgksirdVwECWPy8sJXPZpcYTwfMq7s3SggLxjuGFS0zWdi7BbdjnF3+OPGe7vqtVc2p3Vu+WTyO3+ZSBec/d93zDNE/XqwurLKxaTB23rgzsGsKCrQJPOxEIXQe0AikOwKkwBphB8sygqCdYM7/PTwr2xbqwlvoDXZaUosUE3dxg+3QBFdbf9Zs1amL9pSzwyi/qby1/1guClUW1YUBwTS2eNLF6Qqe40V9zdPFA5jiDEeAcnKCpyfWzmdYyJ8SY1NculDiIN81CLsqoaJk895ij8wCCYReoQ2wQ+cwA8dArVxIKm7NraN3yogZzIe1zUKIFCcq13LJ5JY2dR7y+pUxE4OpmMLphPyV0yIvrRw0zxesMNlTayR7ACYwsgR1XLWJKxpGkbQE0pkegMJtjM8DzEpRIkVShVSxchm4wqq9nrkdfK34+7PppvDlur//g/R+8/41veOOvPRV8PSVg3n33PXqW7qbkbr1Z21yR9cZdWAWq+eM6r1JdVCNzqrummk6ZPH7MFaVek39ATVl6G0rvUuAXDx9+ETf6NePuGr6M72GLg5wRTNF8Cb4vfwi3iTnNpYqz4mQnVpAopZ58gI91+EaOcjVwsOzgYnRYSaXRrfUkXMpoJ2mLfAxxe6/JzJG+6D1eIT03skh66xC6uSRxBlowEfYDGhJnYXZBgbvE0mV+2QuR3SIu4tjM1ia5WzlaU8j7+vwTCbffeR2SPHS7ceJTd4t5S4sY8vj5X1zduhDA8zozFsW1DmY+lUihLddBhevqBrQgN1qiEJ9CA+bSK1IlrkabIwSbAegCiZ5js6dTakKsmVwh1a736Q/cd99Lb3nTm8qTxdhTtJj1lvZKL9E3o7Mp12sHp6ZHjqatA1Ot4lSM7DGGlUxrAeh8Y7JdrSdvJy+IpssxC9QedG46qOyyVVzEcF/YlWAJVn3s4wb/JD5WoE3oDtQxDay+zSGhXMmVKezu5lrSAUJy9m1Fi8hx7P1V0cSZ+laLGVfMNw4o1UDeE31/OOrOKBX2f2Xct2gHQsBHmxIWZaOXkP23ACFBR1GCWTMelxLUPXQ5Ez4z3GpBXIu4FXkirIceJ3BiV2LlhwS31K0gPQ/icnn+hd4Kq0xYP1ulS4CWLAO+Y7QbM9pMo8ToRelilkXECgln6ekSCFvs8sN7pmtLxjaahyO7EI3fiiCUEMb2/347f9/Vjvzwk0XYkwbm3Xffvde+/ZgxaA0522njIwy0E4E1Z96a1Ztg8gsKm5XMWc9uQctEZpbbn7O15i6oVHHueaQcLkfqTJufebuQMZ9yEVt0P9fv80ueguPxE1glOhGkfoETMR1EBdqKDOq9+KQty1VW75Tu7icCf9O5asd017UOSJeskNBPAG2MloPqxyY4m1VCXLrok2MAh6USkjZMp1DRM7AtZbd8ia0nk4TVrnBVE2LUIuyKB3ZY/G+RAspoMSlMefT0kR1J9ho3uvrLON3biPrrLYt5uDMmnGgHpHsoiWA9BsIeP/bu6+yuvzSPPBY/o1yQHE8lhkUWtZjJ3V5ET3RfhWAuMCIcTGUL1tMwBDULKgjqcLCzvKNZzQeb1XxSHfaeisV8S3M/X6gB8MbqLLf2pT1i15OPMahIj5jSp8xgtVrcOBW0D5khaYSLoJZyntDHpz1H8nYi3KmOxxL9RnfHO38wCV08F0bqPhLbPW5hK66UiGnkvrCYrFJJuNNywTH94QxnpVYU+UPLU5qoW1nYoQNoNYSYIOZTwg1dIS0xstsAgMZRB+wKQIEBFT0mlo8OeKOwJ5BkEkn+OWhZ3QpWjNuDZRQJwohWUmBZK9JCZGi8oiQtjs/HrWUiAw7rSA8Hz+nppyoxBIhXLvUr6dYzSZR/1X5dcES/pd7/l6CuEJZXuKgEUGfxa3hJSShCxzMjfVIAtIK14uyrF/FTHxu9gyp1tBUeYLHG47qWrZh/nvmmv6y94K3t++knA7InBcwzZ848byrz31UtqxI82ulufXhkANWyrmIdBryDHdt9uLn3E6VV/0mbaenJ1FhTgdset7VWlNUUPmJNuNyHFzbIYyIYJ5rxJmvueswo4R7VRDvpm2b0KIDq59jFxq4p6MrV7aevYH03NpMSzKkWQTuohqjgyEhTjNGmEuysalc5Em8cUVKVhT1ae4tIdloHSK1vj5MzEu4lCR/ElmjyzC8XNrCky62gkz5sUzL0jgCJKQv/jxaXA4ESRAeS6ZqlOB/u1jqRk3HmM8OA2rs4kJ1lP19rBBbRSIXkToQUT48yaYkXRc28TkkkxVrAxbXvnYixtZGky+h4iGAtpUX/YXhQHhIhnUd3dXbjMAmsI9ch85cI08wI6SDl2dezqdwAcnEP+Aebp/nA93zP9zzhViRPCpgqJmjAe96mvbh2vFMX1qym9e1B7tEUE5OLiudeS2m91C25296otaesRg7pDqOxaNG6TS2G5gdnQbSe7HLcWy3YKXuOK1Zb3x15ieESFbi+xhYSm2nx2cLllfgXq8ncVrcocNOyj13v07SQyM+cW+kAHcGAcsKW5TNHlGEJFD6Rc+wuZ8yyRBWJydsXxA9bhlDYnrBJ8G8mx83UtsIzQN5UKE6QhbXMnThKkRtN4aaOcH0lk9yBGwzCxkI8CB5oPfNCG2uVN0IBwbHgoscNPPNdzhORIJ3WY03WFpcvjktIhVRaTU/FhftbnakvMZWxu8C0uDPSIZUenxqMqeczWYo44/dCpdqEUR2z67vd99UmcgbiP91eX0UHT7j15RMG5pkzd++1N3HLBFZV40lNjaiIwKyeFUTPxrza9K1lwra6YE4/Y5kZaLuiYgNAW9tKqfDdoW3ESStJIitCQoCuSQk4hUMaPH09Nh+RFpaJa1rItFgYKNzlLbkLOA/efTx78hKuaQrN62pkKmTRGWDlFm0E07pajVGTaa4rpHicNbLs1coSrgGvI2OfS+mKIcSgBkqmSRLSFMgzhsWEEJ5WGHFidDoPmV0XsEc3O6ZSqD4SWmNYRHgntHYV1ZIiHIjnXodeb3PRw7MhQh2YnZitAPaiHA8/cSxixG5CaSZ8nUTPDFaKYRBaiRhorVaCiwjhEcOZSKf4z5PNX/XuBROtpWXvICdF4DmzPLHQMFEcA3NhFtte/4133XXmx77v+7738Ing7UlYzHJTs3yfr9ZvmjY+1Vn79kxrB9XWP0Rl6sPGGMzIURJU3qB5xq5jIw50QjQVGPMEsbAcz1vSRxVn+zzQBgPb2wrABcYOXuoihlz+Q9voj+nByuIYxpS0KvqUyLUPA9xa6ZUgrt4ZIz/po/Tg0lohCIuVPUUSFSKD25UQHNAtBREUUrzMEQedkBkTh92i9pKjFZD8p7TOTgdEDvFZSAJlaGpTd6Gd9PHjJQBL11XiPdBqpgCVV4r0xyGcSIj1u5PZHdYk3bV+/PlfdvRKdXGd/RhbH7gfRtHdaTKzpceMHG5MssZWCZacWkfmON3LYy69LlJ9JToZmGYWKT0zQFCleVw5mZgmum4A0Hg/X9C+v76903ufCNqeMDDba7ylMCZsX+q+rhWYCiyMyZvqHLElA2bdYfLsTbTCnzfLOZkAYYbr6nlOnsBql902JvHEMy9KxdwQNutl5blVIIB4ELhIIUaovM5+sTMvrkgsLHsucBV2P1IHJhyAbK0Lv0f0fMWCB3iEo/JoFbGwrcYSILN2IyCOEkXkAEZFTaVYHkxcy8puA0jw8zm19UVob4P8SQ5WsLgjCaiQ3cGKRvUIf3elkqWC8PpOGqdeNkbXPYgwMrWOMHeXaSMZk0r8vjzZx2xfSp3E4fkH4ac3E4GEHFMkSB0MDOYmzdSIxDFdjJIr6yuxHtCmkrlKl+CJlRyaaB1kjlk/KoLm8riUH77PDuIZqb4JqUG6wkYezZSGpjfL5QTmmTNnvrm92FeYCwtd7Na6pm+tK7rGh868uorHCCBPUorTOPDhKbmbIADmLoMJ0ea2IigvgUUmkuGqpCR9PiUPAvNWnaP11ApAmms8D6k4MnKJhI/g59SjS0rxDAgoGFZI27gALO6R/X3Y/Cr55C6r9AAYnK11qzOEC9mVO2GFUm8D4qVYHBCE3ONAV3WAogc9ehKH0JLBdQEBXz/BQqfQqsMqBumEGHVhWYewemgKhniXrrIt9pSDxAmAmvUlFXSc2SVp5z/3aN6uHTfUiD87CD81XeLXX+KadoooJrfxUlcvxvfHOrs60xou+v0UrFnvyuh/m2fmNBlvuosaBdSzEz51mqEMKgCkx5fehQOZBfPgzMX+C3feeecr3/zmN//qZQFme8YfLCha1paTFl9uHZw63EddUQUtTfhUvUOBtgWhhaRL6a7FbATRzMbNRYIR82Mrwo8OKoLTLz8pclxYQItHdHC5ysNioRzBEI5mF7YU7q+9COMsSSQkIRdlnCao4nB3dRzhsgLIgvTEEGmI3mtHxhwuYw6VTq8GWfbfySSA4K4y6T/mFJ3rEoqlZQFkPDG6Evj7NogMAGtI8gRu69C1t4ahbNrZMdE641i8Po/xfczPnjWFFp/GTeD5uUOkaGFnOnbueboZbyyFBp71QsyPUDQ2VzzWRSi0lKmTO7FJ0yAI6iwluvLTSPhLeCHFnCrBAz6jOg8iZGQXrjCKMDzeRJpkYU3dwmKkBwo07P17zP6W9tOnD8x77nn/fzCV6Wv0TRgIm/uq6p6NWcvmypYpaOSEADmSrdi2CgBqiny1uFq3iULoySPyvsMt8pU8P+QJ7KJWr9uzjag6U2e0A1MnaYE+PhatC33xeA4sBu0l5tzycbfWLMlowWWF4mWEK6nuqC70ldOfYFc9dWHpkcx8pddCcrhOku6KCthbzqekvC5mSw4EWw5BO+djyrB43jGH3nWAJV/2EWKvH7bTif64zGcagQTrOOQQtBP4Bl9sQn5mEt0NB97A8CDHeaS1JbCW1wL3okid+Uz/bjlU2MyCjcOvP70hurEEIsXkXvbHNVLoxgKsdtRcO9OKThodeHOUE/ZYkp02apSBCcKuUK/ZkCsvD7OPHl0OkFGgq4zXV0PRNoC/fscdd7zs+7//+//lpwXMdoLfqI6+vvmtDpLVGFOHAK0x6VldgAma2OozRuzNTIgRZ1o736E8nVLtMZPlLiEMACHkfk13VcjGpsSueBnNfhdcAWjwZVxJQHdXqFecLCvtEwLKHg+5hRgHl555tzdlXpMJCKwtSEIfWOYxYaU4n3IEMDNcXQH42K1gHHq7D7b4YDf14woe6ktTDCmqqK0cAFrLQTLmc6T5cwWgBIgAqQPG1tNFTGmgokRc9B6sLYFrQBWhHIotVZiH7J4sXoePWWySPXRAjA+3luef9/njOiOLnVWYh+Yu3d1dbNa+WroQoCzqLWntiucmbS3AbS2oZiLh44XURY7lNGcH10SwIp3CPWOo2Cza57ecOeJZ3Vzo9trrWzPq0k5/urn98JanDMwPfOC+cZrKjfqk0+QzKXX0usWWKgrQ7gTYXbx5lu88ibtEdY8kxc6jfXxU4eOyvU7XcmexNx7Cgl4M4i6pXSxaRQJQsEg6DiXCn/gXZUIsB+OFr6kLWKSvo4wUQ2/vqPeiY53eP6ZomiU5w22kHjbHBOhj8ykHlHsx3ovUCJ8nhUonp55CoWB9ADHEahEKGhJqMGlp2VmA5E4MtiV6MJ8y3OWh/80JKBdSSO7PY89VpbuyVAqlDjROBPMT+bjznwgzKqyORQ7CDTg6HZZ+jCy3VbqbvNYRxgjUOmVRtkXBebde7LDIYyhGJ0lTQPgUuKhCwFZ0aixwgaV01revUHtHjHX5mSKOBU7MGyjp20+duv3vvPWtt22fEjDbG3xtc2NfMG29l4+RPsq+qgs7Qw9Ln7p471d9NzNTJJTczXBZJz8uAZOVbrAw50N5gODEJmPf/qj5lLbbG0gFBAAudFq6wB2UvukvdSoMe6jhTGFl6IrZ8caujkGCJM55ZNuQsddMmqw9M99I8Th7tWZoYF0f6wSQgJntvV45B3PZZjJmXIorijKBTvKGLKv0IUMJ7GwC2IIcEuQ5YekrQeoIiXjYiSpWkeQAlzAfiZiUTGzf6I7DSRj/JZ5h94qWG6nA7a1QceFRfv2FVUBY+ouwhqmuSqs5L+JMc698mPG8KOcCZmEdwdYyTzl3gBpk5w7KAC+e21OmCNVoZWe6zjU2ioKUi5Nffn5a2POn2nX+xvYUH31KwGwn9FZ9s1vMH1HSR7vdGTCtgqQYiRNsK3z7BNM/gwmryAltwNaqZCnBP0f8HXEkoUlL6/FGDRlWqp6w7lbPry6LfKP9CF2nRI0kqhRSjzWXi2pIXkXi4BPXi9pCbu7jyHwhp3ahsTEW/xDMaU+XDChCHnOK2JCTvPQFex9YT9yTic0gmCjB05iVhBS77YWggOkbvP4w9FHv0Uw6rGlvOG2vj+4KTv6AZIIbmzAfM0rGuFFhc5A4j9QQybEYPfr61DjrAVOX7dXu5eB3v4w9Lu2dfWiNpLNAtXcmIElDMbvjscCt9XUo9NiEUlGfi2NSOzKsla6t67Xnuf/NWomgzY0TFCAwSVZCM0srLDN/RpYiKqb82qhVHupw61MC5gc/+IEXbab56+ux3OUk62mN2LIXO7MEZkbLBS+M9vM2Cd7k7B+4aDxajwfUbKIEDTrDf+wyEq6N7bSZJVwLy8iLQomePV/qcSgXDJ45pGMUVSeQHdnrGDOmb9XB83o7tnDVMq685nKh2vGmyb2hszdkzmjb4Z3Zu1sox5jXgZ3x6MLCqrlcD8TSQB2rx6KJrT0YyyEXOuSF5bUOeZ2ljenPUPWMdKsZ0w6ch+nv2aCa08I9TYuqFBFuZ97uc4HT2AwlNHOLckthKoPWt1fypAhRfD6q0M/xC03NdBWESFR9Sbiqkciv3v4jiBds9iSDpLD9ZIWyZ3kcK0ySFVrMzBSgIdyMcMxCxbnXeDI+LXhvs7CiBfnS2iupdJaLdrlof/vrp24/de1bb3vr7zwpYLYn+vZmCZO5rpN/KRNLi8k8jjAPBOWEmWvkLxNYLNa4We8eKO9DmgfwueVkcfTifUSsIW4lK1MpXbZVgEZaRvpJ7ipVoVVM6AXDMXsVhf6JLmXyCg+hRlUX3ghyZvSR7DuMGxc5yGXnOHNHMdJ85N8IOKY/crdA3v08h8u7nI/p2lZK6pYg7T2BWCg9oHPCSADDKnMDWM4oCetozyE4CbCMOaHm1CT0aNzMzYwcUP99WIQCwjOtpzcvzn8ElgvrWakS6jEkCSEPZeDewsOR5VoJC+uqnaj6KAQar7tEisO7EjAXWaKNjVu/srCc6OtD5Q/ea8SokOAxNZjgqjuA3f09prsvBaWOHt/qS+Y86TVIq52db5Y/purkjwVme+M3KBiZs9T4UgGppI/lbmqBr14QMLqKXy2a+e1JwqKaG2snRTx1wtxIXbgsdcYF4t+4q0Y0AsD5z1RkeSjpx5aAK4FL6ytUXkTswqlT7nWRTGELyRSdy3fc7xNWarDTXEFMyMWYkQKh+sxLwyi1I+DGACG7Cwjc1aXFG8cea6qAPiZCB7DdErOzutZ7jpi9OYwOMJaKsadQCqvL0jW3uM6IJoiGUlh2ehVZUpxzj8d7uoUg5VnwfTGiQlzndIzwwUUOYJP0ocW01IcwRpXIQS5rHgUbhixSc7aWQobHx0IwUKrNxCEBWRhLQtOdsI5BWXr4hVg1kd0NsYGDllbQ/nN5kLG2bjdLfP4K4M543Xl2jzEbg1tueFLAvO+++16yneeX6ZtVyZ1XknhH9fXkk7pM8VAh4KVoQFkdJXhMEjtBMFzcfS0uKmAbkQo/lOxa7KgUK3Oj5b8pgYxFLV0NGC9MqgRQGMeQwO2uFFcI6iSSIBEP0gWTnzXe2xk45GcwEfrOagyX0zqnI34z99LKMh2gRvJI8mJmuqiMETNniri21tIyQ48RoxVJHqKBMzvgWSNpdjgAS+tF1gDayDiRvWuH7h7H+2Brzd7AazmaPbEuBICl60G2l9LGGDMi3EPJARDIkSmW5SXq5A62xcSrmOLxgAQ2Uf87i6YLj2b9JBlW1PLWmbt1iRjXuI4yhxA9tLBCcXpPs6QClxUsbEGFFAUMW6ZR4n5vhzOHhrYisTAjVCuITZ2P0ZCQHR/b7Wve/e53v/htb3vbbz8hYLbbDd4RzSc5a9e7ixcvyf7+gQvWC+Q84mU6yTUC/mGsHtMLpmfrzO4yvsnqLj0dGwIEXjaoPOoxsNUAbAA3Lqn01w9XuC+CpS6WTYN9AcAaCN2q5FZO/0NbygTR+Y4CZuXfB9O3rsJaReFzs1JuObLHpQBTWoGtTQn7PyoyIj0Cq8iZJUxbMN5EVwIrx2TTZrYRScPCqo7QxoKxDSY5hZJIWGkyUIJXhaPYe04TZBLOA8vAaiIpBkAtcpQ8XkGRybICZISi5R4LCKVE7yVIAfsbTEvfhOMydjmbx2a0jrTE1a6trZlCvsI3bisxBAnoEjt/VbekjCl7OKUlWyWKLbooIOowQ6InCyWPg3yCnM/b6KBgWvCcFgK61baG6BTVWJ/a2dzZ5l1+a3vWdz0xYJZ6g770vPUuBdYvVmsvN0fOvhb64iVSHiWRwWr3blECpq6wWViPUQurR8oyvvS8IgN+v2YVha5LsPX5ErjK8bceceK3uijtSph9EXs2LaYvGGckE6pC3AqOiDVHpEW8050vygqyiJbSUxwjRAPu9o50bUGq0JIOUNAM0a9nUfQcah5/3cQ0TYxSwOPJpLJMTMD64mezqIj9BHlIiu/pGfSOBcsxC+x+gDSLETG5H5sWNazMicLVY2zKGHGZY+b5P36FJDZhziet0gEqQlmeAyVIBxApBOAxEYAsivMjBnUAJeF9CzEBn6NIlHsxvSEoV5S5xnotyNNHR3Yys3Nf96xMqVZl4ulE62iAyWIe41afx9OOG0drWnfDEwLmPffcc217Ee0mHbHlOkTrk/vylblLP6FW7Lz1zndTQSW3xafcMSaPTWdWddNadpfT76dAuQp1yrGXLnJaXYzQI8keV9YAHSgfrJUE5jBFhQTZ0mEE25lWGA7k7GRaDbBqOaZGW7lXSmHhDJArpibc9awYHjQihmO9Yx9rgNhzZGpliNQIp3SNeTHbBPFuhqsb3e8ElnbwKC9G4lFGKEhxJMr2cv/8zIHis/jjBzJhHjejERnOYggWluDyvKVbrJyWcX0H2dJ99bqCesw6WnoEMUn4UQvvqXtV7qF2F5ZrxN3RXLzbQEGuLfenEbYLYfdFifLCXrlS+NxCoQLiTphb18BWxIqMX91D7F3a3bpafWbox1mFUqKihfn/ZsBedvvtt1972223/c6fCMzmrrzS5ojAUm42axerq388zzioOFAg3J2wo2yRWikoprZSGLWY28n8cCr6eVV7fMkzWEAIxF8W+ywvUodkvGfpF5XLgK4dXeQES+eHwlpip2fD5RU61qVhhC5W3VU2Y4YEbWDz48F6+wyYCeIlXRSepwCpL3JWcTDNkSP2i1wm3dzRN4U+8g6xInS1rirq7GzOne31zcU/q/f3yWGtsvQ0C9nQxNYlAHVGzxAy1DhVYXm7pQRQE6wSzu3S6i3jyzCk0nPKPRTpt7S4urKwhM7/OUCYKzQnHYCLRs7o3RMbOYxAQVqE7CtVO2xb2delA3FmamPuf7O8PKykftmGUiBeABNsaZrZY00DMAo/pglpxOJepPViLv7dsx7bV8rjysE+BZhtN3ul1knaAzY+Cdp6xSLB6koK3V023rOnok2Iln/VrRVKr8239glfBG3/gB1KDpqF+7Jg3bjT1cSYwv/ku/ISuLyo/k+KAmqBNA/V+HzevChxAgjcZRwtf8gaRnNhodCxRQYWUtuDjOOOW63VgAlcIxL5AmY2RxtJA8GwqOUEyPqsSjaBRqxZ3VLFnBFarEShOlIrg8eDofyha44mzpWkVs4xp5OVKBJkjsRG4WVtBlUHUSYNhCuVJLybbup47jPy0H0rdcKGF0W69UqMJnENUwqOILogYjNIiC0TrSPWH1ZOLynk4gCpGOKDJMIZJCRslo2gK9REtA2eApw7iM2iwQVFmsRdVyebJg5ThuWUShmqW0z7UoFO8V5WM0d/zFtvQzJtXbSzs/snA/P9992309D/Co0PN+utjdLTQUGav3RT3d5QdonSVn/WxkNmrlX/6mRPaGrVdW3W0jsalIVruvQv/OJQGLDcdX0xOHC7M7W0owHHWApcRHS2WIDrTz4swku6gi6vq8qoqhXaMeYHsSALKAVlYJ6YV4GBWTsjd4YgUjgpa4zCYg4dolUDywoxOpP5VOPYZjHkkPJRlB7xLFuLDIz5BgDHxwJK7q/lv0KRFMDGa9FVxXvz1AcM50KOGHEenov/xQ1xPq9J/SNAGOcfrmsnh3BN8ALHBCZ8xgoBQWXqAUsGDqzdW3BQrREnxqqouB+gmSHDm2tPofg0L+q84VrCzSSZo61yKH4vaB1i2vGCNImxsCwHqz3nOXtrErO61hPIf96yaZdWaG1H1weU7Sve/ZM/ufu2t789JoQdA2Y7oV/XUP78GcNndXzexkyvI9zp5YSA2wkeN8lbN8+Tx6VbO372ChO4DnRZ46QlkT5undtWd1UJ46DJKwFHkuG47V08BdZN6s/BOBVxEuO1mCGJkq5c2sJdSXQNsBJGW9DCwgphyw+2oRS4cYwxmW+Mdh65u8Kuex0ifsxDjwENvBDVhwgAYI1iZXstKHYGWL1lyw8DXo3PF31lSfjgWLrBlPSFuAKnl7Eixel0MXNYMpFj8V8/652ngcWLiJPoShKEeGyyFa5xrZBf8ilLWD33pkICtij5IstaYQ2dnzDCtwBIkNrNKLIQxnsJaQy6o5x4Tne0uCDAXVI0laOLa8X9C28Qce80TX0AERpzcTLYZKSPT0aP9iP2XOX5bVN4eftgv/5HArOdhFckiG61cmSzngyc26CT4Z+DHt4yxpz9Z7OszUx7758puhEcB5tETECc0T2ZA5y4MBhSy5pJuizLhElPbnPxUDAtwkRbtygcE0D5W/IcJaycNvNZUWiugGgo9TgUTbFydys58DXGCDQLWnPPF9pxuUvkrAH0wNwkiRTGt2B8s2BkfOr5SPjk7iYz7nMLHvMsDWQ+LyXKxdxP7Z+VGt1Fz1tzW5FfpTXV9xfj1wVgBcAldfH54vL5+U8AWHItnmtE+pXqBrXHnnIM1LXXYGITt1SXLniAuggt0oJ1rRJkYIGVtB62GLPHyVwctUeVTuVa5vNpzl66kF1mt7I1GpdPIHbAzpZlaxLinaJ3Z2jJEpcyB3BlQr4TGOFIkPbWXvHHArPt1K/Qz6amXbumqy5W6y69ZyxMM0ToOhpBLSPNtgFxSzNde1BeH3cZYrfsd5DUof4xIlHvuhtubjDxmQSRxM7bFwvNGxcCYirJcNW8k0C12saedNefV2lhSU33SikcW012TWq0a4wFhwE6kP4wcW8yORuT4N/pxnqngK7o0cU3YpuxhQj31p8euVIsePv8QvE8NgA6m2lhgVPvnmBAW1hx77YwhMWuiDtFuAHQG8jx+se8nUUvSXdb65LlWVwCWrjUK0MCpTUsLOCMuI//ocTLw7fo1UNCiKB0xhUWVQQxIIkej/kchN2d1SN7vaYr2QTiA3d3SxenY91bB0cWSvM+FGuwJMzynVOJtCLfp1lNU8K5AbKSZKmwomp86iuWWAxgPnD//ak98C8ZUDDBy2ovLW50t9WC4eJNtAqaM2sSVf3mzTT3HaTOESf2yoBA4oLZ4V3L6JEPXRAB1S9RxmLpQDy+g4cbGekJ/D33eCoYy/bDCjEm51Xm5XxK5g/HMboGDBB/p6E3V66JhdewgpmyObjMmPhFixlKnJR6k66E3CcrUQjsJOGOUmQfFjoJiBp3dekmc+NgWRetpmS6whKvyRg0Bwgd5GxsF21FJAXQltepX1amP1LHHGPFtIj5ueXGPynAntIi+qzxD0BItzXu6UEnADkv2P4OXM5craG+MX0rWNdEBRBKwGam8hC29VYiczRwnivZXfY+ht4WMWqtnf2ltYyJBLPzMRVxqaJU04xq+Foo+DW3nzqVbnvrW+sxYLbd42UtntzbTk7oWHf0iWOuncmyvIx+4gld1FXZU92kb1H+NVlr+J4r4skKpyctauww1mDZ6ycuoZ1Zj5k8tmPag26SX9FO2/eFErpPSZGE9453yfKSMjhQDDADpnQFIZM76WLDglZ+DCtD1K2Vzrz62L2lW4u4Mvf4NUbYRV6yj2A3K2aplKWIHeVbwlpOvEYC+FBIbS5n9jkldN1ZT8oWkwOtJYATVSaIcbkvZvT98d9B9NQO7OXm5xYR3hCuR+GmiuNyXJ1+bT715qwsAdlDH+jAa19CC/Yw9LMucklYaqU/nqkWCAXcCnbZXWhvhbWTXXhAgLHTRszHLAu+ZCrSO637+2fnvCniU1ZU1YgxXWxQo0GYbhoa/ql4Z3e9e6KtyZe1u/+3Y8BsQHtFReu9yVhY75LuOtci3vwLZtrACTp5M0HJ4KbeC0XhkiDQX3g9HUAV7hDlctwBg6gRb1EY18XJECKv9yMFKhdphbRwyQhS7Wde4PaNoZ4Z0SLSxd7W6AolXWa5RgwMAuAGCA8sZlwI2nubxyHE76yXHE26xwLqRb4yLxhYWNkhrC0UOcfmU1J6l1D9gsekhBmU7GQAsDrL42BaTPRafhXpxBLVPQFA/cqLeD4l9NVBDB9SyQ7YIIVSihQXLxEPPSadlE4QCX6uBCGAkyqT8Ukit+l7ul93qm2khqvr4p2CTgNwjRfMKWslvaWsr1PmOmn1EpU9hcSOhFtrzzd3womVKb2vUIV+FqkW8SYBFM8nsL/q9m622jR9JUebteqxX/EpwGyPeAVZpQmd72rtreAT5gBa3lLjyTR7F3VlZykSxqBPQWxJvrU3vvKTzmKtxI0wdlTmsnCp9AIXXOBU+45eneQJ7SXjmdDBMnUAUgOExsBer9ordnQQWhtKdgjII2orOT5v8NrIRGkbi6Fz7/kahEsOq8r0SAfp0ImgAGQ+VkDtgOzdECSnY2D2Vic5UjcpQOxuKgGg4PEoNwf7KnFOyLz6ebS/VFjHxHtwHRIVUji3Csic+7VKHUyCv/MipwVB51e6o73POe0MPQmfyg29dkc3QIc1EQUQTJtUlG+ZQYBwvDgt22dd1lDgJDlewOxxY+nC9lJgqWvPbQKcEflSK0vXNdzVqVeuwM31DgYaw07hUs/xOJHt0VbW6Uh2Vjv69bU8VUuL+RIfjAILaAL0glRRAnvV2ahlLghd+iL3FNFAnGDfRRMExYxB7GNiwEvCcV7Og0dBh1ljHVShk8QiLl7+FCsTjCh+t9Hrenc0sRqh2nHFjooMWEu5Ys4SRE9CaxFBQbRa0AwQc5weBQJ0U9PQazE9ncGpYFToDNGTNgTncFHHoceCnIOSUGhNZU6GZXTwcjYJlEXihBKJo4oTERUkduL5XPg9sJjiOmXEzZWtQuC+IhiE61oDVIJNd1GtF+FLZ9S5ASfyPr4+EmK85BaxIG4M3g/vw3fwgs17tudwIGHdgR2dI8akBA5uqPQSrgSrWiHhY/Nm032z4gQuqFk2O9aF5wQVG0h7HClhjenieuVVB2jvmsdz4+t8myZZbzeyZ83T1191DJj33HPPiWYlX6xAtDhy6+SP7gCKPHYh8yG07iercEBQe2bHzEsfFT8uN1eRTnv7hKHj/A6vLi+KFCwCEgvwWPFkBLIbgw5SWsylhfAGxtlahFDRUtk6MrG0Sh+JDniUxOmcy0VaRTA1ywkixH1s4QELS8uYorwrhZDAfVSIF5xp8Xwpm3iZ0sjlfBxGNPDxygQv8qEmeIj8Zpf5kZn1NiB+TkhOcahqtzcVuVPmLd1FDTaYuAXbSlLO90hcE6nRAgZBZ3eL4dImeEJRTFKkFy4ArIVeFmsc8f6WM0rC9QwLAD0r0bmMUeFm9qbNPtCK9ZQcn1BBajoxI2HVShT4+1hJG3g1kXl1wQCJHvYLklL68y/In4RYd8b5cqPsLLDyFXqsTjXY3Wxf/I53vOOqd77znfujX6T6svYk2fWAsxc1b11WV/CCZeYH9a8JO4teupIdnIZjqeFDB0mAHYwED+vseJnpohDFBRfeBwstF0qKFEUV4o+LXOy9WIKdKBZQ9GaYqrUZ1AW8M8DycDjPiPhs9LhQVj6WnQl9tqpcgTRSa0nSJsTlUbaF9pHh3iZUhAi6G2Bse2IH9149klBBwiLohCqUMZ57QOw7hrQuBeDhfualQ/p4RhaWk5Y0zi1jesYEtK4I6bmNp4BfXMfO2HIDhdnkgfH8Liq3n5Nbw5Q6CRPT3cTXl+tgXZOqyamJm0Lt64XrA74W6vVrtP1YNtYyKzsvqkSohyVjao3KHUjTPAdhw3pMjnwP8TnYWnu5AokevldI+2aK2hcdPmY7DxgTL163Ge9JzUZKL213/4YBsxmvr2JRrfnXNilaTavr/ba1RBGqvQBaiviOh5MIGq0bwh5rOpWNXbCU453OApSIRkrtQBQXWy8d18RrDStAs9xTb3CfwBSZRGF2HmS2kXbJrZbuxbBOLlZfGUmj31eWJlGXb0SrEWpi0TEgp04gpRQd7TjUR8iu4m8U71Z+MFjrBHa2F0inLkjgePcFYDOs68i4kiVaAgIIVo96YFqtbsVwDnGy+De/n+SZRFrFni3VwBcJN9fMivTpaeG/dlIOoHNrKb5ewgOia1vD0Em4eDXKryrClwJwV9ZkBiFTO3nkvqlXkNDVrCCEUEup4CajSu3rDIWaPTdCuFooAqiWGqRih8Ck6odN5rwJAAqnAX6bEcvBtpOvewOjCh9S140nJDG8iGKQvd3drwpgtnP3VXQDbTdAHtNrKYsNmzV9YPVZDRvSxbgYbD0P51LYLKly10MQz1vhhZAOQtLhru5ZVL9Xqk+6G4YV54+NhdDLq5h7I3mR0Qh5J/l4dh/k6gvc4sFhRM5ytegwkDGaYOhtJwfXwgoInWWvHvaPpQ53REmYkLRJHJuX470NcFc7wMHyWm5RQk/LSV4kkwhKgp/WcmQ8KoLibbeqkt22kbXVs6vDd7uz0S1lJZDiuvD8y8IKLgujJVxb/m7PSR2ssKxPUO7VAd2DnRrXn3lFZ1PxfOHeguQpvfbS3Na+Px9rA6IvivmUPgoPDKkxqKHAQSPnMkE84+EcK6fmucR8TFpWq6kkIVTJuZCNrUir+OuzHnNbPW+qoxjKhM+IUIwusV2JPFicCfInvcQylbUK2yxsZq+htHYIBlbfsTYVE3YVsHMfSFuEqozHlessQNnr1DvP1mmfZbCJIxKInsQqhxQX2ndWFHiFC4Zi4LBasDxtMa52vIJkgGuY0R9WLePxGskxWktaFwJnYpCaQCd0ytpkQRQxqc/KEYxr57EDOwjUHhN6q47ubkZcnHtFikkBsUFkgJJAZt/YDOvn4AOAImPk527AUKCIIRkShCXlFeL7chfSjSqsaeiasQUDwa4lZnzJEEYi9qwLC0ti0K4gNgDSEpXBpHg8luCRmda8dHKHfYzDa0PM6CTNHJOg2bSZA4UmMKS9RnJeaGlr5B9r7aMS7HFCMTzmYyI0Y+zJahQ2h3atrG8AqSThuHjbACaYyOpxpllydZu3Gwp5XrIAZr3WTk5BgfMEyZ1J7NQHVtRPoQH0XrJI2sosvEapUuFfIVfqu5rdW8nZpqgmcGmlHxFUui6M0lMAy53VF1Cx6np3WbGYEC/RpayM7zJInGGFvGRGKmREZ3UKyt2CxiAf9I/t+UUHyDD0NAxjyujzk531HcauwGG3dgPFkHpdJdxd18b6phIuJF1LyusEpWDZrRdj32h56TYYTZrxOLisHYT8mV++meVgySXAaRtc9O6JbwEw+7nQagKQCw/HI4x6jJE9Hp0CvHYpCXAJJY7ZytLjTyGJE4qaGfdVkD8VpShzEDt0KS1mLDQ4Doo53NIatZl9gtccxc7+xfwmhANSOvgZw0YOc4785oxGX5ZCqW6JC1zgiS62+OM2SWufR+uptd1srjVg3nPPPc3DqF9CN0BTJWtrvnUoh0eHEBXMsTPUxSBP31VqL73B7ncMlLWrOpzc67uzEHi43wkBBP/IW9qUYrCCvMW0KT4Bn3Ph4nmKwgmTXYjUtW+PWsFV9tRERldzd2U1d7mCZVFCqEZdpBM8Y8j1YlDPkOP1MtQ7VPWMYy8fW0UFy9ilekO3lL1WEo8Rb0frfXcoau8lWeGuQxJollI3oyFH17q0OD8WVwOw5ky4HfMXiByoW+/BTRtEDdXOP2eVhJlzX7U7OLCgMcuEAMZGaxwENuSuny4hOg8uwiys35/qTJl0j+dgKcm4RkXJgmU91gpkdqCmhaKn4Enj+Foxi4SEJes22UakHnv9gueMke/zHNaW1py9f3oMizzn3IcZuQutIeMsYzvmsJ2wS4cn5Pmboy/+yZ/8SaX36ouKltJih5pQWbK2idEbu4is0t7qXMvqv5srKwXd8vyDCkS9ZG8XnklYO7q3S8KADZopKEhxNKNWQDkAXJBkl24JkCpgdUnNdFWHGGMwUmGDdo9s1CyZljZHjKhyPE7t6kl+yOVyn0vpNZgLd3egvA/x4jgEcD1uJLDQjCtJFw3ArXQxOQHJ8i5aPUzdMm/BzyDnYy5LwxzEXoPKxs2JFk1SSPpis8MG118/7g1ryU2Q80m5v3bPplvQyr03dxaVg3golSODT1ZWKoYXlxLqHd7v4pcSCz8h5cCsASs/KDiYURS9rPAgIGZOfa6U6y1YV7xPjyPnAGJvDyIONoCXljJcWc7HhDXW/2xU/IxOkaEBcFmrurCzXp/DbBZzs92O7TW/RBME13rXyF6XZk+0UaKn+bxt8bBN5Vy25tImnggEuQUuSd/JuFvSbRUwDUu1R48vY73ggleIL+OCU2WCBydc1FpzUP9cNG6BBoxUd72pESEKwhUaN4c7iq50nE8pEvGhkTe0VtE4GekIkiqSY7QC4zxhfJZSgHCAUCANC3E8/FaqhLybApP+ZFrhqi7GvGeoi1jM7HtTd1/pRPRpXSCBfAeIxyaINRLhlxeghuTRz3+3idxm9VEFltPu5Z/SYiMGueMToX3zdZ0A3dNOBnqq0i2JwLp6KZQDmSSNp9xKtPSo/kdPUyx66kTDOBgQr7NcuKy1s6j2O8lMY2VrrwyJ55x6bSUAPoUooddoeh9l/xtbjNg8ldk3J42VZ2DJXOrJiSY9cetha+18Zn+v1yo59+Wag7S4cn3UzOmBHFw6kMPt2sbk+TifYj+bCddANbkAwAC62O1SKbETcjeNS4VY0phfLibGFiGvS8fHHGDx8a9xzcHI2r5MwTfZSLVCKyhs1HqNnp8cEplPdzlNzQN3cmTpFONICtnR/zUPy84EFJpjUxh6PjOqNWhl+b4iDuyEjVt0t+4DKjksNh4wdDaE8UOUq5Hw8QpuEKWU6YULm0EQgdklQOG+8pyWxHwm9zS8fkKsDwCHoeyIczFlHEdLmR1sKQVQKwBqgJzJqhKcfC5fHFR/Wdy12OTDTZ0RJ9YSIJNQ2tRIo0TMWBcxIGI5FkAbeKXAesFtBUE51bkbJzLAheSPg3WC1a4Rj2ITYMO5kOghzkzsN+uA5ahK3QgUd3p5t9vB+wG5Vf1iJX9eqKA7OjyU8xcuymN/+JicPfuomVXKityN4a6TXKwenit8ZtDUbGREps2N6RKolHshVilONkSzkJpw6RcRTHWSJ7KZEfN0uHqx8mCkz4C2GyNY2AQ5nfb20QIrK+sSgrE33/KxBKNEEbWJDyhcJ9kDddDAPq+5E0ZhWSk2978F0ZLwXJllXhCbo+2IAxtqIeQiYwy8uatDVJ6w4JvuLq1eJeOrp41aWngbDp4cg2p5LlkAYPuc0JrygsEMYrwEf49a1GXaI0kA7FOYVjTzZqgSoQ7XSiG4OknI1IS5gFIXC5qqGmQAQsguwgoQenDMR1KIXtBOhLXF3mYS7uvkY+icxQXzeizmlGCII21jRR9oq4NmWwWtW/9/5t421rLsuA6rvc+577Nfv/7unun5EKkfQgIDDhDkh/Ij/CNAQWTIgg1BCWIgsCALM90z5lgUKUWUKBEOISeGHIqcnhkwDmAlgi0GUBInAkQ5iM0ESqxIQEzJCsJEgEXZikVJFDXkTE93v3v23jm7aq2qfXtIkxz2ULqDnvfe/Tj33nN27apatWoVO04KdGQb3r/n3KaX1UBk6NfZxLnQVvNkbwm80F+h2iNnZ3L3/l2598Z9oLE9lzOOosX1Vlzt+81YKG4iu2HscFG9yBydmR7ESmOehNdlXLhx7J7Ao7bRS6YIyeCdZJocjOmh4oZeDXQ5DfW6Ct5sUXWmdOScPPdURg/mlnB0npVDLCSldqz2WNIAAfZQpHmcaclckugpBwKZLTLMZVgrHu66Sl6OEJrK6Z6TIlRu8KRtPCcMdR3dpVsUN7q4r+G+CMOTxeJucOP5pweM1D/teE4ZfveACfiOroAU5TQaNTuLdPtHXlkccDHYqGDEo82nDGOseE+2b7mxAghyMAhtV66YLjTsKHFY/lqGcBbPkeC8CoZjCfR/CgCeLUJdlmD0Pg2TKSPSS5BbfMaFkiJCNoBvLMZXvDCvn+XGeFItnDCOYrfuMi8ylew1G+U7Fpx0ImVA1mw3TE5wJg2oAiHw6Vot6mREDUhitubmMFyvS4a7BbgBj0FAJ1uuuNeRVR0VMDkNTo+vQsxogs4b5KEwQqKrKYF+x86PGZqulKhE/bPXRvWfNUF7AzVodjweDV7NYyJRwDy6uBfMriTAiWEemjMsHbzozvcXCVAI54tiXP2+KQfJwuySoJuVQxKTeJ7LYdvMnk8gvxd4TH8NPE8iuFPdk3LDptusMK7kRpqGOiQ2eAAxBhyKoZoonVgHDEJLpE7eXwnD1kXOVkQPL62stx0kPMjWUQCIM14H7xdNzQu0Y81Q20Cx86qEG6QBpgtaJHtvcm+A7phMLWwBM86sGSr7PRcraQLEVPvT8ycXeih7A3aDkAJhBGL6tCaUZ8JC7IIBLDhBvhUO3hAuk4203kUbpqW/afDK6ywjGEQuZSyjQSmEAhvuNTOMqYHHOrmCevYFTY3YhE6RbhdWzyRTJoMvS7BHvP1rTpMT3mlU1osZigEmXTl7eDsOHzKpIFD2wMzp38fAKfO4/SK4SnuKWueEUFmmIYdOk39/hpMOABGZleQGa7kojNlzS+SazD2bgMieUOowYE2PMMqBNqJ0vCZJWO6IckpcY4+nmJE05JReh6w7G3wlvU2YEtl3W6S5AeqyQh4nlQ35USZpwEHYCVI5n7KEJ6YGTyGPFrqvnh82KqZbbhoylcUFn31oc48gt1v/u1AlEoCR1i23kYtukZv2778FjzaV9Uzu6cq375jbjR7cXZCEDA8n1sL0Imfrv44O1W2zuQtdTaSfplbdUxrbJxJ6D3BdLiSQg+ToKlu5HDmwN8YiasqOqYyu7CEYkBAoSQbi9LJGyxwrYLS0bpQ65bF3a8xqheYBMQKBBjhJGKzmgpOFqDltxMfeTTkmPUMqhLkpu0iEZZc5RVib+Fj2empG0/VMD5lg1PC4fK8ET+0dJk6/m/z7R+6KkBUhrtrKxLA2x3OEvxLJDTCK3tcd5E5O31xYy9aIGUwavae7ZLZlibdj2ZoI4gnxB7JyGMoSqNFSCwriNdlBjNkjusF7W1VtrmKgZZbupYShqZU7WLYgb9anADBErdVZQ40gUeW+YX9r2LpEWGw6ylBdh8bPglB5C7bcAo+50PtSl7ZrZBWCRs08fP+ckxlkbHb5Rt+sr3BLIy/HPrhoPP2g71qa9RblynJEGUdac1y25yOwcO/PAwcwrjovUMIMRe6svMBcNNl35iyRU7G1ic3DGrZuzDD2yGs1l6h5pnlMkAgA0OzOoQQYBRRVcvbw2MYdZPFOFJDJR9L5PBDROU7P5EsSAKUcM0q4oWSGq5N/J3PTeH+iu/xcBHqmmDDmeaXQMEERFJARAB6xDpwYfoq4HIgg323JkwfxTZrc1xSlk7FphD4xSaCwYDsI0fUkBEpiLYyTtRpC1tIC2fd2LFh1MVcrPrIA+VrCff09yuAxKwWZhWweCzUFOWJBWaN4CItJAqX5SAMFccgCqqHhE3XNuhPycoBW78hSMkHBmEqUV/R5W7zXYl7c9JibRqHrbo+iRQO21i50hzgnnFlmJy0H5al1ap6iSVsUTOFVcfGq2ySRVsI2ILR7OMoFIgEkCNIUib+FuecQCbu9Cut8hr4aDzarul3/vc8M6V6LoZ8uTqjTaflBZ0gaB3aDHkhJ1PEReKF++OY55SyDISWCO/TCgZBOKGsoYX6SISyeXE9I8hzhJulyAtRVoj45cdRBtvvZvKwLHIR8biRqXzhGA9FAQC20kxacXM837W4mDmbIYZr2XtwqGYkS1Uu7oSwNiOCNYJSBvaQNRiwKVHU9Yk93vOxhBkrwprssX0WkfjZKR5qHLTgovZd6zdpAMFjCo1WSEoKhQ9CHRARBPlqdrre4QdMQi7eAgewg5kFN2NwYPDpChArtTlgQD4cVs6mmqdVY9lmfsKnd+dXQP0rtoM9FPWi726CCO2xR6Uz4RZulebKZMCK26IeCYjqQI/FfmoVCBAWcecIQqHESF/5OLYCeZABEhTNlbyPD20lYArDan5itYGaHjSyYJxtXZ83HVKWLWSMEW4QtXD2UVUFnjLcbntc94obEhJxgsCIknDuPNjGMJsOIolzI7QRjD9IEB2kG5Z7agS3UTJMJbVENzyMIfn/mk/TGgpDfDV0GzykeiYhkf2zwlzTH+Inrqp+rEVtPoe/D687b4B0TjFwrYgJUc2exERyM1GgoR3oIW1uEvaxbCoywoiZZmqVYqg9ZjZTQQADwSdNg8RRoxgoYO0sbKH+lAbBBeO2dJBafk2fbaxwNZRJtDatb21yKhcMJXl2Q42pFo3JywfDZWtN89MHW9LWUWNPSwbpW0wGNTrmyQsSr6NgDbRJq5BhW3z0Z7kTqMMA38T8DEfAG/RB5BIVairDKIXvZCbsywQZccPGwzsAdyQzfJtQIrQOkgXJW6+QdGn3HnucmLstI2h3AnG6QaY4SBnNMIq6CPI/hKWeLePiIkLGxe4XPn9C9rLmqBIsHOrazE9gJ4AAMmtAt4khsGsJ6EdLzfKgQvkubuNElnH+Elsgd6StbQw7qIVQKpJx9mInPpbmO7jSFIdIqG9qwIAdSA/L33JXubnC2Ud4AIGOpUkFOWj18tHIakN4mbqQmcWMGuGBDp4gXj6sMIfWM1nNZkDuygdpBTV3fVRzirBECu8ek2JY6MMupuzHbeAj95Oapl4T6Z13tSRSU8hmzOnJE1MDvLXfl7r17FgGsNjmvC/8AFXtD5Lp1o7VFCuuT1XdHjyzx4VliseuLi8nyiV4784qxsaYdcCjtQPL2WqKO3ujZF1VmFBWG1Reglj+UAIDwdTbSuBf9Va2SJY9kxghgJOP19IwaCdNQswlxBV92MAhuDtmMjPMppxxAElFYdqO43McwRiGTZaTHIdEeJMLJSj6OPucAd9xDAman5hBrlxNtLxlZwGRTHuK/8ly28KU+hbuJE9J9j0w0JKwVDzYjxG18X5ZCcP3dqgUll+G1Ab7YmsrIN4s5NPd2BGtIYuGIAc8rWcPsR8YsVqrUibBMwrwOgM2oatDEvWqQD9oOUus565Bj0usJNpPF4mt4SEOHBcyjhnEJ0W5W1hB2kgf6M6uOs9L11td18GeftScRo8tpPmi+Pna1Ghul2d2QS4gAEEoQVxo21Z0gCTmRI3y2W4/hbMMWPKJ+XFiW50FzHCCIlkg25i1NtBkMnWzK6s7WAfBjanlTIKUpYzBtN5yNcNSdedHQ7/GuFYwtsPAQ+ebQCO3hL/s2YbR9I+JYBUdlvX4ZmwNH/VkNs5khZ4a1/Ml8keASclNJyFMGUCux6ITz7a9FCNxkyD3t+meCPNgw/frrHpqGa/7Q9Rd0kdCAB3zgTU0NiE7ZdcQwlpqr4sV/ak1FN1NIfbTgsi7WS7lgZEdhAd8J6MXV0M0Ah1po45wRe7wC5CkkxFerkdJja3mFvFq1g8VRZvWWLVTeSaDnZrJFCUXFCPo569hNRg7aP7+F9GuOyTxBN0Jza5od4EOPKAyNNIEy1/fg4l40Gdeo+P7ru2kAszS44THPcZKERGW8OrP1ibsyPGU3lr28ASqKZmWops/grlIoiwV7ykWyvumcWBi8MnwmCjTT+PFalwNJPtWZntSUCVAaAXhD1QEfqe7iXyAcgFTectDuMnJW5ecmos8SHNkcrV/ByUV+KuhBxTlLgta40QiZk6KhQI3OswZ7r2gsQN6Z7SIlajEl8VwRMY/gEWA4tiuTWsnyiKP4NQzX6K7kljZfE87mYQjrXSNhZCGaRU5q6PC4J4WRsZuk0EMW6PCU4TXsFqlDa1aJz2YTvux1i8Rk9ArqXUO42pag8XnY20XuIFtSIaTeSQ8kQ+Ri2IMSIuz997vHfLCe4n29SFVw4upDA34IbUNDp9neSEZP/OAOa//R/nTxtRbAT2qD6aVYLAx3EYZ570OTaHFyAKfnck3LJdO0UTlKktUFgEoDYT3ocualdBgt5ETM05mkZf8cMxHTQWdH8zqgoKNhozNZDTnAKKKmyWqO1JRNApZPhK5jkzPnU5KjKzBWzsesyc5h1CfFNkJuPE6ZgzxICpSXhHuqHKgP5AnlpooNlJuzhat8zGpsDJEaDDW8JsNe1CGdlG7PYelEnJgStDlrBxNfX4lGIcglwZBRI6XkB3JFah5r3gmSOOeWcMisIahVfIhtQ3ip6xyoq5dQLJR17VcHgIqXSgS1R7MR0AMrQ25M+UKYq/2W3YNLxWczD7xdHkQEoJFpXxfr/VvMACrlQTfM+yW1fT35WZQZoka3gMfnIQqMzD0n4DYgrw3ba79g1Hax7hHS6bJfP7fmUSemH5EeAcul4YJaEXwCqcAWZlPkdWNzR+CtNI/k81ICqDJwTZN5rsaOFMGk6DVuUJBlyrvoqLkeB3pCP9bKMC51CSMcQ1h6Z4bE+m5g/bAjZkJ4rmAN3ifh/S3PhvHgb7uPG1dWTvHIhGIHim9sMOJIBQTbZ941OqF3xEaIC8DaWhKCOQ3hLaMqbNqMfphuNl573tdATkdLF/PKCoCGnlWACwmL+SQOAKmt4UUXMHDY8+iDgFpzlbxWiJLC24IM4HIgeN6WXtNLGGxqLs7eqQhhzVtiPubSdoy0AIgS5J2J5R0Nk0Xf/wwcWpWGXWwTW1ajnEtWQoUBV/X+rJcbYUmG9bn8/FBvguv0Ex3G2NzT2c7O32QAD1IYnxCFlQi18JNobMJFb/5EAVjSa5F7mkt2JfXNnL1XkQyZDBS1TczHjMbGdWjlDDNc3ajSkD8Kn0/yeoZOEB7XY88wPOaqQFFT5IHOdaVgVyIw09Aelp33yu4Xa9sKo8xAajU8bjDObBtU8o3M41BJ8augDgP7ZY45pBjMGCRQdF0DyttkycrsVG2P9evEV4jLwFgqFJxL8AQsV67V1xGZN2ydMowCejtiz+FIdfWABGsaF3ZFeUMQYm4lBJeHHJLelfdXU8Hb6afcAWBYRrEwNGRH4E2Rf+rISWGHSoXHLs4aEnzmBRUM20win1USQjNhrlRCWsQ8ntUwZWnORurluPvrBTjti6Pm5N6R4keBvpH93qKmaZfPjbQ1kwTRMkWpwvmIXCAMXAOlExwhwIYs8Jq6+1jYZ4mWGGsnJQhqgZeqynam9eoaPCwveF6ZPJSdibDCoxFoIWHciQUpuKuJyCoXuxteVo6svgYqCdSIHRk+49St2RFUcU4r0dgIXxGC9i0EiTZDUZ5xn8+SwrurSaUwRpIZmJ8Ltzkas2+EuML4TGZ4NMIKAB0JClNBRk7NLLt55ANktLXIOfk7jW+HVgevV2PaFhe0vZRGXewYNCISDeClqGzAjYLhKKl+Pp9yJBmUaKo2LZ7ITS0XFQ9PWw1Ele9fK7m/BrKZty+24S3w9CDw9/O1NEQO8Kiej2s0C0TXnnJfQ9kEEESlGXFq2WDKC+V+j2DPAK81v5DwpdxhEcJGRYRukodM/qz+2aaBhje6AF2iKD+oAnpXIkBeaGPXYUi+9IKRo3NJwL6Z3HhNpcC7Oqb4/kYaz5AKAdAi2SlyBIQQu0pGCMoNwMjmWQI4MqrdNHaxDD8Zpob3hGFllGb4nnx/tUyEqAPHlaVLSfxsNMqHzjcvlkcxca7zWMpIBG8k/sG4dG9lbkNkoYURxTiAGohrhZRkbd5cjyVrr4OBFo4hgNeiJ/Wwme/fxEEaA3KGMkcJ4za75fsNDRgAo5iPGlorwnHuRnAHKFWtzJOwCTSE2laJsJqm7iLqtZOjtYbJZA1zWTXScFqsokEb6VexcMO1DVBD2QXxihdxFXrGaITgvLada8tdlSUTiIJ4yMNM0TIarpqdDNMbnlNLBBy9juahLnMednLsWSdIJq2OXm3wYpmoKah4Ewr+lBRh2LkBkLMB0YDlkYlMHTCD3DhQp+T49VliGrTT78ZukIT5mTiOe1mhwSfn9rJG6rqyOcX5sFjf/1FNnXtXhkHyHNCQea0c5uE19J0VIX1cDPxtO7xnoM23X7vH885YFzUCaWF6I/SCKHdQWV1ABJAS3pLAjCAnc/UBejsapQQZndPPQy2A3jhQ2+Kvj64SSoaY4mMbpnSBP8vHedwSwE1tIR2iXnaQNLGooHgorZtRWyQ0gawemkZmkF3BqDLb9VjmNXz53LrjfHMfntnn9D24v/57sEXSnOKqen0y2clL3CZpZiNKh76y2oTXebwxxCUn0wwwujMV3GkmUalaOBnNyvpzY5OfETqyP1IyPZAZzYa5Idu36DV7OLyZoXhuXsfkPILcbiFzNiZQpqAXQ+EYwadfAKR4lnI6k4MDaZMbxa7RUBxa51OqhzSD9AuTqXaXd8gMfFyTB3pEvj9fK8ltuJ9Q572mMJz4ndEPsVoY1ID+8DqPm7M6t4ETnUjJhPHU4XefE1mDdhdhZxUOg90xghoNyxVhqj63kKmDXK5ZzTAGCKFnkshtCUfjMpQ7Ia7lmQulQNhbyd+X5gbPZmpt79pa+1ZtkWMWlE50tmyx4bQLhjpT1aAOBX6Vl6kF9ICqCv52RvT8f66r5L2Kc+3/D2ysCPvvasWl6yc9i49CGG/MX5Seh5BjWAN8hv9fn4I6nkh4TGGuwxoe2rs2rO/Nw9TnxBrfrN0kiC29bqjjDjbzgKiy/oh65UC7mzMf54h3QclECyniw2gnerXs5Y0ps7MlezmD0h4EgJhDUnFPQNfz5mh6/cQcMaJT3aQ8dwQWO+TwQvApDyfdjRKJCMtUMNoGFJ2u1TSBMh/0nlpjdIW3JBCh+I4nmimoeQ1KBAg1afCu3QPiQK3iC9uMOIAXQzs5n7KhFQuATmo+FTpEswIh1UJ956U2hJfSwijZNVKA7I6GNQhskWCgIxO09mi4i1YrUA9lw7UR5u0LkUxgAl6LNn9Y/RLnkSmBfi8LR2OoE7e69tl5vf+z/WJtVg+0v3ewhop7stnrZc27dmWr4IIShRWvd9E7WriTBq/KMAm5TGMjbQBHFIZyVDgzdrUF159G7Rwd1NND0T2ydUJIC+U/66bIghIGOjaIopLFM8N4MIuEgBBR0uSyIJScnIZcUTBzhGGtOKvHpUSyOJATxPXsqO+Oejr3EAnUdqTreVsYDN9sL7lXDIsN4wNRE3eZ0THkFG56QwnLVQqGDTWuTkQ93FnDUO3620PBn65ALliPrKPXZChKEjqapaUOBuciysGFFScecJ0hf4KXbmxiRghbEWIaGRwhZYk0zeufdXGN5AhlxUsjCz8vw1p/nyAjaCkFXldQArFa5+I1Wy2RUOJVkVt6SVA5mtkYmmR5/j87ry/+bF9Y+/v7cnR4IMfHR3J4cCBf7PSweua1LT3Zyv4YAALPybmbDteZu4Nv4DTKwTtigTXs1PxszJH04BuIZaUeniZvOBaSwNPg+cj2mShROUXJooehfbFivPuMENdZPNo9kpwtpCGveifQ+px/C6+YSZGz96dRh24PCBKsS6ZAU0egKPkGkxVzYoiaM4ubu+R1IxTQEnXb8pzV1OlptxFqRkNllELoJZvfHxgBj9eQsljNusaGy5ALmyormXr9kQPSiCo9Lkslnt+Ko7LV0VFMX66kyVnepuNmgeba+xCpBZhDgwLoQkMtlMMhMkvPSlS3Evwh0lrQaQJ63xZhr3u4xcs+3XAXspj6eQeTaMvPRl4siAy96aV3pNiewmsD8kVjptkgM9JenddN9tXONz1YjfHcufNyenJeTg6P5XNsMeJBeG14SC+lDAHtaIlDNGWXkqFU7Mi2a6OmJ4IwyuqMmt5OkKBUBHMjOk2Qi7hlk38kkRyo5YSp0JZDGkNoo8Y1q5FnUO5ClycHb9aV0mGc2iGChToU30ktnNxLGhgzesQ0hLpWH83OqRXkiIbWMqw1jzk1lnuafQYYEeeWsM+yX0yLFprn7GZC2T2j30d+KxNOgj3csdPDpawBxKth4CNbh8cIo2xuUK58R0CnEUCC4RaJGiNrkaW4hyQy2riIQTSnAqPrxeqg2QiBfVgsn9OaI7vqBQX5Lah4SyWLp7mBC8AgDac1XwvRZ21yJjC1Leb90KnCqECYwzY+F8p3BZ1bgu+D6CJ7FCRWHlRPv9rker7/oF+YzZqHbfb3ZG8NZaeDPfUAtkPhwgUo91BumeHxIpzlLhqcTDNFXHoGSo5mQnMLjb59oIwtZqe7TRlj7wDMQDvHSp4ZXq3b7ayecwOPxDF2Mmc38FkBJBEOA2I4qkY2s3Qyeb7GkJjlDQ91If2hxPNM9o/dR0YPjwG7c2qfYj7IkSWTD2vfXz0UgB8DlEKq0oWeGc4Kw1JGHmbQY8cItEIABiWPXprwd/GL6rs47LbGUfx37KAelvp+DNaMFdslwB68G4vw9injaA8jrwRn+jEKa5zsHGE42sjgAeILAIhtXTIATg4ueV7Yjc3YO8lD4EBMlQvbrCWrYEYP0VfmuwXvry1kS/NpYWcoCaln1MHP0AsCeNRQ7TBdI0E7pUV/U//M2VxnTen35/Uz/DNeYL+c7vSycPCsXz9C5TjF3JlNFiEx2vGFkwjy+CKQkKjAzm48T/OrCmuQLTOMGBhzr2n90MqJ7f7Ec1brXSSSaQoDGCLbgt3jOZ7ndUYkyBhXMMEQJ+SyUR5BnTODJD/Z6yyYtO+5o6Q+gc6X+KjESSBZATm25YNWxTUDJCCWnN3DvwWb2M4Idu+1JEGAZa7h/ON8U75CeFUdMk8iHqDaZ2W3UOSHtCb4PsSv1owExg6MmF60R1xbSk/C6pvwb3pLcGxbiTwUHmWUiGwsjywcN0AWDhXwOEjWuN5OKBjQXXpUtn4Z+jqoG9AT4/gLyiOam+K9+oQCzS2htNd/cshz64O41uOeNZDtu4FvC8Lk9X23ZSBXCBN2VdfoH76vqHXd/nb3mJ8BQzn8mu+EBBMaduTYUePS0iBTvF6YswSIQONx6I6IInaBBC+iHkKAis7WsnWgzJ5pAD8mENTxukxAJVBO1iq1+E7F9cSFTnDGPGkGGGOylMgnSTzIRIDpIYe8cya3NfJZCnNpNycIAxS8yg+9v0/r8rpkeEM/L2DD6vnLEvS+HLUv8XMYJPUJsaiDOALULwXIQyK6WwwjIwHY17C1wvgtbGzuCWMFBNro/bsIO7u36h+vew8dqZcslOXaCtUCGgfJAcFZFchSLgBXKtTQ61Az5ObhKnhATcf5mNRxLeTQDrV7vr8a9ULvDLFmDgVqZsRblcQEgttLIvicpo5XNb9sILtXnVqLTWLB53V2gVlSv5Id3Nzb25d5/2CNXjef6dIivys9/FYpZO7tDE8loPJGk/MriV0vYTfmU+xEE3VPyE28568R3KEXwd1YtBydLrP1Wu7NmMKVjaTO/HAm55V5HEGbGQYxWdF+Ak92cg+TvAQz5whbXTQLQJCAC0tkl9KV48j1GfnhjHpqoiB0P96cARiZAc7sE03JSzAauWTQ6TxPtc/Sz+eMMLgRnRYivACT4I0zvKptvkw/iPng/OeE62gGOXDo3MgSNll7Td25/g3Pbzs5DTyfh3hiXRQ03mY5rKKWzFs1nGXYWhwoirkiBhAVD1+L5YalBAldSA4Y65M2bk+920LwpyCsNokBekyvpw7KBQtFs4YhtZZPL1b+gMjXQrGvaugrRZ1Ln8CO8Fd7LYWhflIPLOjG8oG1hGN6SW81xqNzx3Lu5JwcHx2Vw8Ojfz7feubZ5aWXXvr/1s/5tDDZ1p1zGvKO2B+T75AMrewiJw9wY5HYr2Mc2zw92qlXMkTF5m9lko1JUiYweViqsEYSoehxnslvRejaR+1NEw9keagDN8j3MhDOyehzVFCfEtk+HDiL8slMYwaxHaFwP5iOXkDnieqAwXATE8cdMEiE2kXMSYm2MhS2socG5iLsCPHzKCKsbSIHNZtkROJBs127nfMfCci4mSJQCvcnvP48jhX3RVjDpEHSaAMMMjBEfOEXGZBU4f3MIZvXHn083khCYPhJMvtOjbMMWjzFw1NTuwqaHRHX4p4YA4GcS1tNSIsh7BYllO6diyG+BZqzVtM0Enon0CsCW400bwSC9f1t8OwgLs32MyEBHae0uYNSb7m/kZPjYzm//jt3fPy773vf++qMJ35mfdLTNkjGTszUFbkA6KRW3bgaE8ah88N9qV/tZlUWPDfoRtkBW+8JZCmge4nVM20mU8Dbx3xK1VyV6JmM0QHJpzZToUA2s+duJqyVPBTNbhwUZA4K3wR5y4T6popIcyAR3x/zMZ1WN2wI9KAym0ed4AVJAqDXpKFP4M96npjMYMlaEn0/yyt1hLue4EBbDUX1zkqEQ2LhPSVbEo1qTDAQrSCygTU7j5l5qQIjCR1M4y4r7Iqw/V/t2ksG1Vu6yEOloaVa3fj047NMQoK3wf02nRzhqGaqIK6Lv0cYdAGAM073WobfWZ4h9Y4KBXps8mFhhKxVLthIdJI6DNGVCIj2FtYko5vF2EZbedCYB6P0AxAqFUYRTBUDTOvnvDf8Hx+fyNHJ+dVrHn+m36+GuT7p07nKu+x3M6TqoEFclEb1gUYGSXNggf8b5yOGF+X647HSUCKgF0juadQ4pg0WfNQuk4ezZlQb5JKbIa/k5C7rBKFwMlFNhtFRg/SZIkA9ZSAbCGqLlAihEVpNdHJygreF5cnRY+1JJwMJYXWmASYyfAalBITlkqCIQKExGmU2LxYsqeRIq5VNIqsfz3Q40ADtvNjM6zpIudCB6vVnn2SDp0UEVZUuacaYQEAowrUAD6meDjmnSBhKi/qjVVKGnFCC/G0kg+adI9SEVUYemEFUN2AJhdKX3ATYv0mKXW+4tiE/IUVpw4AWqLGDB6t5Zkz0+lLzMQsoeVqg5LySBe+BemoqgwFKdezGo1mNdo0s33nfvWS52dv7tBvmmpZ8yrbcsGJ3gDLsrsLaGDMGwDtDFBv5SrxO8V54Bi8j8CXU09GwsopNfTYv58N+YCjdYOc58lArpXCk3ozc0IxwQgmlbzPepzkPws0Mn1V0i3Q32aHObcbckwR41hIzPTfBH7RuTZxLQo6rqRtYTXb2MDrjGNNIzeO52SEo0Bh5/vAZHVAyw3046fBYhkZIgxYeqkUUi7YtIqyuVtCYKxKVxfWE0ZAURI1XD2Hxu2nhSJQ0JMLZVgMIqajxgaNnXqpQnbFEuUSsWE+VPNYN2QPJ11Y37uJAjxqoDKQC5IIFjCNj7YDj2gy0YXsWu03sbwzABQ2vH0Obn8nHRbtYQkSgmFpFekCnxty9WuTRUVu91FrCSZ9yw1w/xqd6TN1fcHB0uCagx7K3Wm+++3oUQ6FUYL8irGktmD5DmIU1xAcGCxdH+CURtLD5kALgpc7WcSFTCGmZFOTsSnSy2ZjHnA100bYvbQmDscyz0+RIPo8JWuYxG5BYDTl9Vkj2+ZiuZuBGA46tWMjKnDQBLZ4YZktyIw31eDKEcGyGrchzJ+ab/XRQiCtFVNFw3MTcHOyfjPOofayNkYy4kcWmmrzxwC5TAimB9cyoa1ZcY9/piVMMeENvhtdwt4KZAw+qynC6OzOMNCNRLzp0lxTWKomWysgUQk8kPXSj0rpYaDwU8HU6gASKy3KJt52R5QOOrs/HLJSeJDd2iRJKN5XF8lD7rGASDa1kW6DN6h1Xr3bWwR3NMTHZS8Byw/nRKLLY99VQ3VOMqsoGfWtToHN/v2+gYZir5f/TZdl2mnq+fOGSvHH9dfns7/2evP6FP8ZOxNwzjMzZCo2pfXKP6TA+duSw12QGnpF3JpQC8ow8bJJNpRByivatZDo9VsDfIHyFcXRRLtlVnXPRrUxUlGURA3Q2E2eZzEJRZQeQEjaAFIbAGqGio5Ohs07pG0N5hswZEQFBJoJKw3vZ3aTTkf6XjffkmxZLTSQDIO7n+cc14MRmx3KIpDp6FwQDIudmqOh/9VSFYTBDWBTGdDOmoSQ1CPVIIqgVIiwUEZeb9I4S0ODQ2+mlggrPSqODYUiNsLcgf9MwE9IdVDCwsFgwMXrxSVyaQzK0xc8YTstxfiIcuW6fk5/DpFt1anobOlxUl4cqduJtavp5+mfbLtF+1uCwUEv15nBhWUiG3lVGjXtrjnncQ9m6rq1fd8N84YV33/2pn/qp39o72P+W03VxvPHGFTl/4YLs/+EfrG9413YxF3vaDV110bRYGDvZCxZVBlikyyXjxSwBZHZnWInBPAFJBVau6DIiMUvSJnVRHW/abEKOco5apnk9GC8HAiEXNTUEGOKEcXUwbPH5mAyjgQiTKzsamSO4Q9M0SyEeanL4EMLSyYycSPTOzEv3hDBmeEsfy57Ny41dJaTjMUyKWxvCk+YG6ZfOIx17jRrMEGI1GqT+wv4vtQpxgsAYNtrS81zPm6ZrPI+5YgWVTmBE9JZqr4KuDc8T0QhN71dAg/O5InZcIq1jfdJnmuBYBeyeBQSCAv1XYduXmASIe0dyeBtqmw2bQFvckM8G8S6NKFXEuQYftsb1UBeWWBIyZlzHR84dH8jRapiHR0e/9QPv+Wv33DD77fDw6DfXA3/LctRWw7wnly9elD86f0Hu37+nokHJwR9x7+jIT+KOK2GEbVg8WEwTSuXmL3PQ2FjIl6xdLgKPpd6ut1omtHt1g0G9MA9GZ5zYMAIKK3v7Vk4wVgs/VYoEAtAZ7CIfODsMD8qJv8d8zAQwybV81MBjPiaJ9P3mukCZVDzmjui3RFgtbpQgFsBYPa8cPKaCSZI8r3SYDUY5AV1VIN3RVBwKm2tARDC8neiHRmn1xL6Qck3e9W/HxuwQoBgNr23DfEoniyMfbHi+kwfGBmMY8EjjS2THNGs9pCHx2EVSlE8QFrOljEN+lEgO4If5XkM3yaLir0YIsNHtzYkM7BfV1rA+4o6zNBcId0FDqGEGiQ3VqnbOJZBqPWtNkM3DVJpdh35GulHuHx3J6WprJyfnu8f8TdqjG+b+ZvPL66L4i/N6Ig4O9mT/8HCNeQ91cQag0HznDD2f5lswr69u1mxiwP+zuQnPcybjvxmxWzq/lZ5KFNmkt9u02Yfl9PtnzKeUjLwyU2h5DvWBFKHrRNIAASPkhDNVDfz55kFnsnsS80ibj0kPRuNu8I4T0VYyffrnacnnoajxs7ULRIImqNWOiGwa/vVolUwhkeg4ERpXlEuEO7WffBhpGkolza8ek0whG4j5p5VHjFjQ0UCGXIT26SXZ1kWkFjAp0NfmA37Yye+A0hBWulIGW6D0NQSC4KHg6TqpezuQDXRsHUnuAItMTcC2iDqAPRWdHT6sFp6N5AHNJ+EZ+0awRa2zmz2J6/29tpXizzDSpcKg8dr+/p6/A7TCRpboNdN4+qpdy3XNHZ87J6faPHJODg8Of/lNhrkuzE/2pL6d2cw/3bFn7LCNRWdxFMBrX8xheCANU5FLakqEhcSF5SireSTrj7QZlzo3BEN9VF1AeaqmZ6MTnNVjmrfakG2TOWULuas3Hufwht5tYhzYDYWzECqrUPSUMSuEnjc5sWECoJOGBmzWJttQ9jEhanq8LFTC44BaEgmI2E4OSGVn75iObfYc0lXT8VNTzOYUAVyX5hxYGlzDeAlXmhALWxOhXb+72ZTw5maqr3VRrcGTqueCVnoWNk0whMWULQFiWhrN2UJdD1kjB9QNgbkYCAGJdurkc3sOc7Iq1cNgktnZRVKwGdBgKvPIFiGpl2xq9c4SI5lXGLGl0JqvAojScoiyesS0YqsNAFpYG7WwQEst+vm7PUD4XHNzz8+rAy7GxprkaHWAx+eO5fzJiRyeO/rkmwxzfcmvr0++tx7isC/s46MTubA++V9u9tZH7znaxxzFzneAEwyQHOBJEjQ8GGVG2Ev9HPWKsymXx9gAAiyzSog0rxGuj22yz5ycQZPbwKAjVLSQ1UsciWEkZ4NMoeOD5wiAnwQqXwJBPYO7y7ojSx0U+mJuzPxwFjJ5InxNiBaUO4sWLRpGSyOIkxw564biEpv9O3gCTyQ1rsPY2xecgeR/uJIEU07+rPSyttEaujrki8iN6nDB61DXZOhpRgf+Z5WoX0qALJ63tghtLacTIYJLooAw9CxmEFsJ3qx6YNfjCSaP57WLPZ5QRxxVETiFeinkwEJNfef9UcIpDLdtkhcbqa3euTg6q5Q/CTJFgme27Q4/K3PN5ukBAZruPPb3e3R6IJv9/c/vzZtff5Nhfu/3fm/72//l3/7V9cu8qzdM37hxTV6/+5r8zu/8jrwmX4hdc1xUJEPDXxJ6t0UEDZ88BazPEkJil4YZwCZvzMAmqgsAkJlhWNMcHFRyWSe2Tc1a7LcyRDRRh1aOhbGmPgCDUZQ35lbOfj+NDn1ymcX+7BuNS4e4MdvrbT7m5N0gTtzH52iK6k7C+gND/UYjHM5thmKE+tcaaUOgsWIj23FN0M2KjIJLAiErEWI/PnZv92bYUlHKYPjpSwvQIUNCW4NNXDhrCG/do2G+Jb2TsLxQaZSxsTeEuTIaJcak62uXAs9kowWYp26beTyfW1nQ9iXh6YwIAK/o5RvzfuwVLSXCYYtcjR/LfLe/v47Z6x0lSyC59+mpS0NdF9NBUhinDJumAV+agQqFBXSc47yRvWnTr9GvPfvss3x6GGa/rR/qk+vz37VZveTphQty5dJlObcmpfPnPoeCMNyxrgxB43P23SG5sZqBZhcnFoRlADKczWO1SAtPJwzzmZyEbmQEdGvMVubga2eipN0QlaQKDq3AYybKfMDYUhiZ+OYAJg67USYOo2WoPXaBmMdtIBmQ40p1eMspEYri/e054jXHkYaY+JwUeSdDXeqURgwSCg+EEdC6B6QP2yJQ2OSPhLvzVGOHDWKPVQAXDa6TYWOoqVc3IBc49jwOXRcMMosdS+DVRGLxVz++HW+nH5KetATDJ9g2xZ9/hrEHsgR/1iQvbT5mVa9J4noDKFSCb1sIPMXGwYE+0ojENn9ezzuXQoCpKFm9/50WQ4j1+9l2YNeguK/08+75uINBdn9f08dHh7K3OsJ17f3KaIs7hrks5ZPrxf/xnpd1iZGT03Ny8cKp/MuDfdneP9MPpcvLcw67mAQpEtFaeBtbAgFqKERCQriuFPMyVuePYn5i8Z18WA1JITGZZtDgkhXqgfZmDIRVYGZKHq5SY1aQD9pLEvItFPoFgA9Q1wwk1WUo0bkiAJcYDhPQMnBnyCvnMS80MrpZxvj+Iuz3pCZs45VMPI8hnqVOJRN9HVOIsZPWLooZKspYofWCFKNFOGV3RYlBDw1YX6q/hsCN1+Qaua7iYA7DvfEx80jIQcWMoSuoNqCYNmdEXNqSYwm8KboR9aSxmmuiYjtpexZ2CjYAgDr4bIUk+WZIbIMa+kh+b2jzWorlp2bsXbB5wXlqStEzwEdcKIw5tgo221DQiEREoHuEyEDzcFFgSXP43HW29uXk/Hk5OTpWjOfLGuZ6oH+8/vjCmiud5r09OdgcyMH+gXL4+nz53MVsI0mxnR95phMOBiMlu8TRR/Uek5dHpqnJXkIIi5KH1igxGIhKAN71od4JqmI8nthCJ6VNQF7X7G6iV4TR6PtbbtiAfnI+JVu2psRNYXJJENeNFQN3CPC0DFkRr2uaUTvKmg28oidN/v40dgOWBPcLIwpzn+JK9LRVlhKYG3IzxOMN6OyIlAcwN2Sn3vERHrLBQ9IzKahUzABCxa7CS8EZERwh55VhMEPDal6UQskCUoB4WFljXAI8GFUGbIgQDa+6IfWQdot6JQW1RtK6MXKIqvLzjmMPbJPh5C6dgQl+rYlGQ4Ggf75tQxvY4op5GlK3Ai9uBPWdrhvYhG09NtrdEz69HNHxtLe/kePDXr88+MI0zf/7lzXMW7duPXjxpZc+ueY4fz5VW3hWZzTpxtoXHSh6DcGZ50odZRo4nALjcGADoEgjYJKgjJ4wQi9bB0cjOgpQJyF3tBDYRrFzE2gOyiA0cJK5oaczjIM1SuaUGUYvyL+MWG6bBr29hr30/AxrASKF8oCFxtTSoZEJjN9D4RSMIMlBEdQNCkwow2iyG1emlxsMVvMSuFaaZc6RN4Z3NbTHKc4EfSSBIjfcX8e+Wxq3OORPihk9JRNTIp74y1FWUw4IcgGjKnrcggTTFQXYyDx0f3jzMke5Azxi578UPp81R5vSTEJAjGnnsRCO9jIHDRYlF4a1i6KsnF9pKglblEhUVmRrx1ZiupPW7ZyRg8v6pEcvFRxesehsIjqPbXV/jUS78N3BweEn3ve+9519WcPE7RPr2//5LGZoh+uLe6/Y8uA+UCvb/ZgP+YUUavc0/APoEY5UywmbxlAQsh8cDJSg6+PtV0YGD62fhBmUaUBBh+nMUBSYMonmk3vHhHzQCeSCuZT9MxOskeQ5Z2JuDE+dSIZAskhPPZFEjufSQJk7sgTCkJNe10jzlo+3HBGGhpkg+Dt8CqjWmgWwIUkIbDEclTSoRwxhrj7FeHqwKauAOkKKUM3DW8UnzKuqsUmDV4vaIkNWxGni6gHSgJrGsCBS4aiIRw6r54eVQ2MhBcnjVdL6CkjwxULJCk9Z4zkUeGbPpNcywYs1gnnZUUBQ9lEBG4j9k5A2sXSzaq9mwefvOeSioBMI7TaYxLw8IOwGqiOvC7dPDS4BCpivm3Qz6zKx+2uOub+/94mHjfBNhplb+0SDJW3mjTISLqz/3rj/hjy4d1/IN0mk2GERsMevB2c21bh5PU9ApVPkdGPh3YxWLtPSmY2sLublJhAB5mQdGa77KuaVfNH38XnZyAUblC/o9TiZWeucc4SOZuQyCFz1jw3PTMDD3Ojg7cQFw4xMPuG+5iUkW9MIFfH8BpCIxuyXqrNp1PMPEiwAbjI8poxeuS/UHGANXJpHq4kJqurKBhhHAnuXSMyA7U33hyKkrBPisNW+Aw2tP8fStgBgvFzSatQUgW0YvxRejN0VyAOFZQ9dqMtQymB4af84Ip2TpqvzWauHmuwGYd0ywuPixsaG5Wjr2oZCO4ySpRTtMmkNwBHyWp4+JaeDHbR6UQ1dda9YTCxMLI/HzBHfOM1QbZ11ka2MjczkKotJ5uxteh2zHR4c/tJXNMxbt29/5sWX7vzmeuw/0xXMj84dyenpqXzhtdfkjfl1U5dudsEzF6RFtULg3qigyMlAW1Ovw1EGoLh1dXUdvz6blxOl40Wfo7F0wGvt2rKDRmyXs6SurAE12ZFT0ttI62PonDE2vZGUQPL4BAP13k18bni8ifIjlpR6uKphaEM+a4RXQ2LhoSc9N6TaoSiSQEpQg8tuxAmbIYkYvLB6PrEzJBpbQ+ZItCgRIacp72zYxvcQhrzwmGooyQzBSe3MHcEthfFYWcQocN2Kw1kmk3scAJ8ofaCpGrVC5ZBKC++mnsuAn0KQB5uC4CflRUg+H+dj6oaxNDdclQYpD4WwC8a+q1Eyt1w8XGbb1pYhs9iGUAb6naobiHnIfpqWBKBMC84sjTwM+iC1649oGmZosfcRr17y9NyJXLxwqbN9fuM9P/iDv/cVDdMMK/38+uPPdJ2ac8fnVq95Tg4OD3TK1oMHxlvsa6ViQaYa4EhjSDXW/4R5pzKMZC9PGAw0ed6mRoRw0gxqAvI6oeQRyuqz0u+SN0g72RwLX9+b/FlX3GOZJqPXE6yisQlamN+y+8RYQdxgSHyfgbJSfR02FV01KTvVMCGspsVY6xhz5HHs4BB+wluqR83Zw1VyXxnQOqDT6LWb22p7k4EOxATmld4aYy9KAEQEnjE14gnMEdkhYuGb0fXs/sTwDzlpxeepMMotQBmGiBz+49S5/vxinpbvj6N7SOpj19Wrgoju4E4Zwtpg96gEJUatLzhGc7mQ6iWaihx1ixqmhcsLKi6kD/ZjMnIp2N5IusBm6tZpFyEhNSjNRlQermnh9SvX5NqNa3Lz5uNyeHT4338pG/yShrke/efW///4lDZaZ+mQ7rlzx7J3dCBv3L3rO7Ht9Hlnt1cR5hT3uXrAxvLAvRSGNqP0YDXE2XsySRL3+ZTzjPwzKGwzJT1mSH5MFHpOO/MpRwFnf50DMGG4rGfOLH0gLFY6IKQwfVIXSyukFoKu15ALK52vezh6d4Nz/bM7kqp3hzEyXHahsh5i0xhbi2ZmN2Dx2qXn8sLnSzTm8vi+agLIGQ234A4PVcHksbCyeHhJEegy5FCWchmKixg0BLUaW8Pib84QYWmEz081pDArSOc+H9MJCPSaQHdLw7wQ5om2CSjyqsp1JT5LifxWRbQQIltL16JTopXRs6DUg+NY25nNMTGghw3iyTdEc0g4xySGsDSHKGxvXa+Hq5O7ePGCnJ4/3zabzc981Ya5hrOfvnPnpV+f5vxnV1e7GuXqNY/OyfnDY3ltelW9XfN0qomXSPqdeeKKcfRS65KNQs1GCmcHvwlsWT64x3yStUvvobQOD1e124A+BwKBEhVoKMYAx6YQYxOCtJDR+gXjh8F5g3QeOkhyvL8ju2koiZCkPpHFZM+XFMfNjBQY0qfMDudQRkcCmpk7Aswx62KCSqoBvVzy+xvyTFc0hPEB1wEXlnuuRBMynmB/V0de3UBlrF2KezJbi5ar+lTlBSWK1oamYju+6qkScR0NS9jWFYCRNTEjX2QoW+KzEUQqS5APFp9DgnC2YBpXDWKEi3ShQ6VP5VqGUFmH1vZyIAxZQ9hGw2021h1h86iwR6N0wI7XARuiN+XDHs6WAknPvs7nX33/+9//21+1YdpaaT+3ep4/2yFdJdqeP1HPefiFVy2p7opiWCoJCyUG7iSv1zUW1FG+MBFmUO+QA/YSyAyDmAc5SQ0nOwgEqluCd0xAXmc3WtDxBs9IXmxIYtJzEtE1dHZC7uncV39/qzux7CH0jhOI6SnU3ieUhzhJjLlEhhcMMS4cE6gNO0XYjqX5ZWIcGrpKu9fFDIplE5iopw9hlIB3EheM+ILxULVaPTMB4KFHNY/YhtfVeC3C1MTaI9HPAaklmUCL/Y39jmzDao6MUvtVfKgP3sMk6qznEkyjKKGMbVzkvFouSU+/kDzA3k0Q4mvZnY9pnSIGGEXvZUM7l4W2FHvetjKMqGcoH+dkt1rM8lVzYj7XdKeCbhjFSfq5L2d/X9Yw1wP/N+tS+8k+Sv1gNcwLpyfy+oUL8trrrysL6F69ZwpgMAT3kFiEEzwnJTcmlEAmH4mO7pAZ4s2C+ZDQxjGi+ibmkGxiwausJSh9eTBWqs7RwKKumaERO/RrotuEnnlOQ1hKQr3ryMIz0+AIs+YE4ru9lkykUCugVxMvHRlGxnMmXgLxGgxf41AwwlEWvximRkLrOacDQnw5UNbwkmHkJLc7ONPEDa65EUNai56ZO0EhjW1dzPj4HEXAcFOBEuSDy1IGRJRyIiAvYPFaWxYMraFRukS9k7VSC0Er+LPFG6oLcsztSC5YjCu7wEjb8P7q2WWJ8QUVmrCom6qG7BL6tslnYTYHsppvi0SeuSEa0EMEuN+j1YUuU7lGn72l0tZs+3tfs2Hevn37n7344kf/l808v+tozTPPn1yUS5fuyeuvvS6vvfG6nD14YCOsmwg77Z1Gl4LdoHdNqDlSjY55nUpSYtzAHJ0jmd5wGhqd13x3pq7OBOL4NA354xSeiSJZCDHzHENrg3Vjg4YSVQ2giJAgBK3ecBIPQXSgUR7G8rlXT67zM8NwCXT1S2XHyWiOFoA6BHrSYIv8PXlpJeXmXrFPlMo0KNRAhThEirxSgMDqwnfV+7bD8GGYW93cbPEndj84kd1yP/MSyKVQFmicLYnQkQuWdUqd76EGVwbDC69lJQ+JyVzM9ejZ1IMNIeoibvR18HqcLeIhN1HcZXFvrZ+3ct4IQaGKY1ruuGUerAYMhQLZ+kAj04xGSI3z6RucMqkAfvoG2ZwHPGur4UarG5cvXV7t6KIcHh3/0t/6Wx/+/a/ZMPttXbyvbDbpXUeHR3Lp4urOlwfyxS9+UT7/6qvyxenz0rZNF6/X3OhV1ABmBXwmctJcIlKPDDpcs3KGUBWdIlpZGUCcD+mj16fsoeYEMMgV2LMR2tPAW1Vx5nkWqqfToKlDO5OcDg2fcaitcMNg+MmNJjMqkAjbAQahcmEbFAGkjFoSHovBQA1I9gCheijq1WIzOM6P4eNg9ng3D2/slRXLARkGexlDzOjAvbH39bYIew2JB2TocPxdxus0B9WGSU7qCsOrCPcEOaU4w4akBHuMo+mExlzCk6l3gwizMnyWEXmtblROo8Pid7WDylqkbUA2XNZCbZsctuDzLF4KqgR5CjePJmfckBbS7+glm7fEcfNqvtFVIqKOwZi86CRHayp47epVufnYY3L1+jU5OTl55V9le/9Kw1wP/vOrsfzhvN+udrGg8/dP5Pz509V7npPf39+T6WxRA6Q8hi64mWEoancTtVeTN0XrDpKJpGbMqMw6n1LQabIhUNNHcznJAN7QG48JysxCQecgojPPhbGxCZohNSRDotyCeufEuicQWGjdxiDaSdgSlkEVzESPh1yUKJwwb0w0SgBPuG5sUmYN0jEdyV76EGFtE0DbDpoaCK3LUEqD1+PGjjyoVhgujJq1Qw/KKsoVMGivbZIkT49qMzVi1kgLg0bI7CroGkcXdJaAokbPi/LMUoYeRxiM5ncASqzbA2wd0u2Y4zagt826WhbUP4WCzMOmUHd6MAF0NaPzVZRgCAiphz2DCp9C0DZmAebuxugCZ9hd/fwP16evB2I13X5Ozp//o+PDw194y4Z5+/at7csvv/R3m+R3bzqpffWcfb6Clk8Oj2VZc00fN5CGcXEbM5YJ5Y29yYbP+nxKZePYgt9QEkQNsfdWzqacnpKr1U3IEb2fErXPmQaSxMEW8zDwtmgdU/DI6EZCPdrgxOLYUDSgzCVRVQsIzFuTA8vaJ+uiPpErJQecfJqYgCCAzavRsGBPanCZyCvrmc09rBmhnd8AGoZQVppwRglzHKdCGiRpHM4WQFAD4ioAa2wTbhoukxhAYw7JUrFwDh7K2EKBTBJQitB79z4Lbxm2gkBQLF+06oqVZ7Rla6mDsRZHQAvnVjYQGIR9nkFSb0BNTUIEdUyEsNuEuZhbA3VseBCMm1IifTPQEXqWM8uyeDmFm4mdU7M8xh/cGwVnzTdRAatccQG0OKb8sz/xwQ8ub9kw7QTL31nX07u1Brka5/HRkZZPDtaf02tf1EXesO6qoA+ykVo3o3PDwspNMmLBHkK8GWoFmdqv/WdvmWITM7iz8yCQRUU8EFIDMdVVnJ2g4KMJSIqfggU0oduD4s9moKJlHDWyCbJhYPPQg7oqwYx2L3rNbN9bEM5mti57DMwfQcSorFUS9OkXPQc6axfS6peZAGxy83PULwlBJeQ2ZAZ5PQsG1skMBYgqjY3H4vtjt19QpKuDAegjA1BVR8/SaKRiNMWBPE6PTGOyjaQ6x5Qj2kk4KJgnyZyUPF0ap6vpNfESC73kUkloqA42BaNo8fauNQcTtp4ZtQ9ll9WIz/q/WtGgPXavwNP6loXcsvHMIw9H8wDZcXrra3+zes2ssjZtb57+i69kd1/RMG/duvWpj9558ZfWD/XtfbFuNhs5WA10f9N1efYiLIJ7zwh7GpFMqtn1XG997aZzRDcogbDVS72msXlmCGKpMcvGyxPOzkFuSJpdGv7z1rDMLo6kuSsYrmpkeqqmID5YTjqhp1I8XzUzyt7iZXgOqH5NwH81E9SOS3p5gT0gtJ/0ImYYEAAc2iKNsyHqEHKPHYw1L4sdkl6SfN4GEW4nHMB76pIbQmSbxGybAal3bpiNoWXSvNE9HHKpMWyz/sIGQIhhraCeiRyShAAYo8lt2Oc3JwsebQ0luoq8joR1wMl67MKQuGJgULUwVTeCik4PRX0xn3IJQWZTU29Kr6tUHyDqW6uDQU1zUGvR4piDim4UNoaHKkEdogyJ8LbxPNESRCJ8WKPGvQPZHBx2J/MP/vqHPvR/fd2GqYukyofXY3979zwHa6x8fLSGs6cX5PV79xWdPevk3lp9efQPZHIfFnp2Kl8va+z3nG7PDHVWT5h1kvU0xaSuML6sg3u60ewNGj4+MJbo6hB2ZvdsQGMHGqA3X09ksxIhRusUvJ9RCs3jS2b+SJaQPbelqNMq9xaGrqAVOk4y3kMHBqOMMxGMfRiRJTjUi9EUMfNTSc/qeJ9nhCmiV6+FErbPDZGqYD5l0wYFJVF7GrlTPuG4clts3vTcjIDt/+G+HZ1YIqKtuSdLAIE01BSgviAVNK9bkhUU3i8mfLF+2SArafVJdrkUeENq9XD2iI1aCGU8NXYxr6qetP/OYw70PSk2zkHzWtDznCRRbSP0PLl54Wg0P/89rq7dc3h8JFeuXJEbV67K+dPzH/5qbO6rMszbzz/3iY985CP/9zxt/rWDg66DeUGuX7uq8fcfvfqqvH73Ltx+f7bpgJpinKGifWHuQS5SCQWzecjsC9oapWMCl+mEzKDYCfLCjFzRZpCgpAFwh83XmU3Jg1J7gnFmVyAIAoAbM7tP4Pm6QVk4nnBcSFniNaxrCpBV8gJyojtlGcS8tFPvoOouQnIGrDUxr3R+D15P+D3CWEm74ajAQ1E5i6EW0cPaQjm9Iey0cLe6Bq0LNCMHrebmhECPetoyLEoaGvIuq2MKqHPNJmdV5peQi2wyCDLD+IRGPoSqje1Ylj/aGAR7f+anVHwvAJOKG2wJ1LYaINQNTbCBYOfAuWB+yvJO8e+/NHaO1KA7tmQ0PIPthpA1Nkuef4uT1jW8RomXLl6Ud77zHfJNT7/j//nxH//Am1q83rJhYj19ZF24L3fN2ePjTji4JPfeuCdvnD1QVGt7NklJa9Lcw7LZ5DoozTHBEDXXQ1GfnSITDW1EPmeTqnTUlfzTnDCYNg3F/wCDKOA8zVPUIXMYlk/WyuHt2Gvp4FFCbihs+TJDYrmEOj/a9J0iX+VsEr6GQ2Q8j3T0tJlXpeUZkmMGCUBhSCqRTLb4NcUFoQma0XJR4Gelh7PcL6oqCEcbD408EB6Uc0MqrbiNx0HBAIBMGCLQ3jpM4XKPFwiqICz07g7UQSni7GwdDXFlaHQuTtGzEe/FyzCany4kt7MTpsXw2rYMqu6LhMpBEAl8QNFi4a+p9WEzoqk1bjREoCNkHTL/sJceaawR32Zvo/pZly5ekguXLnxV3vJrMsx1uf3Mah0fWt/x0v7+gRyfO5TjkxM5ev21NZzdrgv0gTyo60JdrEeyt4zNAGE4NYszLmcPC7NP9prQiqX5pSj+A49KcgBCXok6ohsU1fHGkQgQcyZZ3kfvgaqXkccSQZ0glbmBQc3Z3p+tXG6k9LI57Ri6oBOEUiQGAomDPbBKO5cR7/h9BHGsla7pRmBmlJBTBkikCO1uFmMIJbEfMmsQjjpAixf071O8lzKQxoWACL0a34VhYTNOrBbnpYZBVZY+aPT2jwaaqO3D53rpA++Az2katZCxlOi1JFc3WrrAlyVoA2LAwnomeyqrcWrTUh11JUHepUIaCO8FynsYvyDchPj9G0szBICqeCKMXbMypRDbSHuEdu78iZx2sHRv/4/XNfZ3HrlhPv/88/c+8pGPfixvNj9s6OyxnKyx8xdWI72/d0/OlIPVFakXqBfY0B4NZRHOzpQMmWaEmTNYNwBKlJ5nXEIZSeqZ3NWMKWApxJpTdI8k1E+pdMcRB9blYa2U7O4ImRGGlg8xmOgRU3JvazWpCQYEw5TkeS6nRifkqazvkhVCFYIm7MnBhU22w1qLlzOQJWJVeEGQ863NKo0vj527Fa+CxIQuLCR6gAI/wHyS6GuzUDExXERt0MfgVUaC1srFWqG0IIiz1sjR6FWqe7rK+ZQFxHDlAiwxnr2O2rLBFKLXpLiyzbo0D9m2xT4HkNtEwIeht25YJD+gF3OJMLcb4gJiBDtVWOrRKMKN0npA+1muOgowOTOrpxvVIxdjAfVD9DV2/vTCapznu6N4+bnnbt9/5IapCzenv7HmaM+2/f3TXjK5e1fnLci0uutZL/3WCtQp1M6dfjdjjuUMRo6PEJjcgPpinSZrlp5BDjeea1D1piEM5nwS8mHHViwFfyYB6opYlMdBPsnHkkC3py/4PiwF4aqirSAnCBhAmq8KC8l2HMqUMOFXwWaEwA2GGy1AcJYQf864iAHDwnO6K3wzzGAG9+Ygynd1GhyMjy1j9pxdbyrmJNXbWmlCdCG76h3zu8YaYkFeiPwOXmhhd4mjnVWsO4OACUPa6qWWhYDPQuK5KQvQA8pDRsmQtuG11IftRkgh5zYYtzZFFyt9aGSaRVzypIRx9gh4ETKGmB5gIx3yXrcDmJ+25SF9aLgmFMjWdbKu+dPVKM8fn/viuub+06/F1r4mw3zuuee+8MrLL/2N1Wv+ZG+cPrd6zHOn5+X+ditn9+/L/Xv35MF21l2te9UZjc02ZsDyvjlRTpLizDRSC2u1C8XZOwB8Mo2QHNax5ct0gHw+Jeuf+UsZYfJwlPqwVlYRoKYJZRBYoNPzMsopKHcgjPXfEwgFCuZMbthEfgnqIDCF8SWkkslpdfb3WJtMtFWkmdi9E3RoB4NT/aCK+ZAMUVlW6X9DctFDQkdezZsyJzVaW6gHEAjyoT8gjivFrVZVSl/aKDsiKPqjBikG/vggHgpmiXncAm4qSeYL52O2mPjlU7vw/luAQzoUyNFaK3swJwx1veD0lgGJ1VY0tHUlnW9JgIz5Oe0Tag9eY4LxCQC4Ia3QxByOpJcUr1+7JjfWfxcvX/zJD/7EB7/4thmmvnfKH55Se2Fvs3e9D0S5evmKerDXX39d0dneSN1Pdi+HmMod8rPJ6pUp0UtCkFm94gxGjjUqJzzGEX1qVMg30zQ7UYC1yFkQSroigvkvD0ET80Foz+bJ55GYusHkII3q59HwSMJvYpzgbCHu1GCICIszDXBCmxeNL7NOKVEHxXORbSJ/zI6yWu00AlBYllpmrb4chp0auzoWJEel0xmyFasJGTYwbuq0MmQjuNEne5HETU/VDSwNBrLE6DkNgQnSuMGC+5qIpA581gLWjDYgo/9yQIUTiA0cAV8Z5jZ0ivTXLuwGQc65RFdKdKAsCHsHRYLSBjK6EdP7NOdtFS//pDqE//SWJscARDvZdx4BPZ7sZJteV7577LGb8o53vlOefPLJz1y9eu2rBn14+5oN89Yzz9x/8aU7PzFP08s9jD1/empLbLKyhI4u254h7+qHr2qkJsRsC1wjS0hTzmDdkPaWHHHNDt5kLGoNafv3nwIdZYuWsPaJ49Bw2QVCJYFu4Noy5fmpeazM9q1k7yVpqI3CqA05FszQTE5ez/DAeh9atRKAHQtbwXSFI24piASJlss/yNejxxTkMHV4Hm4N+Uy/OWzfyNQhcIEnM4STGggn3AJBDc3HBIJWAHZYemig43EupXBxY0EXGRg6/hiNAIaqrJ4QynJWDyl1DVqvQ6O1y1gWEhgA2CwmxrXAiy5kEnl+TDKEGY0Z9YIw2kJyDX8TUd7iMikMS4lj6flHeNq/j2+sye3RgB+kX4erw7p2/aqS1S9fvvzB97///V91bsnb12yY/bYu1Y/VaXp+nud/vcskUL5h6SHtgzO5K9YNriS9bIJa1taFOua0EYFRKM0LA2cngUJeZtiZMXRodqAnTYOXc/AmOzgzDfkm553oOQTHVT20BMVOEllAYcQ+pg9aPeF5s2sCOW1P7zYoRz0r8sgQ1bJQKBHdFTN8DUV5QjVKYqibHbHVnTqPoMII5oh7Uppwfz7bNi0gttfo4u6fE/2NAuyGaCgcphk1FmVqDOmwUNEM7VS81lxBne1XZWFtkSPUyfBZhNo/RHgXFP9LiWNW5Kneawnt14ZG7gXqA9SO5TBZ8/zG7umffoGEZUOXiU0hM9KFhc4gD2GOSeEmVQJ9daJ7qo606pkmXA4k1hynXeu+ce/v7atsyIULF+Xi6emnj4+O/6u3YmNvyTBv3bpVP3rnzgubef4HXald0FazbBe5v+aaWtfMlu/4EB90oSStgwiGCAHcaZPxZp0MEMSDKYUBUi92h2RO5DRNHpoqnENDziI+HzNln7XJKdCUPyHqa8R0lElwn8+n1GgV759ohBaOMqylp/N6Y2q4sKDWga6TmTgKyyEirE0mS16d2aNj3RyBRfjK4wPoYSJK7EI43KY1UPMkNFsFyKsQgWSOJCgHGN2tDZ6HSuduWC08JA2wkoVD0jnAGFc/b+yJtJauhYBQCbIAvRnpek2FvKL1S2PZZXFJk4qw2ghEDaBRNc9fiQYzZAavtthGsUU+a61qCNMtISDZx3J3Xkr/PwopiHZMlzvL3v5qlJcuy7UrV+XS1Utd+vX2e9/33mC5fw23t2SY/fb87dv/0507dz6+L+l7+t9dM2xbtvLgvglDT/e3Ni9Q+eYYEARvM8PbqW5sN9h5csSVKO3smj/JSxbWRpbEx/JlelF4ZRhdokId65feoI2aJUPeRMX1DEDKqHTaIQpvrl7X9EHMm2WJEHmaBmMTQ2dTcorcAMEKn8Y5L/o3JUUy0L0EkgFnjIj9nSvzxaQ7uL3Zzg94PnZaNp/9GB6RaGPz8galFy1KrjFyD2WEKswHCQKJUvrcsNvwr1qYqiipoHBPpXQYFkW3CMgkUvNa5KHCkoWG1uaRtfCP8sciNgV6DKO5caiYFoGrrRn2dtAYqsqntc+x7dO7tjHMthV2rfRTEdGGI+V2xfyM04f2c9LXUK9CHJw/XnPLG3Lj8cfk6uVrH//Qhz70D9+qfb1lw9QPl9L7Npv5u1rb2+8n4fjsSO4f3pPt6jnvyRsyLbYzsabofY7wQE2ZQAkoKuVBcsynzNlJA+w+oUGGRk/2LhPntNJ7EsThfRKIq89b8b9hzCStJ+aOMGJJAHAA2yBE1glg8JJRMsleWmmIWelFW6OdJs85icXukAdAwavEGOAFSQMz5Db+dscHAGOkt4mIe1ZXIAACmR04koFaZzmtliUknk+DJGGdE7Wc6QODShi5rsbuYs0IhweF9GjZirJI6Mk25LM4frF6I+udDUweos96TrpgFox4Ye66cNBsiIGd9WNtDc01BKgEiiu754xCZpaYQRuixXXTq92dzGZPrp5ekuvXrsuNazdeu3Dxwnu/Htv6ugxzDWn/+eo1/+a6OH+07xi9Z3P/cF/2t/v6oR+A4K79HSidULqSmjpKKEhR6nAeKkLVGWBOcFvNUNsI+giFtybhZOlxPibzRopJBx3PjJCjDoLZY7ma6ftYWNtvSoLAa73lTKzNTVCrNNyoQdRZzOhlqGPanULYoCEvHa62AUz4eyQJjLcqRFuF7tTBnCphlBQysAA1IefEQRS04QGDKEDSgRoiu0W87smSCEoZbIsCq6dI84ld1NaJxmkBuMMwGCJaoyQJa6WVxhLSkyQG0PBU1Y40uQIu7uo11Uti4vMC49zqT8s/beBscWRYQOcjZOYT0YjF8RwNF4Isn/49+prodf2LFy/J1RvX5MrVyx/6sR/90X/xlg1Lvk7DxO0/WXOw71692bf06bjnDo40HHiw7iA9rL17/57mnqFlYy6ABsAWr1HZLufBSyIMDgU6y1t7iYQhqYaZoPBZN8hQjskkqqPawfBWYIDIIb21LHHDCADK8t7JvaPPsUSOSIXJhLCX07jY3eKO2SGfh1BZnheGwC3CWEfiYbyFsH0L5JX/1xvAHVLxxEEd5pu8bAioYbQ+IboKeKhhbBWWnFqDalwbEFVQ40Dy07C3BhorBFGYI/o4hChHeN0TpYlWWMOs0IytHoq7yDOmcCkjR4gKo8uEjdYKRlmNVBue+2ddmuvQqscFO0nQ4sbCcMP3pX4SFSQq8vkOpOnErs1Gjk7Py/XHrstjNx+TG5ev/tbF04v/+ddrVF+3Yd6+ffvBix998Zmapn+0txrjycmJzIcHitDe6+LQr74m9+/fhQp2NxaFGvFqa5PStUnwxdk5yVu9lLYnAkAG3NmZIS/z0lmooN7nU5LbKsJBtH3VdxofDIh1RRAFyIflXE0yemairmAPjWFywAFDIJvoHYmc4nMkg3ymUb6AVttIwCOjKAAGyu1XgD7O9cmWCwWSGiCtioVr7MVaJ4zPUVwRghYKTqJOuLA00YJsEBzR5t4qNF/JfW2uaOcj9MSM0qR/mj9ftxavU+Jb1kBbGc6ax2Zoad7V8kF4sWYAzVIJADWXmzyrGCy05pHbYezeg55XglSgLKMF77BYPkt9I+aWbCrXT12ZpwuimSbztC+Hq1E+ffNJecc7v1mefupJuXz1yve98Nde2Jnc9VZuj8JjynPPP/fJn/7pn/6Z1av8R3KwL7nMUtadpC/Ie2cP1hOzfs4zE3hiTc9uLQr92Vq8eug6oxwS9cxotRKEqcL7E6VHELpOMYjWplSngf5n9Uj3hF4zFdAHY96JMpMkGq4JQiU0SPcbqK3CuZxmU4beMiqQ1JxTy9pYiGS3QP3wN8smGhZXy2x4rvpNd2wYsxnfkCMi/OxW4jKU6MdMjceKY+qAm6FmKVjc3uy8wPO1wTvWMvykUBXft3r46d0bHBKLRV+B/HpOWcLgGwEi6reiwyTocwPpoREYWmIzQPjcIAey6PtvLVcm66g017V1sIkukon6+Cc2BkYpfq36Jd+b5fqlS3LjxppXriHspcuXfuYH3vOe//VR2NQjMUzcfmAN3f5cze2yIolzU/R1f/Wiy/6+sZX6CUEupwuUJQ/WHtHv6Hkfw1CUOlRIi+JaAFkySO39FvKSlCIZw+JpIK6jI2UmP5eh9GxhrRMIYISJf2cPk80KjU5InqvPBwVQlCFZaaaY3CD1RuGsZuURSoEABoLhNX9e1BfTTu1RnypmQASCKpurh2OyA39ILyXQWuSglR0eMDIhGNO8nYthcuUiZz1yKW4gXhuksQ8AEcNSliZczrJyilf1PJTzRaJtq0Iik4LOIZOpAuT0vA3nQzcaU3AohZ6ZeXLzzUxwHpg7CzZQTivzEFcYHZkzODg8XvPJq90g+4yfPzrYO/iBR2VMj8ww3/3ud3/+wx/56Rfm0v5rRTNrlrpfleTeT2I3gLM1vO0nN48h24CcUpKSolsMKU2RPYjoHGeQHeAx45YpqHS9bjpTuSBTM5a6P3ju2Mqlvzcvy4SwFxqvQUZo2TzchJB2FHEmqYCtZHYzC0iE9prNdjEDxMi8RqSPhiSeExKJ1Rs8sBmODF4xjEs7T/xtx5JJGJy9ZdXFxrkgYByYdwFCae0UBJlAVpAgGNCbFrzHjtq5G6OJXkXJIoyukjBAZXaE0WQMBaJrj7GZubQIXS3EtY4WHYugahoQl+brtpy9CaI6vLZtPgI9Xft2eurQPc7hS0KEDfXzPn+kC9N1Hmw3zAsXL8rR0fEL7/nB93z+UdnTo/SY8sJffffPrvnmn1tDpO/Rs5v7DnjOxIjuTfLg7EwerDvbmoB2zq1QoydjZIJVEOFUMsWeGXomkOCH2iTy0Mym6iTRqTIZmcE4uyPqC1UEB4Yo/IXQmO9PBDZFiGoZK37vXi6jgQtgkIE8E/JJgj5mfHxdIzDEcke/nzlnI9QQ71e5Y9PrNXjRnh2yHNP4S0WXfSw0J+ghbDNDBRYLqQ7yQwtauDwkFfGyiREB2IiM+wj46HNADqgQcYZae6lk1hDgkSF3rU4OUG/FsJW9lXjP0aiF7WQq0gwhrcWe13V/nETQjG7XQ9gzGwM9jDhYfMMSfCbfBwXnG5u1A2vYgLvs6uHxidy8+Zg8+eRNuXb9mpyeXvj4Bz7wYz/7KG3pkRqmHnCen1m/zL+1rsR3dkOpB7ZT32sWepZ2T6UqemdCbqDXwdMp6T1HqxiZOS4gPXq6DK1ZkM6F+aMT46nWPgPJNeEvJZrncWam3WccXPSBpgBxcgqFAvOQDRcsDwisoCua9cvkd+l1zSmMj8GqrgDmivCKaSSoI9T0MJZ1TYZXKeJRsWNYYTwAozBieklxj2ShqxmUSXewnWsIO8WMTN8BigZFiMQKhJIRynLyMuqYZPcYSluCbFCLS4CYQSF0rUPYDEbRtlLtjtqyUYpRkgEQWG2WbhRybqakgMe197QFeFPcEPmzecThGx2vFHE2wOpKjtmzYc5Xrl6Tq1fWvPL04m+fnDv3zCO3o0d9wGeefebVV1555T9M0/S/9TW92SuyV/ZkO29li0Zp7RQQMaYM1NVnIp4cf5BjktbkuWj2BmkfAc/HMmuMaeDRQowLE6ATWDsTW7hAdhd6bTB7gviegtieGNYyjw2E1McbSFzYxP5KAC+NiAIMLcFWPVJyN2tPSvydhudtR0RxhzC2UVt2CGtTgmKhGSXpbgLDdRkTeOIGgoDVEfkcq3yOQ4NYClFvKyI+5MdDVENGF3ij4jIgBZ0exdXNlzoYmbeExYyRBuqcKeFZeSQGAC2YNVKsbLKg77JQ+4dheXHJEIbZJLZ7folrxwTcMJAGcC9bwpFsINDe/oEKnl+62OVCLtaT8yf/wQ/90A+9+qjt6JEbZr8988wzv/Kxj33sb64e54e60fVaTz061Mf6Er6//uuUKB/SwxaqKQr4lj/OQVgncSCRyYPnTDFfM2U2VUNTlrXILE7fI2I7ClVTa6hpfTToeupRxQxdQPnjdzBgJ/ouWaz0ULgNQE83hsz6iQw7c4tF0f/ihC/+7eJahqSaIaAm6TfzkjUFKKQbCNFGEUdNfXNoyB3hOZnjlsHbGmCUhMp56k21Drg4U8cndOE5FrJi8aO8Efo/LZBfL7UAGYV6QIGSgCKonQ9b6FEt/Iwm7ILBRgjNlU+Lv4UEhWqkAo71Q77NljRuaHoGEZ5EdIKz2gwFSDDKzcG+5pNXLvf5I5d6Z9Vf/5Ef+ZH/49FZTtzeFsPst7Nl+Y/XBfSt65f6dzojqIeUvc65t7e/hgN3dTiRRnlk5bB0ISg9KOCTwqCcbpddFZ1oqbZcCcoZKeqWFsKGMrqgQ0TySAG0f2qUHpaCOTQY9Ox1Squf9lvQ+hDutCY+xl0IHOy4RbFAtRKjtdfAc/XJ3JqzJXFvbPkhUUEY0RjFwvwcLBLUE/kpgMx6LtUXpv0Zmj4Sm4Llt/Sl1b2XDGUGzvcwg7MwVkgeR0Py4mUWcRTXQtmB3ypD2Nwg5FViLIKDSMvADioWcnN0eycQPKgom2y31uO5hshbrWEaKLQU8m1BusempA3nLPWMkY3vjfa8Hr3tbfbl2qXLcuPGY0okuHzpyi+fnJx88O2wnX572wzzuVu32p0XX/zu9YL/2uo1n5pn0/exi7SezM0DPdE5kTRO7uuEEgY8WqbSALwrezaJ1oqIt35NJMMD1Elk/MAYibJa0GpdKPbuu4APnsfQmCkixw2KSAA+QiMSb/8S7LL6G+ySbCCGibzowtcP8pVAdHAmzeB22zGD1SNc+GNu5J6xBWdWmnNBUzXpSW34rZE/0kw1T/MjGTJT2AnC/5AHlmXwSg2ljMZ+TYbGrDOC/UNvu1SUPUhKhyH20ocitAyhAwxSsnq1x/r3OMOMy0KVea9pNoTmC7iwQTNk7ZchrV2kGvklzikZX3v7e3LpymW5duOGPH7zcbl27dq/OD09/xfe+973jqHLI729bYbZb7efe+4PPnrnznet3/KX1+951O/LMKAuPdJzA5MTEScT0MAMSAlpEY494HxKKtwlqOcZABTlD5Y3nDOLPHH00PSWNWNCV7+l5O9JYWmWbRiystxjxmyedecKsYQyRLN0XHyPhlIIQZzwbnYA8gGMITbwN3Fczy9h1JSdHCcvm9KdRMhJTyHhERUEapx6BamPJtCLjbVLArz+AZUBG0sQ9clCxTrmlaxRcvpzieeyAVrzUcwX2ZZhPqYyd8R7OzuquiwG8NRtgebP4nXHkZ+7FIxAGPo/GXLHJtfMGCUJ54OqXInw+zZF9Df7+1oSefzxx9Z/N9d/j9+7fOnSd64h7B8+Okt58+1tNcx+e/727X/y0kt3vm/97n+XYsl9zEKXwFQJkg0GCg0jFSawbKaJbJtAXNXIZpOk1PKH0LNONiUaJRa1gYEQT/qdG6cmjZPXUZPnnlbP5Pv3mxlXdnnJBvLAzixLeGEaXwOIkyPNdEje+yYHT0mjJPBg3ILwqppv8n4cT3+0yBGNYFCdZdMXraqv0+sqIAODBLJKL1Lg7eiV1PPIyLaRAImkhZo6ja3QEJAv1qF7BMcZc05VuhhIBAxLdaMgEtvzSgJFJB+UYoJvlCxZilPyhDM7m6B7BaMUUoN+Ls8XQ+w4/xSO9hx9XQf7+5vVU16SG9evy43HnlCGz6WLl/7yj33gA596m8zFb2+7YfbbrVu3/96LL975N9aF/74uZSkwIELhZFJwnB6V2KPbJAdCq9qyo5El4eh3waBZUu4mNzT7x7qpJHAVGNa2XSJ9RveImRsBpyiDWKiLLM4Ns3kJxKLWzKaUwRP2Ww2EVUTeVEaBa6U3bARqxAzVA043bgAogvogwlQKLPdHCKCIc1nJ4qkQyaLBsIWsPWREQzgKb9aoXEDB52qe15UDaMS1QYmgAhENOp7AsDmTpALscZCnxGfoCC3rmrYpLCitkLdbDSCCfmxqYF2pbUYuzU1stx0umbHqebW12BXUTy9dlCdu3JQnnlw95WM3ejj7n33gxz7w8a/fIr7y7RtimP22fvcfzk2+ebWuv7i3ZxKWPTR5sD3Ti8f5Jc5LpeKBM4HIlWVJBGgtyO96QpNJX8pELR/zjDRgH4kAJhAnXxOE0uOnUF1Qw2Cblwi8oeWgjbmrBFCDO3EfF8NohC0MF2CROsJKHRn7O9M4GxFZCSRVCDLRQ9phfValA0YwWLQmOYfVQZ8mnE9JY/Vx5iQCcBAPwRt2ltSgyaEqYh4aTB42TgcHFkZZCOrAg+PzLvDUWl5xMgIM2h2xdYPY00wpb4G33PZBQsUGAhklz5T3hIgy8+dGpQcDyxqiEuolJayDrp7e6XaXL1yWGzdvymNrCLuGrz9/cnLuh99WIxlu3zDDXEPa9pE7L/6ldSk/vq72b1UbWu+f+g4IcSr1mCn7MCKrW4qzdgQDYiegtJQgiXHvyUctkOjebzEwFnmnJIwwQPmEw4mGlrDEz4QwqLs/q4BY4ph8Bkm/oY2rPWycABEkGTjDignDWWG9kko9CXqyXET9HvNk/VbxmAE4CENJm2FIW4MiJ1jEeugRDYV3K87koXdL0c1SC3o+A4lVnZ4uGQlNHQGwQ/qa+LEDTabWq1LmpLkBLw4SmVH4fErmosVYPQl1T81nwZPVSKszyLqBrvnkcrbV5vyec/Zr4xTBaqE0p5Qxe+i7X2P6wKaB1oC+buSoz+e5cCqXr12VJ1ZPef3atX98eHj0l1544YW3Dex5+PYNM8x++6u3n7t/586d71wX+z9ZjeyJOidnfHAwkCmzTxiZAA5tzjsGSIYQebDiaC00gxI7T8QBHjVaSZhwTUJ6AEWubJDhJbmzeo1S7PHEv+2CRreMlUpSGpg36MckwjeiqgNTdriPv9n/2PWgnrTJwI0VzwU1n9JXwYvJUKtrPKpaJkI6IKcOwDAvg9wkiewlOklcHJokAwHtbnh/yku2xhDVDK3QOzfQ6RrICSS3D2WTQkCJ4BXqkAKKH99fObNaFtmqEsE9rXluTYyr79+Fg4TEzn//BzqeRUbdaO2CVKQg3Ql0QPLchfNy7co1uXH1mtx8avWUV6787vmTk+987vnnv2alu6/n9g01zH67ffv251566c53rB7rH60n6VKva9KrJApnuWLBBJpcADMuwEWOrAi8LFuzJjduGrUIZUImDDvKnjuy7DF5Gxi9p97rTdD9xrJHpodEHMzIVA0VmzCHzgpABmr6qPtjdGqvwG/9c6IJV1qgsswqBy+UPE+0l/rcygZZEWnhEYR8V6CRJXLFKqwFGigkBGFYkC/ixjKOR5dKLYQkFLNi3mjvj8N1j9e9I8siNHjkuK7YvgAVBo2veUgtOk/EwCHo+XSvqPnmYvNGzh7oBOiKce2pZAWbisXXuk6WamBQ/5p7oHryfPabTaDbyPnVKJ+8+aQ89fRT8k1PPb0a5dU/Pjp39B2rUX7ubTWKL3H7hhtmv926dfs3Xnrp5X93Xdz/8zxPJw2rkKGkCOeHGJqqZLmhL3McTEvtINcIYnkj+RJ3Ya2Z3lEICMHg4dmyv784ccDCS3pMpIZCYIigDI/JTdrIAvZYE29zo9E64CO+wGmc9JKsjQDVhxEHuqqLPI0Ga8fDq4LNgleSMaTd/oWhJ4xwYOMo8uktXMZxZdis5kqjZsjbBo2eJpgGXaJMgdyYA299xgk5tERx4X21h9JlMHHcxb5DgcFtu0EuVl5Z8M8JFELaHUogRv607y8S7K0mvk42m9VTnp6uYevj8sSTT8mTTzzRyyKvn5w//bbv//6/8huP3gK+8u1PxDD77datZ3/tlZdf/s51Uf/iuqwPdhDOZBplM8gCrrAO2p15TfLGzYMKJSen8ILWkaJ9HQBZzcsxf3QQBkbnUWsCuJNlMLYEUwSJfvguBsbC6h7Si2F90uuZFYhuo+GK0BaHWBfEhObhq6um1+ZG6sN/BpaNob7ioxO0tavG4qxLGGOBJk4B2umh6/r3FgrmWtwXfCc9Fo8blDwanMtF1ubtYdLi+2sKWSI0boMubUhfMj8s4iP3EB0Y7ZWyI4vR9irPkfGp9HPBK6fKc1a9ST7E2Ko12c/zapQX5InHH5MnV0/59GqY169fu39wfPQdq1H+n4900X8Ntz8xw+y3Z5599pOvvPzKd69n9r+r3fwAithtoMDtoLVRl2wpRJ2Nkhe9kwmsIYPaCOwAD2KoShDHtlJxJg9zTEo203ClIcztFzzrZ/XNZCSZJ4SgQFr5JFugTguAUUbySdFmW19AX+n16JUEhXLmgkLvJyJunPBmJB7Qy9JjESSqQVy3MsQizmHlfEqgua5gjppk/3yUpnSFPISfaliF/FQaVkO7V8W4PJRwfKOoGCLE2Sgg3qP7xLRmTZmgrbllV95S2RBZQKpP1ldJCZDKz87znUDSsH8qnzpvVArnxmM35MmnVk/5+ONy7erV5eT09C/cfvbWI1EieKu3P1HD7Ldnnn3mF1555ZXvWXe9n+/tYLODJZXxBojnIeicUOZQ6crE3DPFVGmRAWldX8+wBS1dVMUTEgsSObd2P4HSMDoRQRiNe9zrAlsVYQ6JnM/AHq9GergZ8vp8JZcNdvxUDehJLXR6WnODI4pa0XNJAMbRWISl+hYITVMh5xUh3UAAUGNDV8YWLVOLNkibMRbmp8wjQW9j+1d1xfQlWqqYp5Yog5g3xTlgt0kd5o10L01iBAcNwUilRu2xwkuelcXHKTRsSk7It0vkAUhCCLMs9r16aa6rOp67cLoa40154uYTq2E+KVevXZPT8yffc/vWrV982xb8V3n7EzfMfnvmmWf+25fvvPxdq0V9fD2H+xp+tIQT3p9BSFvUePrNp0+rgHTUNbOqEFgNdCSuM59g3hjTpAnoZHgxA5Kah6sMfQDiDB0mCR4v8SOKeJja4q30prVKfp2W4vVi2KB7WoI5Il6CEC7KSiJBDQMkzWwIZYnoNhAGaoK3Qr2wjIZaTXeVhACGmsXV44ZQs1hIWQbAJ3LVFqSGGvMxWyIpoVgJpJR4rIiMg4P8s0FWsqIVrD+2XT9jL4ksyo/dqmEnLYXwDDaci+g9DXkJGc5d00HKR6unfOz6DXlq9ZQ3bz7e9WDvnj89/+/fvn37Fx7l2n6rtz8Vhtlvz95+9u+//NJL/966Wv+H9ZIdJ7/gfYfO64ntRlh10VK2sucMc0J5ZZqGsgemhSXT2lEkln2X7OH0XMPCXBWflpCzNAhKoBMrQi/JIFcAAjmCSmge3wfBq+eStEK+1oSDGeJiATUalRjBvBGTre4F+a6ctiyNzcUI4VosUrZKCZqUw6MgJywxRNYal8FTBXiTEPaFeJbJRQp4sKGIjtyXhl4IHi0IiYtza13usrKXsoFut2iJg0rqbLDu/7pRKk+2l0fKmU+1VkyoWkM3N6+GDdz2TKDcvkuKbKZZ1vxxNcpr8uSTT8g73vEOuXbt+qvHx0ff/uyzz/7qI1/Yb/H2p8Yw++3ZW7f+4UuvvPxt64L4xfUSXVDj7KO6c0HiXjSnXHqjtKBZGKSCOXMMQyjrmT2aUU7u/8xtGg+gGWDEzo6UfAitOWrLZc2QsvNeG4yM8yntqdkMKyUZQFfPTVn6oOelxIitmSoU0Kqg81TCQU6TM2AjcFZxlJVkAuO3Mt2EV6Vhj8JZJXR9CtBX9YIyjEKXFl61gTqH128J1HD0Hb0UgR8CUk5qsEbn4kODFi/+Lx622uZz1oy8cMbJ0DrIdoGXtfd8gPfs4m5LP+0FiGuz9IA6SQ6l9Wva5+PMkxyeO5Ib1x+Tm089LU/evNkJ6n9w4fTk277vr3z/P3071vRbvf2pMsx+u/XMs7/yyisvf2uq6RfXy/BNrs2inmGjz9l001l/LVqXHNDZDUa85+SzQxK3SvZWovRigGy23bQbNWDYDGSVYJHeesPsRF+FPNJRT/+fGiFheUNGm+eHDHv9tUM5pKHBstJdpsFbtgqhLFNN10NCm8ffmp6tPwdehAYi7KxA+1b3YAnPYReK1zlRz7RR8ujsoHoAdGe3pfpULufTEtFtoRzg9ECWPBB+b4uFwRquau9mNER3ip2oAW/18y3dQ1I+pGx1tEGf7J62GM3QrJSUAIZ5tEIWFqHg9edmM6MksuaTTz8h3/T0U6unvPGZ48Ojb1+N8v99u9bzW739qTPMfnvmmWc//dIrr/yba6b4P67n999mw+xed6AiTlo3TVMAKpxALUaxI9VNmUAZDdiJNLpg7FgJk+WTpB4rN3pJ5IqK5tFjMk4SlFiycJS6PexWKCK7hmg2j5yRT5W28x+ZO/Z4cwNXZ0xPxJC0xWIMjqwZsQ+zpdHCy/TAb2E9kukCtWGbzceUyqnQZBCZWHetVBYwuUr3tO55SSQAk4ilEfe0C/LMxeaQeP2UZRtQ9TDunf2cPezdorapZHap3mP5/7d3bTF2XWf5X/ty7jNjeybB48QlEVTwQCTEA0rhCYREoLQKtPSFFqm2Zzy+zYwdNXYcnnhoHhCEFojnYjsSSh6gVW9qhQsSfoEmTwUpfWhVtVUqVQiprpTYcztn77X6X9faRqoExDOesWcl4zOXc/ac2Xt9+799//ebHKVpE4GeL7kWch3KomRGz/T0NIPy8cdYROsb42PjHzpz5vQ9U7a7l2tXApPW6bm5nyxdWfot76prZSg+7sIIRk5A6UbC+snzmiUyDSM0Q6QoC5G49AKo6Ipm5sQq4IJRWp1OfpaLGCl2etMV8moGJpRvXSXRLMZerxBvEilBrzlZy85G30piRJspYiCVdq+gvFpzf33KOioogyWHQkj1SwU8vZ3ajqE/k9cBmJqd01KElRSMAVTruHNrThYSeSXutCZuKnU/k6W0JJBn3R2nWVUmKWjWlFxX6xYJjfmUckwDo2WH9Zg0e4SUEEiwuTaOrtRUK/M2zHMw78K+tqScqjKQJAgleJ44+gTHlVNTj7zW7fSOIyjfs2L6dq1dC0xac6fm6MR9Aq3nN/EU/1WotLgfLEYEbrQuQWJLUkmgS0b2MYhepFYjE0Gdsrr8HPzcaxIol1AzZlhjttXqjw60FzNovVITfi7R7uIYhGCKdyFaWzBKHpjn62Pm1WIjA7a3z5kToCCCZAkVkZHJI8+xiBRijVPawaSOCNGl9bExmuNT1+wcSRaKa432PZ1PGcFHIKkag35MiMtbp4hmbMHayQSkBtYh3wBGsXcyjTgQkrp4QRXHscwgGgWMO2udRcKd0xxbjux86N+WAkonwm7UIdLrwsRgQCPx4HEE5PT0EZh69NELL16+/J5ni2z32tXAtIXW82UE53/ilfrS0A3HvRKoQdt6aFP0tKSRGRneu6hSYNnXTK2mSYbkWkYB/RnHmGDlFdAYtSkt6cCyCsYs0nu3ZWMia6gJRgaaxj0WtsYuevkNoDawkZxVV9RcWzouawIJZd34sbUmeOj/2uhvIMkiq6Z4SFbF7g5eQW+xppEFJA5NTCDhu8q7kwRvszUs1UbvGp8QfOzzNIWCEceLI8m8VsY2ErX0OiQFdr450Dg9eo22cOGLGaiVWnB6j8wsVqojaxjVUvemm3N70IOpg1M8q5LqkySeNRiM3Rr0+3986dKlmzuxZ9/r2hPApIXgvIng/HX0Y76MG+KXrLPeLImNWmhhPCFj+jIo+UcKSiMVNMokPJgWILaAsVdqkiOgzii9yHjnCZdWKJFHDSnNVbXv8aPWz2K9TZ8TNClhBwwJM5HATpawbsSuBqw4H1Ir9qZMIIGgJkJiO5bKQYoQbGICeZ9ElRv0OrZcRs2rfbLW3mtdM8SkUWygNnfWdGSjkoCo6tGAKXFTq4bKnlhXCNVd74npgEFb3ao6ypUE7fU0GqLT92UxOp0Yysz3egPWez1y5DBayaMcTx44cOA7GGf+7sLiwtvbvU/v1dozwKSF4PzOMoIT77Cv1zn8gZGc6bqQPkvOKnxDUWDH/+o8j61d3koekZ6nUaUzAS51TTmxBOarWoYGolXk1QAefWXurdY6gz1HE0GKs0jbC41jhmAOdxKpjG4v3VCs00OTMRbaWnImqOVLUiG1ljosISMbuFYt36RIoKR27yNJHRQcENUJgspQ1lE71pJJlcW6khVSQAcwHR8GfmPwbBXfn4IO5PcTrU4yzRUfZ6SdI8H6MetUfpFh2nKuRgCx2ZnOK9948fpPTh2EwwjKn3/iCeqjhLHx8a+2Wq0/mZ+ff3e79+e9XHsKmLROzs3RCf7Q0pWlF3yefXoIotnqNp3MNAkin1i2Cui0Oo06piaDwt2yJOBMcd3I75lm9pxNstR/DcgWFwIYUpt1yzji3Vq4lJ+ZRVw3U7pG7jaXNnC5xpp6pdrSSCa5pFTOlkkTQx5S54dYTo3VpA4S40PTb/Vqti0TayT1WD6xoUBBFAcqK62YdWXAmpW1PkohH3hlFVHmNUT+rcaLdeKyBgUp/f1WM+XvV0HjTxcVGsxFh2Ci0SmOp2Qf34jLHA4dOARHiV73+PvgyPQ0CTJfPn/hwkvbuyO3Z+05YNqaOzX30srKytfxWv5jNax+YYNGL4xqGK5tQNnvQb/bgUG/VhW9UiQ7aHNnQWNRkQ9hlo/ihLdrjC0lvjP2ULKSauHMtw0N99YAyo8Ca2H3OI386Hd64cSCblJGZkoGgblm9LXzMSFliVdjEHCN1DuNtSGRtxvWjGO3SulxFo+GRke/kh6kB7KRoQ32egW3b+gCBUtENRg/tYK5quOMSraenFlNbnOthcegSSnPGTVK1Uk7NU0fFzKBqFp4k5enm0MlUiKmokffJr3i3vg4HBqfgImJCZiammTu66HDP/c9jCs/Nn/27H3rDnmva88Ck9bs7Ow3V1dWfhW39ZXhcPhxom1VxRBaoyFUmzpljJuuA7TqEkJBOnqFEtB1ZoqBTMEYLSFR+GSeN0RHlX6WpfkiaSXeqxDjE1KVmq6esDJTjHgO2utox7KSh5d6LelqGh0vxlOWfFHrFQneEVBeGolNmNmLRivEmFzfh9U1G8py1vQcyQcVxFgxDQBK3SpxJHuTT8vHNPFloeWZPKTVQ80Sk2tsbXEC8Iqbnmsd1yij2Wu+FOQBUUtfXWkbH4YpBybGWG1gamoKJg4cgIMHD8Lk5ORrExPjpxCUd7Z5+23r2tPApDUzO0sX4BOrq6s30BJ8Bl3bScreEdFZMnWON0Ab3dputwvQdZy5s/F9TonpQd1JshicBPL+LstnVjLFkwAJkEHrovozYw814kfDe62lkmBW2qdexQheIjkQOJ0lUkIERIiuatBYDSCq45nEoxEEqhQrVuZieoslk2W2/keTnRQrKhbbmqcjkyiANkEnoa7mKL1KpSZZYMvI6prplcOqN6Ai0TxfBd8/Xa/hsOaJcJTB9eqiu9qxqzrodKBVFpxLkNIYAvPQQXRbj8IkPnY63VvdTnfhxT978fUd2XjbvPY8MG3NzMy8vnL16tezul7FDfUsxTdrKktJLlavN5QuChAiOlm2lhHaJfceaXYmBRLTsFqvjOUSSAAVtxLkBsDf91r/NAdU3Ex5qgGBvvIxfjSyeMrQaoxqzJjYPOwb8aSB1UfqmwHEiv2xfGEZ0UYtUkjj+pw4KFYkIWsV2vINkoD1VdY2EiHeIHysY1Z6M6Axi1A3a6L6etDyiAHX68g86hoZSdLHq48h1eYM8nYOnVabrSMp17XabQYosXkOThyE6cOH0Y0df60oWuefe+7CjkuAbNd6YIBJa/bECbowf7h6bfVZvOyvjOrR9Pr6umQHq2FMHJDr1dNYi4SnM4xBuSwSjIMaGs3SLlLuzNUUgCbGURwmwhmeLMaKltQlpXdnJlETQ64BSlkuZjebmqdSDRI31KubGd1Bqzt6Kfqb5awiUVzAVXHixRTOg5DGTY4yhEhwZw5rZdqs1uoliRuRHKka80sqEWTWLGswtlAQgA5jc7XwbKMkJQNPlPuENFCr+yo3IBbtLsQqsrZTWcJYnyY3cy0SugjMHIHaRte21++/PRgbzF68eOmfd3Sj7cB6oIBpa+b4zJeuXrt6E3fPn29tDeetf5EpXjpNSjZCmmtSqOqe9E1aZSxo07NLqVfXAGcDU0FNZ7SVCmJnFU8lsCcJkGCtkynZA+mQqT1K40J1IWtn1hPEqFrHSGwqNtqbT1KQqidbqxqAdWp4n1xKHkEAQWUqdSSejkzw6oraRK5a9WF5vmWcT6nc10p+L/hU0wwRvFY6EYvNfZYIys16KHEpi3q3oMWzZ0podVrQKVtUh4RHHj0M44MBWswS3dgWJX4+2261Ll9+4fLaDm6tHVsPJDBpnTh+4h18WLh+/dUr1bB6ua7WnqnQag7xo8I4ph4NeZOQCkKXXFWaQmZxpKlAqxtrBPRGtAlW8ohsGv5WotmZuYykANDEDFhLkhVBzH0Oqd1LyxYyXgCkTOAVtmqdQKcy+8bQV1BhKp4PCRBrmcz5NvAyEV1c4FpLKrWCM1QCSnNRbXxCZAH5OllHTfrU+sgg1JkinJEFBWKweZdq0XUqWNCSTKXqCXRMVqtrldDjiXAtDD+60B8bh0kEJs0PGRv0yZLewDjz/PMXn//2zu2mnV8PLDBtHTv2SbqAv3ft+rVncBO9jHf7X65HpN4tHfFDBGl/vQ/dToc3Awn+FrlOos5lLHzkzPI/qbYSmskgNahZ/Hlo0O7iq7U26eP7i8cMogLHVRDNoAoWrSFaXGdL5ogB1ZJFCJAypUqLr+tY8zTgerViRn8zwnhQxlClzBohHUiLmMl+BO3+iBOe49iDEGPFSt6VZL2VtQSNc2ClFq7r4nktKOtMdUiylCWCsd2CifEB9DCWbCM4u50e9AZdGBsfwxhz/Nudbvf8+cXzN7Zhm+y69cAD09bxY8fpgt64du363KgavbC5tfm+23duw49v/RjjzDbP7ez3+jCOm6A/NoABft7udhCYLR3truAJIQ37CSHWM+1bPrq4iZrQ1GRt4DaCMmhmk3sgG+1MRncL0m6SSjQcprpY4vBa8Df3NGjdUguVYg2tfBIgtmfZhC6vcaFZSmu+ZmWfmDxKv4PdWVURMODSm3HMDFKOLv/t8vu9S24//ykEygxjxTJAWcv5pVF3E2MT8MjUJPQnxtmFpeFTeZ7/sCzKlz71/KeWdnC73Pf10ADT1vHjx5ZWV1evj8Lw5OaGe8G5bJrFmVoFdLs92NxYh7GNDRiNb0F/QODsQrsoGyP+QLO0EEnsTnWFaDVnlkhtMVb/IwHAlou8U4ilBCktGKumjhYpgGVz7z6mzaJMczAVEMqZje6qPhpbh0FcyWRm5erFnkbpB/WQeLDmBqebhb2HmBlW95XbvtTySz02cIbVK92x4LkyJc8HKXJpfCcvheJJIgk8gi7rAGPJsix+mGXZp/GIr549e3bXtmdt13rogElrZmaGLvTfrKwsreLGmsVN97yvq8dG1JaEru2dtXV49/ZtGPTRco6Ra9Vl4JZFi2X0qZZmc1CsCTtAc0aJdYkoTJQEACFSCbQ8ohZMs5QW74VgRHW1PM6I5kqn8yEppGu6ydg6sd4Jyb2tKuutbNDoNFsqzcmWpW24yWx5XcNN1kSQDzpsSJuUNeK2DOxIiedOXWw5ljyNEmxZUQpjB89pt9vmRA7VlWnaOHkoeH5/hHHkX8zPL3xmh7fFrloPJTBtzc7O0TyKz76ydOUKbrJnC+8vVNXo6eFwC7Y2N2BjfQ3W1u7gBupAh+Id3EwdKnSj20WA5KZs3GTco2KDgTSbY0SBoEQFZwkRSwh5c2e1vUtBQ0vYOpo4AdBkUBpHwK5mrdZXi/2mLWssGu7KCD6ORo+kgEhKt+xo6q0EK594Syw1Sie1HJvBCcoQMpqd3nisr1Toi0FE0vCFrCxRE33HQRsBiLEihw1E+Gh3xGXFm92bRZH/ddlqf+H84uLo/uyI3bMeamDaOj13ijbC5+hjaWXl6RCqC3W99kdbw2F++/YdjEFb0Efr2ev1eDN12h0eatpB13cMX+Tw52QiMksGWXklA7WiyX01Op4lfJxZUgOUxqEmt2hgk2SSkgkqKcP7YDVGAYsNeo3zKeukwxOzsqoaIOLJXmuX5rKGNAxIO0lidtZogBxzSs2y8kGTU3IDoHdlCoYSW9LfV/ANKW9l7HX06RwiKOkRb3R1u935IlrMv1w8v/jmTl/33bz2gfk/1tzsLG2Qj129evWxalT9KRqqT5abxfu3Noewvk4g7SEw2+h2tRGkfbSsW8xGoc1INLGci+PScJ2p2repGYC6p5E5QKBxEN1I4dhaxlbcYrFBTvsqjRqX6HkyZdmmKzdGr5MUR2XylBoHahLHKy3P2ELpeD5aWa91XzWIkUBgN42R/i25DukpWgTGAkyDFzQGp/Mh0ytIZDnnOL7T6X6302m92m51/v7Ccxd+dH+u9O5e+8D8GevEiRO0Yahl6KUrpD1U1cfWNtc/ksE7XXK9uh1xw/6bSiwYc9IE4nZL3LRWpy36pej29vt9jkutsVlcRHFhbfAPrZixNWsKQdvUQoOTai6vuY/aBmXyHjrxqorsHAGojWSvNHGUKHHNxmcfCQKhSvVJp4wjjlWj9IeUXVjBHt35VmbzYQiIJX4Ia4piRzoHRJ/Dd3wHEfo5jDOvX7p48d/uy0XdQ2sfmP+LderU3E18uPm3r/zdKdyhH3R5/tHN4dbvl2t5L+O2slz4m2Ub3d0Ou7pkKbrorm1hvEqA5cXhV6pxiuymZHZNONnU7ZhEHskGlgW1MoaUNywZU+nIgYqtmXWS+NQs7YXzaj2UEBrJGa17GomCfkBaSDStjPtWQwbogaoQWgY+F6+gYKUI4DITx5DcSlewu1pkBcfVZdla73Tb/1QWxefx8F89d+7cnu742Mm1D8z/wzp7+gxtrH+gj+Xl5e6w9s84qD7qcvfh0VY+yIstLreQ9SR3ljKNP7mlmUcEbmbDd3PH9b6MpVAK6XaBFJOa8nszOcQ1xtq0jrz2OtYs2yGToU09HWSYEaFGh75WlY/ABy291MF0fIJ2uGTcK8qZUydzXGpfQCjFype+QZSwGwxogzn/XeKuFnl+B/+ur+BTPo9/643FxcWN+3Cp9vzaB+b/c508eZI23Bfp45WlpXbIwu+ge/iRreHww1nmJnOnA3ipu55blQqOsUjVzxi1JELcYbe3FPmfqCIPsfTC3TBBSiYG0IqFj9V1JYCCzbBM7BrrLa01eUNAJJmSygnP1kbKB2fMJi9aSZRj1sRVpr8/D9KaKk05SuyPSR4OJm/lzn0FgfkF/N6/zM+f27pPl+WBWfvAvAfr9NwcbcSv6Qesrq7+dp3VH8yq7DeyoXt60wWdFGbDcoGztiSHQe4u1UeDtotlOq4+6s4GH18X57MQaG0QkFpYqVGm3kyJUoMS3WsGqlVYYsFf2+IykLmXopkr2vb0e0ujSziVZgGXkjsO3sSnfwO/+NrCwsK/3pcT/wCvfWBuw5qZmaGNGjfrleWlD+Am/k389Gnc1L+GGHiS4JBh4EZ9iDnr4Yakf4vgq+ug/NgQLRWBViwugA0i4llJkCXxaCMxaM2RW6siuUHZPPbG6JhkaUUeEESRXlzhzKtyg2Or+gN8yn/gF2/gr31j4dz8v+/k+XwY1z4wd2CdOjn3Bj68YV+vLC/3ESBPoRf61Ea9+RTC8VcQjL+Im/5orlqpnJTRWDPzDZI8/5NG01s3jNMBScbTZT6utrhxXOkgMpAyA7FTOiFzAXIC7NtF8N9H+/qtPAtvITTfQrv91sLZMw9ka9VuXvvAvA9r9uRJ2uhv6sdda3l5+f348KT3/kkEypEiy8bwsY/uaA/dzQG6tH2MN7uFy8cQfH18bg+taR8/nxBt3PAO/rtWO1hHAK6hY3sbob4RvF9DF/cOYnAdMb+Oz38XYflfCNHv473gB6dPn/nuTp+H/fWz108BFp1uCdLs5osAAAAASUVORK5CYII=;" parent="59" vertex="1">
                    <mxGeometry x="101.24000000000001" y="67.66" width="120.52" height="120" as="geometry"/>
                </mxCell>
                <mxCell id="63" value="" style="triangle;whiteSpace=wrap;html=1;fillColor=#FFFFFF;rounded=1;strokeColor=#808285;strokeWidth=2;fontSize=28;" parent="1" vertex="1">
                    <mxGeometry x="318" y="3320" width="60" height="160" as="geometry"/>
                </mxCell>
                <mxCell id="64" value="&lt;br style=&quot;font-size: 28px&quot;&gt;&amp;nbsp;Export &amp;amp; publish&lt;br style=&quot;font-size: 28px&quot;&gt;&lt;br style=&quot;font-size: 28px&quot;&gt;&amp;nbsp;&lt;br style=&quot;font-size: 28px&quot;&gt;&amp;nbsp;" style="rounded=1;whiteSpace=wrap;html=1;fontSize=28;fontFamily=Roboto Slab;fontSource=https%3A%2F%2Ffonts.googleapis.com%2Fcss%3Ffamily%3DRoboto%2BSlab;container=1;labelBackgroundColor=none;fillColor=#808285;fontColor=#FFFFFF;strokeColor=none;verticalAlign=top;" parent="1" vertex="1">
                    <mxGeometry x="686" y="3300" width="323" height="200" as="geometry"/>
                </mxCell>
                <mxCell id="65" value="" style="triangle;whiteSpace=wrap;html=1;fillColor=#FFFFFF;rounded=1;strokeColor=#808285;strokeWidth=2;fontSize=28;" parent="1" vertex="1">
                    <mxGeometry x="656" y="3320" width="60" height="160" as="geometry"/>
                </mxCell>
                <object label="" width="10" id="66">
                    <mxCell style="edgeStyle=orthogonalEdgeStyle;html=1;exitX=0.5;exitY=1;exitDx=0;exitDy=0;endArrow=none;endFill=0;strokeColor=#808285;strokeWidth=3;jumpSize=10;comic=0;orthogonal=0;rounded=1;startArrow=none;startFill=0;shape=flexArrow;fillColor=#FFFFFF;width=15;fontSize=28;" parent="1" source="57" target="67" edge="1">
                        <mxGeometry relative="1" as="geometry">
                            <mxPoint x="1192.5600000000004" y="2645" as="sourcePoint"/>
                            <mxPoint x="171.5" y="3310" as="targetPoint"/>
                        </mxGeometry>
                    </mxCell>
                </object>
                <mxCell id="68" value="" style="shape=image;verticalLabelPosition=bottom;labelBackgroundColor=#ffffff;verticalAlign=top;aspect=fixed;imageAspect=0;image=data:image/png,iVBORw0KGgoAAAANSUhEUgAAAggAAAIICAYAAAAL/BZjAAAAAXNSR0IArs4c6QAAIABJREFUeF7snXdc1Pmd/weGMpRh6L0jvStdqtKRLii21d1kTe6SXJLNpdzlLu7lcsldcpvc5ZdN3NtmYdVRKaIIKgxN6gAC0jtIh2GoA0z7PT4ss2GNOsx3hqnv+Ud3/bT38/35fj+v76e8P0rXrl3z1tfXn8HBDwgAASAABIAAEAACOByORqOZKD148MA0KSlpGogAASAABIAAEAACQAARQNoABAL0BSAABIAAEAACQOBrBEAgQIcAAkAACAABIAAE/oYACAToFEAACAABIAAEgAAIBOgDQAAIAAEgAASAAH8CMIPAnxGkAAJAAAgAASCgcARAICicy8FgIAAEgAAQAAL8CYBA4M8IUgABIAAEgAAQUDgCIBAUzuVgMBAAAkAACAAB/gRAIPBnBCmAABAAAkAACCgcARAICudyMBgIAAEgAASAAH8CIBD4M4IUQAAIAAEgAAQUjgAIBIVzORgMBIAAEAACQIA/ARAI/BlBCiAABIAAEAACCkcABILCuRwMBgJAAAgAASDAnwAIBP6MIAUQAAJAAAgAAYUjAAJB4VwOBgMBIAAEgAAQ4E8ABAJ/RpACCAABIAAEgIDCEQCBoHAuB4OBABAAAkAACPAnAAKBPyNIAQSAABAAAkBA4QiAQFA4l4PBQAAIAAEgAAT4EwCBwJ8RpAACQAAIAAEgoHAEQCAonMvBYCAABIAAEAAC/AmAQODPCFIAASAABIAAEFA4AiAQFM7lYDAQAAJAAAgAAf4EQCDwZwQpgAAQAAJAAAgoHAEQCArncjAYCAABIAAEgAB/AiAQ+DOCFEAACAABIAAEFI4ACASFczkYDASAABAAAkCAPwEQCPwZQQogAASAABAAAgpHAASCwrkcDAYCQAAIAAEgwJ8ACAT+jCAFEAACQAAIAAGFIwACQeFcDgYDASAABIAAEOBPAAQCf0aQAggAASAABICAwhEAgaBwLgeDgQAQAAJAAAjwJwACgT8jSAEEgAAQAAJAQOEIgEBQOJeDwUAACAABIAAE+BMAgcCfEaQAAkAACAABIKBwBEAgKJzLwWAgAASAABAAAvwJgEDgzwhSAAEgAASAABBQOAIgEBTO5WAwEAACQAAIAAH+BEAg8GcEKYAAEAACQAAIKBwBEAgK53IwGAgAASAABIAAfwIgEPgzghRAAAgAASAABBSOAAgEhXM5GAwEgAAQAAJAgD8BEAj8GUEKIAAEgAAQAAIKRwAEgsK5HAwGAkAACAABIMCfAAgE/owgBRAAAkAACAABhSMAAkHhXA4GAwEgAASAABDgTwAEAn9GkAIIAAEgAASAgMIRAIGgcC4Hg4EAEAACQAAI8CcAAoE/I0gBBIAAEAACQEDhCIBAUDiXg8FAAAgAASAABPgTAIHAnxGkAAJAAAgAASCgcARAICicy8FgIAAEgAAQAAL8CYBA4M8IUgABIAAEgAAQUDgCIBAUzuVgMBAAAkAACAAB/gRAIPBnBCmAABAAAkAACCgcARAICudyMBgIAAEgAASAAH8CIBD4M4IUQAAIAAEgAAQUjgAIBIVzORgMBIAAEAACQIA/ARAI/BlBCiAABIAAEAACCkcABILCuRwMBgJAAAgAASDAnwAIBP6MIAUQAAJAAAgAAYUjAAJB4VwOBgMBIAAEgAAQ4E8ABAJ/RpACCAABIAAEgIDCEQCBoHAuB4OBABAAAkAACPAnAAKBPyNIAQSAABAAAkBA4QiAQFA4l4PBQED6CXR2dqq1trZGWlpanrC0tHTT09OzXltbW6DRaIM9PT1lOjo6DxMTEwel3xJoIRCQXQIgEGTXd9ByICB3BGprazXm5+eTvb29v2dkZOSnrq6urqSk9JWdXC4Xx+FwuKurq4u0xUVqT3d33sbGRklGRsaYkpISV+6AgEFAQIIEQCBIED5UDQSAwJcE+vv7dcbHx+Pt7Oy+Y25uHqSqqqq6mw1PJCCB8PJvfn5+YmlpqWxgYKCAwWA8zcjImAWuQAAICE8ABILwDKEEIAAEMBDgcrlKeXl5pubm5klGRkbfsrOz81VSUlJGRe2eNdhL0Ug4sNlszszMzPDMzEzR7Ozs3Y2NjedpaWlLMLOwF4KQBgj8LQEQCNArgAAQECsBLpernJeXZ6Kvr3/Cycnp+6ampjZIEKBBHv0piDjg5dk9s7Dz/7jDw8Nd4+PjuSwWq5DBYIwkJyevi9VQqAwIyDgBEAgy7kBoPhCQFQJoxqC9vd1oZGTkR+Hh4d8gEol6SAwoK29PGoj8h4TCzp4FzsDAQHdLS8tHvr6+t8lk8sylS5c4Iq8QCgQCckYABIKcORTMAQLSSKCystJufX39n8LDw7MJBAKRi1YRdhq6nwIBVcHhcLZnJTgcDofFYm0MDQ21trS0fG5mZpYfHR29II28oE1AQBoIgECQBi9AG4CAHBIgk8l4HA4X7Ojo+Hd2dnaxOjo6BshMQZYQ9gMLmlVgsVjstbW12YmJiZr29vYvnJycKH5+fkv7UR+UCQRklQAIBFn1HLQbCEgpAQqFojI/Px+BjiqamppGaWppEZV35gvQ4LxfMwZ7xYFmFLZ/qE1figXm/Pz8yPz8/MOurq47+vr6LXFxcWt7LQ/SAQF5JQACQV49C3YBATETaGtr03rx4kWIvb39d2xtbWMIBIKGmJsgdHXr6+sbMzMzz+l0emFfX1+RtbV1X0hICEPogqEAICCDBEAgyKDToMlAQJoIkMlkkrGx8REjI6N/cHR0DMXj8XhJzxJg5YNmF3gnI7a2thgDAwP1a2tr14eHh8u9vLwm3d3dt7CWDfmAgKwRAIEgax6D9gIBKSCATiTcu3dPW01NLdXR0fEnDg4O7mjSXgqati9N2NjYWGttba1aXl7+BIfDUZaXl5eys7PZ+1IZFAoEpIQACAQpcQQ0AwjICoH6+nqdvr6+v0tISPgHPT09EyUU3WifjipKCxPezAIXh+NubmysUKnUsvHx8T+7urpW+Pn5MaWlndAOICBKAiAQREkTygICckygtLTUCofDvRsQEPA2iUQy5UU9lGOTX2saWoZgMplba2tr08+ePSuZnp7+3NvbuxmWIBSxN8ivzSAQ5Ne3YBkQEAmB69evu7m4uHzL1tY2XVdX10JZWRlNGoikbFkuhBe9Ec0urK+vr62urvYMDQ09GBkZuXP69OlOJSUlCMYkyw6GtuNAIEAnAAJA4G8I7MQw8HR3d/+2hYVFOpFINOKFQeZt4gNsfyXAEwvoz+XlZfri4mLDixcvCqanp0txONwY7FeA3iKLBEAgyKLXoM1AYJ8IUCgUwsbGhqeFhcU37O3tczQ0NIjyvr9A1Ch3wjtvB4Si0Wgz09PTT+h0+t2+vr6Gt99+ewoujxI1cShvvwiAQNgvslAuEJAhAmQyWcPExMRfU1v7PU9391g1NTUCar40BDaSIYzbTX35Smref9NotKmOjo4CFRWV3Onp6eddXV0rcCeErHlXsdoLAkGx/A3WAoGvESguLlbf2tqKtLe3/5Wrq6uv8pc/qafEZm+fMOSiH2qwoLdASsLA3cJhcnJyqqmp6YaGhsany8vLPbAEIQmPQJ38CIBA4EcI/h0IyCGB8fFxjdra2pzg4OD3TE1NnZTxeBVeOGRZ2ICINgaWlJRcJxKJf9nc3HzLx9c31dDAwFjaXbV7YyNaamCxWFtzc3MjNTU1X+jp6V2LjY0dgSUIafei4rQPBILi+BosBQK42tpa/aWlpTO+vr7v6unpOauqqqrIgiB42XVbW1vMR48eHUlOTq5BGyqXlpYMXV1dA9XV1bMcHBwSSCTSVxdDyYJ9HA6Hu7a2trywsNDW3t5+Q1lZuSg5OXkCuiwQkCQBEAiSpA91AwExEEBRDx8+fGiho6Nzxt7e/oKRkZGDsrIyumlx+ycLSwovY5qdnR1tbm52TkxM3Nz9b0gssNlsKxsbm6MGBgaZJiYmwSQSSVcMmIWq4qsLpL5cN+HQ6fTpxcXF6q6uLrKOjk5VVFTUvFAVQGYggIEACAQM0CALEJAFAmh5/u7duw729vbnTE1Nz5iYmNjKohjYzRpN0aN9B48ePfpjfHz89980Hc/lclVzc3NdHB0dk83NzVP09PQ8NDQ0tFB5srBnAbWTw+FwpqamRmh0WvHI0Eg+m81uSU9Pp8tC/4M2yj4BEAiy70OwAAh8jQC6bnlra+uAnp7eO0gc6Ovrb6/No69UPP6riQOZpIYEwtra2uqDBw9CT5482bZXI6hUqmp3d7e/vb39GScnp1htbW1LdXV1dVlYfuDtW2Cz2eyxsbHO2dlZMp1OL5qbmxs8d+4cXEu9104A6QQmAAJBYGSQAQhIJ4HLly+renl5HVhfX/9ZUFBQBoFA0JLUjMHuKXNEC4UlHhsb6zEyMnLT1dVVwUoQDZazs7PPTE1NfbGW0d/fr97c3ByBYj14+3gf0SBo6KIbKHkDsbTPLqB2stlsVm9vb9vIyMgVIpFYMDMzM5OdnQ03TWLtFJDvlQRAIEDHAAIyTgDtMSgqKgo0MjL6hb+/fwyXy/3qumVJCYSdpQA0a8FubW0tn52dvUQkEhcDAwNb1NXVt2MsYPmhch8+fPh+UlLSJSz5d+fZ2ZtBXF9fP2JiYvKdwMDAMBUVFTWURtpnFnYFY0IrLqzOzs7mZ8+e/cXLy6vQ19cXliCE7RyQf5sACAToCEBARgmgafO+vr4kPz+/H1hbW/upqalpbpuipCT2e5dfOr6HQ9cjd3R03GUwGH9kMBgdCQkJW3fu3Pltenr6e8IscywuLi5UVFSEZGRk9InSbWQyWQ2Pxxvr6+tH6+vrn3N0dAxSV1fXeFkoSLNwYLFYbAaDQRseHq5rbW296u/vX+ru7r4qSk5QlmIRAIGgWP4Ga+WAQG1trcbU1BQSBv9gYmLip6qqSuANXJIawHhLCisrKwtDQ0Ofj4yMfG5tbd3Luwr58uXLpKSkpE4zMzN02RNmL4yMjJRcuXIlaT8jEKKoksrKyva29vbxJCIx29ra2ldVVVVV2mcWdt8HwWKxWHQ6fWxqauoxOgnh5ORU7+fnt44ZPGRUSAIgEBTS7WC0LBIoKioy1NbWPmZvb/9Nc3PzADwe/7W1fHGKg5fCCXMXFhampqambra2tl5+6623/ubrvrKyMiQsLOwp1kGWd3qhqqrqm1FRUZ+Iy38UCkV7amrKx8PDI9PAwCDB0NDQXprFwu6LtHh/39jY2JidnX2+sLBQ1NHRUeTn59cJ11KLqwfJdj0gEGTbf9B6BSBAJpONbGxsTpqYmFy0sLBwU1FRkfhdyzsb5TiLi4tDfX19N2ZmZj7PzMwcepU70HHLmpqa3x8+fPh7WAUCmqGg0WjjT58+PZyWljYuCbdTKBTd+fn5CHd39xMmJibhOjo6Zng8fjvMs7T/eHtCNjc310dGRupWV1dvDQ0NlR84cGCMN8sj7TZA+8RPAASC+JlDjUBgzwSePHnif+DAgY+trKy8eIOrpAcktNa9tLQ0XlFR8Udzc/PPQ0JCaG8y6IsvvjA5cuRIs7GxsYUwAqG3t/eqm5vbW3uGt48Jnz59ajwwMJAQEBDwFlqCIBAIOtJ8iQUSWKjf7D6pgSI3dnd3P2YwGF+Mjo7WnD17dkFJSWn7kgv4AQFEAAQC9AMgIKUEHj9+7BkQEFBFJBJ1JSkKdh1Z5ExOTg6Xl5f/9ty5c58pKSnt6VhddXX1scOHDxcJYwNqQ1lZWWpsbOw9aXNXVVWV2YsXL3L8/f3ftrW1dVFSUsIjW4XZayEuG3kzC2hTaXV19X0Gg/EXXV3d+sjIyE24E0JcXpDeekAgSK9voGUKTKCwsNDEz8+PamZmZsnDIMwAKwxKNIh0dnbWj4+P/8f8/Hy5IMF5Ll26pJyRkXHFw8PjjDDtf/HixVBdXV1Qdnb2nDC27FdedGTy888/V7exsbFhMBhZLq6u52xtbA6giyb3q05RlcsTCag8NpvNXFlZmW1tbX1Io9H+LysrqxlmFURFWvbKAYEgez6DFss5ATSoRkVFvR8aGvpzZKq4v0R5MwZsNnvr+fPnTxYXF/9nYWGhNjs7W+Ajc7m5ufbx8fG1enp6JsIIhMbGxg8CAgJ+JCNftUrFxcVEAoHgqqmpedzS0jLV1NT0gNIOAGkPxMR7vNYZ62sryyvDHR0dBXNzczdVVFTgWmo5f/e8bB4IBAVzOJgr/QQ+++wz2/T09CYdHR1D1FphBlYs1q6uri6NjY3d7+np+bOXlxfV0dHxaxciCVJmTU3NO8HBwR8LMyiimw4pFMrh6OjoOkHqloa0aGbh9u3bhiQSKcjMwiLTxMgoxsDAAG1ulImZBcQQzTCgPkGj0VqGhoZu0+n00oyMDHQtNUcaGEMb9o8ACIT9YwslAwFMBBobG8/7+fmhNX5M+bFmoi8trU5NThZ0d3f/KSMjo0nYqWV0J4S1tXWBnZ1dElahgwankZGRXiqVGpidnb2E1TZpyMe7VROHw8W6uroeJ5FI/jvXUvMmF8QuBgXhwtvgSKPRpufn56vm5ubuTE1NVWdlZc3IyMyOIOZCWtikCH0ACEgXgc7OThTqt8DFxSVB3EsLfX19L+ZptP+3uLDwgMvlDiUnJwsVWOfmzZse8fHxVTo6OnpYBQJa7iguLn7/2LFj78vTIITEwr1795zU1dUzPTw80kgkkquWlpa2uEWhIL1/d+yLnb9z5+fnJ4eHhwvW1tbI09PTHadOnVqCmQVBqEp3WphBkG7/QOsUjMCVK1e8MjIyarS0tIiSGiyYTCazp6enZXh4+IqGhkbh8PDw3MWLF5mCuqKsrOznUVFRvxTGDhQRsLm52TsoKKhL0PplJT2ZTEZ3Z7irqqp+MzQ0NFlbW9sM3QnBO5bI+1PcglEQfkjIoWup29vbyaqqqtcXFxcHsrKyNuRJ1AnCQ17SgkCQF0+CHXJBoIFK/Yn/wYO/QV9okhoQdh1r3L4IqK2trb6np+fDgICAYkdHx+W9gEbBkaanpxtMTU399pL+dWn6+/t7nj596nvhwoUNYcqRhbxoVuGjjz5SMTMzO6SqqnoxIDAwVZdE2p59QT9J9Ye9sNt9eye6oOvFxMRodVXVFSsrq6uRkZGjIBT2QlH60oBAkD6fQIsUlMD4+LgGh8OpsLa2DpA2BOhLHl0ENDA0UN3+rP3q0aNHH1tZWTFe187c3NyAlJSUMqzT5jtH7zi3bt368alTpz5Ae+Wkjcl+tgfNKrBYLD1ra2t/HA53xtPTM4FIJG6LBV4IZWFmZvaz7byykbpcX19fnZub62hsbPzC0NCw4OjRoxPiqBvqEA0BEAii4QilAAGhCVy7di0sKyurRF1d/ctbGaXsxzsvv8Vkbq2urIyMj48/6u3tvWtjY9MQEhLyNbFQWVn5p9CwsL9D2ywFHch4a90MBoPe2NjoGhUVNS1lKMTaHHR99yeffGLp7u4eqqOjc8rCwiKUSCSiyI1ibQeWynh9hs1mc1ZXV2fn5uYa2trablhaWj7mF4ETS32QR7QEQCCIlieUBgQwE2hqbv6j38GD38FcwD5nfOmCpu3aNjc3GTMzM23z8/OFPT09D3x9fXvd3NzQvQk9enp6doKKA94XMqqrv7+f4uLicmSfzZKp4tEm1ra2NkdHR8dEY2PjdENDQ08CgbC9uXH3ngVpM4o364H+5HA4nJmZmcHFxcXHAwMD+VpaWk0xMTEyfUJF2niLqj0gEERFEsoBAkIQaGtr0zIzM2sxNDR0wjKoClG1SLKiNej19fWVsbGx2oWFhadBQUE/V1VVRScyBP7tXATFvnPnzsWcnByx3dwocEMlnKG4uFh9bm7O283N7YSlpWWCrq6uvZqamjpqlizMLqA+w2KxmJOTk89pNFrh2NhYoZWVVR9cSy3hjrWrehAI0uMLaIkCE7h69Wpydnb2HTU1te3d67L2230ZEBrg8Xg8ZhNQfhqNNtHV1eUbHh4ulaGVMRu3TxmRwOzo6Ah3dHQ87erqGq2hoWGgoqKyfR042rwhjT3q5RkpJBZ6e3ubFhYWrq+vrz+amZmZUITNqfvUJURSLAgEkWCEQoCAcASamppuHzx48LgsfPkJZ+necvf09Nx0dXXN2VtqSLWbQGlpqdbkzGSiu4v733l6eQWpqqioo/UHJBJkoX/tzCBtn54ZHBy87Orq+iAvL2/p0qVLELlRzF0dBIKYgUN1QOBlArOzs9oEAmFQS0vLWJiQxPJCFl0nffv27eOnTp0qkBebJGHH5cuXVd3d3Y3odHqCubn5O56env68WQVJtGevde6eWUBHJjc2Nla7u7ufdnV1feTj4/PE29t7ba9lQTrhCIBAEI4f5AYCQhP4/PPPc86cOXMVj8dvTwkL+tvZ+PW1r0NZXKbg7XifmZnp7u3tDYmKiqILygLSv5pAUVGRJpvNtjUxMYnX1dXNdnBwOIjH41V5/USScTf24jO0hLW5uclkMBiTQ0ND5X19fV9ERUXVmpubCxXtcy91K3IaEAiK7H2wXeIEqFSqKg6HKzt06FAY1sagl/vy8vLK1tbWiqGhobksigNkO08gdHV1/c7T0/MfsfKAfG8mgPYrjI6Oetra2qaSdHVTzM3MnJWVlVE0R6lFx5tV4P25sbGxsbi42Ds5OXmvt7e34ODBg8/d3d23pNYAGW0YCAQZdRw0Wz4IUCgUy8OHD/erqqoShLGoqanpTzMzM/+lqqoa5+TklK2np3cQ3YGAlp6l/euQZzf6SmQymVtFRUXRWVlZ1cLwgLx7I/DkyRODxcXFUG9v71QdHZ0jBgYGVng8/iulIO19B/WZtbW11dnZ2YbFxcXbfX195aqqqqPZ2dkgFvbWBd6YCgSCCCBCEUAAK4H79+9/OzEx8U9fXeeHoaCNjY31O3fuxJ89e3Z7UEUhe2/duuViaGh43M3NLZ1EIjlqampqYyharFnQYDQ0NNQ0Pj5+JCoqalWslUNlOCqVatjf33/skN+hHGMj40NaWlp6SCxI84wUb9aJFwNidXWVPjw8XLa+vp7b29tbd/78+TlhbyVV5K4BAkGRvQ+2S5RAbW2thpaWVrmnp2cQlpcwb7p1dHS0AYfDRdrZ2f3NfQUoCt+9e/e8VFRU3gkKCkrV1tY2UVFRQcsa2z9p2hSJ7GlpafmZn5/fbyTqGKgcV1ZWZjE3N3ciIDDwrLmZmYuqqqo6bzZKmvrMm1y1tLREb25uLlZSUvp0cnKy6fTp06tw06RgnRsEgmC8IDUQEBmBvLw815SUlA4lJSVM67+8C3JaW1v/yc/P79dvahiaVXj//ffxvr6+gRoaGt/yDwg4pkMk6qI80rL2jG6RJJPJPmfOnJHbmxtF1nnEVBC6E8LS0tJufHz8XEBAwFlLKysbvDKaVJDGyAp/hcLbuLvTTg6NRltoaGjI39zcvJyRkdEKl0ftrQOBQNgbJ0gFBEROoLa29h+Dg4P/C2vBvOiFRUVFoadOnWrfazloVuH27dv6xsbGQerq6mfc3d3jtLW1Sbz8vJkJcQkHntDp6OigrK+vJ718r8Ne7YJ0+0cACcxPP/1U287Ozg2Px5+0t7dPNbewsMNxuV+FeJYmsfkqEqhfM5lMxvLy8ov6+vo7XC43Nzk5uRtmFV7fb0Ag7N8zBSUDgdcSKC4u1nF0dKQcOHDgIFZMaGDt7e0tXl9fT/Pz82NiKYdCoaiMjIygi4AiiUQiCtl7WEtLiyjOzWm8KIwVFRXvHDly5FMsdkAe8RG4dOmS8qFDh/R1dHQOkkikbHNz80R9fX1TNK0gLlEpjLW8/ra8skJfXlpq7+vrK6TRaPeys7MHhClXHvOCQJBHr4JNUk+gsLAwPD4h4YmaqupX+wEEbTR60TU1NaG9BSIZVPv7+9Xr6uocXV1dE42MjDJMTEw8X3WzpKinl5EY2dra2nzw4IFzZmbmqKAcIL1kCRQUFFjp6OhE2djYZOvr6weQSCSjl1sk6j4jjMW7L45C7eJwONzFxcXZxcXF6vb29g8zMjKqlZSUWMLUIS95QSDIiyfBDpki0NbW9jsPD4/3hPniWlpaWsrPz/e5cOHCiKiNHx4eJlRXV/u5ubsft7SwSCSRSDbq6upq+7H8sCN0yolEYgKcZRe1J8VXHtqvgMPh7AwNDdOdnJwyiESih5aWljavj0uTSHjdEgS6yry9re3PS0tLv4AbJnE4EAjie36gJiCwTaCkpETfzc2tysLCwl0YgdDQ0HArMDDwzH5/7XR2dmpTqdRINze3c87OzuEEAsFAVVUVU9THV3UBJpPJKigoyMzOzr4HXUQ+CHC5XOVbt255GhgYvOXj43NMR0fHSk1NTahYH+Igw1t+aG1t/Wx5efl7in7cFgSCOHod1AEEdhG4e/duSmpqah6KXoflq4r3FV9VVZUSGRlZJE64SCy0trYmOTk5fc/Hx8cPhetFpyWxCB3eGfbR0dF2KpV6MDs7my1OW6Au8RBAm2Jv3LgRbGBgcDEoKChJU1MTbYhVRjd+inOviyDWstlsXGtr68/9/f1/JUg+eUsLAkHePAr2SD2Bnp6eXCcnp1OooVgEAvrKQcsLJSUlB06dOjUvCYPRRUCenp7GdDo90cLC4m13d/dDO2Jhz81BgwOdTp9obGyMi4+P79xzRkgokwTQEsTa2hrR0tIyUF1d/Rve3t6xRCJRB8szsN8AOFwubnFxcfrJ48cRJ0+e7Nvv+qS1fBAI0uoZaJdcEqBQKKaenp6NKKQtVgPR182TJ0+uLS8vX5CGr250EZCSkpK9oaFhvJ6eHjoC54NHn4evEUC8Y42zs7MDnZ2dp6Kjo5uwsoB8skkA3UHS2dlp7OjoGK6pqXnKwcEhgnd6RloCMSEB+/Tp0/fCwsI+kE3KwrcaBILwDKEEILBnAnfv3r2YkpLyJxUVle0BFMsPBRQqLi4+mpaWJnX3FdTU1BBnZma8nJycUnWzZZ9FAAAgAElEQVR1dZNMTEycXt6vsLCwMD05OXl7eHj4f1NTU+FoGZZOIEd5Ojs71VpbWw84OzvHkkikTCsrq4MEAkFTGkwcGhp64ODgcEwa2iKJNoBAkAR1qFNhCQwODpbb2dlFYZlW5e09oNFo4x0dHU5RUVF/E1pZmsCizZhLS0sHra2tD2toaBDRzMHk5GTD5uZmc0ZGxggEqJEmb0lHW7hcrnpubq6vu7s7OmaboK+v76SmprZ9ekYSMwvT09ONZmZmgdJBR/ytAIEgfuZQo4ISKCoqsg4PD28hEokGWAQCwoYG2UePHv1vfHz89yFcrIJ2JAUxe2dDbKSHh8dJa2vrSC0tLRM1NTWRnZ7ZC0YQCA9MlZBKSEpKmt4LMEgDBIAANgI3btz4SXZ29q+VlZUxBbJH4mBjY2Pt3r17YTk5Oa3YWgG5gIDsEUBLV/39/Uk+Pj5vOzk5BaqpqaH4Cl9dS43lFM1eKIyMjFSgGb+9pJXHNDCDII9eBZukjgDawe3v799mY2PjjnX2AG1OnJmZaTM3N/eF2QOpczE0SAwEUJjnlJQUg8HBwVRHZ+d3PdzcDvGEAtbn6k3Nbm5u/qWfn9+/isE0qawCBIJUugUaJW8EKisrHQMDA9vV1dUxB4tBMwhPnjz5l7i4uH+XNz5gDxAQlACFQiEwmUwrPB6famFhcdLBwcFbWVlZhScUhBEM6FljMBhrBQUFUWfOnFHYUzYgEATtlZAeCAhIAH31eHl5/UdKSsqP8Xg8puUFVCWdTl+gUCghGRkZCnsuW0D0kFxBCFAoFO319XV3MzOzVAMDgzQrKytXYQXC8PDwk83NzSRFDv8NAkFBHiAwU3IErl+/rhMREfHcwsLCCstLi3d6YWRk5DGVSk2QhtgHkqMJNQOBNxMoLCyMOXbs2CNh9iWgZ45Kpf59QEDAh4rMGwSCInsfbBcLgfLy8sCIiIh6VBmWlxaa7uRyuVwKhXIxJibm/8TSaKgECMgmAaWWlpZfe3t7/wTLs8YzeWlpabGoqCjg7NmzCh2nAwSCbD4E0GoZIcDlcpWqq6t/Fxoa+kPUZCwzCEggLCwsTFVUVARlZ2ePyYjp0EwgIHYCRUVFhl5eXjVWVlbOWJ41XoNbW1vv+Pr65uz3RWhiByRghSAQBAQGyYGAIASuXr1qHBsb22piYmIuSL7daZFA6O3tverm5vYW1jIgHxBQBAL37t07lpycjPkCM95tjg0NDZnBwcF5isDsTTaCQFD0HgD27yuBysrKxLCwsPtKQnzOoJcWhUJJj46OLtjXxkLhQEDGCfT09FxzcnI6g3W2DuWbn5+fe/z4seepU6dmZByH0M0HgSA0QigACLyaAJfLVW5ra/vcy8vrrBD6AIUnHm5oaAjKyMiYBdaiI4CuIc7Pz3dlMBi+aL2ayWTitLW1G9LT0wcgDLToOIurJDKZbH3kyJE6AwMDzLN1KNZIRUXFJzQa7SJsBsbhQCCIq/dCPQpHIDc31yY2Nha9sMyEEQiNjY2/DwgIeA+CI4muC+Xl5QV7enr+xMjIKJxIJOqhktHO9ZWVlQU6nd4yMjJSSKPRHmZkZAwDd9Fx38+SHj58+G5sbOxfsEYqRW1js9mcysrKqKNHj1btZ1tlpWwQCLLiKWinzBGorKw8FxoaegXrJTO80wu1tbVh4eHhT2UOgJQ2+P79+0nBwcGf6unpGb9OuHE4HC6NRpuZn5+nTE9Pk5eXl+tSUlJmQSxIp1PRbN3IyMgTW1tbzGGRkUCcn5+fLCkpcTp37tyadFoq3laBQBAvb6hNQQig6euBgYE8e3v7FGQyliNXSCCMjo4OVFZW+l+4cIGuIOj21czHjx9b+/v7NxGJxG1x8AaB8FU7UJrJycmRFy9e3NvY2LizuLjYkZaWtgRiYV9dJVDhhYWFzpGRkXVoNgjrbB06SpyXl/fH58+f/+DSpUscgRogp4lBIMipY8EsyRL44osvXBITE5+SSCR9rC1BAqG4uPjfk5OT/wVrGZDvrwTQfRgkEulmbGzscaxc0MzC+Pj4UEdHxw0jI6Mb3d3dQxcuXNhEKxRYy4R8whMoKir6ZVJS0s9RSYIKBF4gso2NjfVHjx75p6WldQnfIvkoAQSCfPgRrJAyAmVlZT+NjIr6tbIS5sjKOBaLxaZSqZ7BwcHdUmaeTDYHRbTMysqaVlNT0xDGACTc0I/L5bJHR0cHGxoaPjYzM7sRFRX1QphyIS92ArOzsz2GhoaYYx8gkTAxMfHMysrKF3sr5C8nCAT58ylYJGECaHlhamqqztTU1F/Qr5ndTR8cHOytrq72uXDhwoaETZKL6quqqryCg4NbVFRU8KI0iMPhcLa2tlYmJiY6qFTqF4aGhnnR0dEKf0ROlIzfVFZ+fr5PQkJCHdaL0JA4QMsLRUVF/5KWlvYrcbVbFuoBgSALXoI2yhSBmzdv+icmJpYRiUQi1oajQefWrVs/y8nJ+S2sdWOl+PV8FRUVwaGhoTV4PF5ZNCV+vRQ00KBd8EtLS9MLCwvV7e3tZENDw6qoqKj5/agPytyexVEuLi7+U0JCwrewinHkN/rS0nx1VVVwamqqQodWfrlPgUCApwwIiJhAeXn5/0ZGRn4XFYvlpYVeWOvr68tNTU3uMG0tOucUFxcbxcTETKioqKiKrtS/loT8hvzNW9Nms9nsubm5IRqN9qC7u7vQzMysOTQ0dGU/6lbUMouLi3UCAgIGDAwMjLAyQP4aHh5+aG9vnwRi/OsUQSBg7VWQDwi8ggCXy1Wdn5/v0dfXtxfmeOPg4GClk5NTJEAWHYHi4mJ1BweHRicnJy/Rlfrmknamr9HMAnN8fLxjaWmJPDAwUGxvbz/o5+e3Lq52yGs95eXlRyMiItDNjZhnhdCsz8OHD7+RnJz8mbxywmoXCASs5CAfEHgFgdu3b4ckJyeXq6mpqWOdPeBwOOybN29++8yZM3Bzo4h72ZUrV47n5ORcV1FRweQfQZrz8owCb2aBw+Ewe3p6Gubn569vbGyUcrncqcTERHQSAn4CEKBQKCpcLjc3IiIiWwh9gJuZmRl79uxZUHx8/JQA1StEUhAICuFmMFIcBNAxOl1d3S9iYmKysdaHBhEajfZiZGTE18/PD9ausYJ8Q77qp0+/CA4MPInuxxBmYBGmaRwuFy2g47a2traeP39e19/ff9nMzKwoMjJyDaa590b2ypUrFmnp6V1EbW0drGIcPW+9vb2furm5vbO3WhUrFQgExfI3WLuPBPLz83VjYmLGtLS0MG9ORC+s/v5+srOz84l9bKpCF11aWqqlpqb2LyGHD/9ATVVVTRIweEcleQMbOtLKZDJX29raKoaGhj729PSkeHt7QzS/Nwm96uqcw4cPf4GeGSxCj7eptKCg4FhWVtZDSfQDaa8TBIK0ewjaJzMESkpKUqNjYvLwWN5WO1YymUxWYWHhiaysLIW/anY/HU+lUlWXlpY8iUTiWQsLizRTU1Pb3fUJ4UKhmo2EA5PJ3FpeXp4cHh4uHRwcvO7k5NTg5+fHFKpgOcuM9pOYmZnd9fHxScJqGpvDwY2Njj7v6+uLiI+Pp2EtR57zgUCQZ++CbWIjgAacjY2NW8HBwenCDC6Tk5N93d3dIdHR0Qtia7wCV8TlcpVu3LhhbGxsHGxmZpZlbGwcpa+vbyrMhT/C4OTtU+D9yWAw1peWlnpQmOfx8fF8W1vbbhALONzNmzddExMTG4Q5SowYt7S0/Lufnx9EKn1NpwWBIMzTDHmBwA4BdNVsbFxchw6RiHk9FBXV1dX1Bw8Pjx8AWMkQIJPJdvr6+rEODg6ZJBLpEAqV/fIUNpb1blFYs7y8vDQzM9NAo9Hu9vX1PT579uyYkpISWxRly1oZLS0tP/Tx8flvYXzBZDKZjx49Cj527FizrNkvrvaCQHgFaS6XqzIwMCDSaGvicqgo6tna2uK6u7tviaIsRSmjrq7urcDAwM+FWQ9lsVjMwsLC2KysrApF4SatdqIAPPn5+c4ETc2TfgcPphMIBHttbW3NL0NbYA+fLYy9vCOTqIyVlZX5wcHBss3NzVu9vb1158+fn1MUsVBbW6thbGz8xN7ePkQYX3R1dTXNzs4eiYqKWhXGL/KcFwQC7wuws1PNeG7Oe3l5OUNfX99JTU1NV1F3E3O5XObc3Fwf+qDV0NCo6e/vH3733XcZisqD3wugs7NTjc1mF3h6eibwS/u6f0cv/6GhoZbp6elICKaDleL+5UPhfAkEwtv+/v6pOjo6Zng8XpU3OAkzSImixTQabb6tre0Bh8O5Mjo6Sh0fH1+T59sIb9y4EZKamvqEQCBoYGHPZrO3NzWWl5d/Pzo6+n9E4QN5LQMEAg6He/LkiYment7nXl5eMUpKSnisAW7kqZPsnOHmopC/s7OzE9XV1Z85OTn9wdfXF64dfsnRn376qduJEyeaNDU10Rcmph/anNbW1vazgwcP/gZTAZBp3wmg/Qp1dXWEubk5fzU1tXeDg4OTiUSijjB7TkTRaN6JCA6Xy1mi0+cqKyvvEgiEvyQmJj6XR1Hf1tb2e09Pz+9jEQeIN+KFYo3cu3fPITMzc1QUPpDXMhReIJSUlJi5uroWWVlZHZTY3KEM9C50ze3a2tosEgqampq/gmm5vzqttbX1R15eXr8VZqBAO9cLCgr8srOzO2SgOyh8E9GFXB999JGes7NzsIaGxlkXF5cYIpGouxsM1gFMWLhI3G9sbDAWFxeHW1tb72xtbd1sb2/vlYdZhc7OTm09Pb1GMzMzV6yckECgUqlVCwsLsRCg6s0UFVogoHXG7u7uu07Ozql4ZWXJLCxi7eUSyIdePEgozMzMPG9vb/+7+Pj4WiUlpS/vvlXQ38566GM7O7vDwgiEjo6OitHR0aTk5GQIvytjfQmdYOno6LBwcXeJ1CXqnrC0tDyMYmFISiDwvpJ590KsrKws0un09s7OzttbW1sP0tPTR2QM8VfNvXHjRkp6evptdXV1zPErmEwmu6Cg4HR2dvYtWeUgrnYrtEC4e/fuwdjY2EpNTU1tYV7u4nKWNNTDO35Fp9MXOzs7vx8aGnpdkUXCjRs3wtLS0krV1dUxrYfyeFZXV38jIiLiE2nwMbQBOwG0H4VKpbq4urommpiYZBgbG3vw+sbu0Mv7LR54dSFLeH0M/XVhYWFmcXGxrL+/P39tbe1pVlbWjCwtQ6AbMt3d3bOwvq8Ri7W1tUUqlWofFRUFy6V8urpCC4SbN2++n5WV9a+IEdYOh/1VIts50UYfBoOx3NLS8l0KhXJdHqYvsXiktbX1Ax8fH8zHEnmBccrKypySkpJgPRSLE6Q0D5VK1ezt7fVzdnY+bmFhEaenp2erpqamhvWkiyjM3JkF3C5qenp6cGFh4f7CwkL+1NRU++nTpxdFUcd+ldHQ0GDg4uLyXFtbG8WpELga9KwhYdbU1FT48OHDDEV9ZwkCTmEFAtpw1NDQUBIQEBCLgO23ohfEKbKQlnfkanV1dammpiYlKSmpShbaLco2trW1aRkbGzeZmpq67v5iE6QO9NJqbm6u0NLSioOjpYKQk620qK+0tbUdcXNzO+fk5BSuqampj8fjVcRtxa7ZhK9mFrhcLmdsbGxgeHiYrKSkdIfJZA7ExsauS9vMQm5u7jvZ2dmXlZWVMQUrRbZvbW1tksnkjHPnzhWLm70s1qewAuHSpUvKqamp5T4+PhGy6DhpaTMa4BYWFgZwOJyvsbGxQp0nvnbtWhIKiSzsemheXl7OyZMnb0uLT9Gz4ebmpnLgwAESh8NZu3///tYvfvELtrQNGNLCS9B2zM7OahcXFyd7enp+28PDwx+Px6ObJbf3QGH5Mha0/tel552GGBwc7G1vb79saWn5SVBQ0LKoyhemHNQnT5w8WeXi7HwYazlIICwtLQ1PTk66gBjfG0WFFQhoBqGwsPDPqampF/eGClK9igB6qXC5XC6VSs0rKSnJVqRpO2HXQxHPdQaD3tjQYCUtp0LIZHKwnZ3dP7u7uwcrKyujgYuNZomam5sfLCwsfG5qatocFRXFgqdBeAJoc+PCwoIpi8VKsrKyOu/m5uaHx+MlFqCNt/yAtMrO8ebempqab544ceKp8NYKV0JLS4u5q6trH4FA0MJaErKvtrb2T6Ghod/BWoai5VNYgYAcfe3atR+ePn36v9HfYYlBuK6Pjundv3//W+np6Z8rwpdmdXW1nru7e4eurq4Flr7Dm+qtr68vfPTokcTXQ9FgtcZg/NshX99va2lpkXb3ht33AqysrAx1dHQULi4uftHV1dWjSIJQuCfkzbmLioo0mUymjbGx8TFTU9MT1tbWXioqKqq7l66w9DNh2oyupKYvLk5WVFQkZ2ZmtghTlpB5lW7duvVeZmbmf+HxeMynzVZXV1fv378fnZOT0yBkexQmu0ILhI8//vg758+f/190MYu4Hz5562FoJmFlZQVtWgw/cuRIm7zZ97I9169fP5Odnf2ZioqKCpa+w1sPLSgoSD958qREr5pFs2klJSU/PXLkyPt4FRVV/EsbwHaH+N3hwEW+ptPpLWjdmk6nl6SlpaF7ART6yKuo+nxxcbEOk8v0sbe2TyGRSInm5ubOyl++pERVxZ7KQRuRUZ1DQ0O1L168iJDUzNHVq1e1AgMDGx0dHd2EYTAxMdHY3t4eDrEP9uT+7UQKLRCuX79+ODMz84m6ujpBmI63d9zyn7Kvr6+2r68vNTk5eV5erUXroWlpaU+8vb2jsNqIBl0ajTbAYDC8rKysGFjLEUW+hw8f2oaHhz/T1NT82szBXspGdswvLEzTFhaqZmdnyYODg08vXLgwvZe8kIY/gdraWv3p6ekwNze3bAMDg3CSrq6Zys4yhLjeWZtbW5sVFEpIfHy8RGYRnjx54hUZGdmq9KVK4g/tpRS8vRVNTU3/FBQU9GuBC1DgDAotEIqKihyPHDnSoqGhoS2uh03e+xp6GNvb23/b2Nj4zxcvXpTLO+zr6+tNfHx8BtTV1bWF8WdjY+NfAgMDvy1MGcLmRbMHZDL5V8ePH/8Zlg1yvJcvagfaizI/P/9iaGTk3tbGxq2JiYnn/f39S7AMIayXvsyPor6ura2l+Pj4nDA0NPTW1tbWE8e11Ggm4datW++fPn36kmgs2XspqH9WVFT8MiIi4p9RLizv6Z3NiYuFhYVh58+f79x77ZBSoQUChUKx9fX1bdPR0cF0RS90n78lgAYMNpvNKi8vPx0fH4925nPljVNubu73Tp48+Xv0QYPVtvX19bXbt2/HnT9/XqIbwD777DPCwYMHGzw9Pb2wvHxfZz96KY+Pj492dXWR1dXVc0dHR3svXLiwgZUX5Ps6gbKyMpvZ2dmTQUFBp83MzBxVVVXVd980KWpfFhYWftjW1vZdcYs9MpmsHxAQ0GBjY3MAax9AfXFgYOC+o6NjmqLceImV1cv5FFogoFDLS0tLAzo6OnaifKBE5RxZLIe3E5pGo6ELnsIzMzOHZNGO17WZTCZruLq61ru5uXkJoQ9wk5OTLXQ6PVjSx62QQAgJCWlxdHR0FeUzwAtKs7N/gTU6NjZUX1d3xdbWNjckJATtV5A74SiJfk4mk/EkEslxbW3t7YCAgJOmpqZWqF+K0pfIh2iW6eTJkz8Xt42VlZVHQkNDy4R51tAMSH19/enQ0NAvxN1+Wa9PoQUCct7CwsKgnp6evSgfKFnvFKJoP5puHh0drbS1tY1XUlLaFEWZ0lAGhUJxCQsL68S6aYy34a+xsfFfgoOD/13SNu3MIDR6enp67vczgPrExsbG6tTUVAeVSr1FJBLzEhMTX0iagTzUj/bFHDhwQNvCwsJNWVk5x9nZOdPY2NgcTdHvnprH4mMmk8nJy8s7d/LkyVxxs3r27Nmfvby8voWl3by2zs3PTz0qLQ04c+YM9DUBHajwAmF0dPSplZVViDAdUEDmCpEcDYQsFotVW1v7QWRk5E/kxeiysrKfRkRE/Br1FyxfNYjLysrKUlFRUdiZM2ckfnMjGkDu3Lnzq8zMzJ+K6yjPznW7nOXl5dm5ubmnHR0dtywsLMpCQkJo8tJPJGkH8um1a9eMbGxs/HR1dU9aWlrG6OrqmqI2YemzdDp9rru720Xc/iGTyRbh4eFPjY2NbYR5P1Op1E/8/PzehVM2gvdKhRcI3d3dN5ycnE5ieXAEx604OXhn59EX4/3797Oys7NLZN16MplM8jl4sMrRwcELa2jlnfXQUiaTmSLp5QWeP0pKSg6Eh4e3EAgE4u6vzf3y1+5wv6gONofDnp2ZGaTT6aU9PT339PX1qXCRjmjoo2XUa9eu2VhZWUVYWltnGBsaHtbW1tZ/ecDd/d88/6D/x2QymU+ePPl5QkLCb8W9LEShUM6Eh4dfRcIVi0DYnq3D4XA11dVxERERj0RDVLFKUXiB0NDQcN3f3/80lg6oWF0Fu7XT09Mvenp6gqOiomR6iq+4uDgoJiamRkVFBXO0O/TSam5ufsff3/9T7ERFmxN9cVZWVv4hODj475FtkhLLaGYBzTqh0w90Ov3uyMhIkbW1db+fnx9cgS0Cl3O5XPzdu3cdSSRSmqura4aOjo6rtra2Nk/s8t6BvGUwdG9BZ2fn5ZWVlffEHQMBCZvBwcHb9vb2GVhFK7JjZmbmxb1793wvXrwot8euRdA1XluEwguEgoKCH6WkpCB1vJ+cFbps9OKvr6+/t7q6eiouLm5NFmGgQbSlpeU3vr6+Pxamr9Dp9PmCggL/CxcujEgTBxRJkcvlXvb09DyJricWZ9t4A9T2BlcuF4eexO2vVxZrq7evr3VuZuYKg8EoVVZWnoAgN6LxDBILN2/e9DM1NT3j4eGRqK2tbYbH41XRpzoSBkvLy8P1dXUfpKenoy94sYfWzsvLc4qMjKzR1dU1Qv0Ci2hF753S0tI/NDY2vifu0xei8ZLkS1F4gXDjxo2zJ06cQA+B5L0hpy3gnWyora39Xnh4+P+TxaOPJSUl+uj0gpWVlaMwfaWpqenWyMjI6ezsbLa0uRuJoOvXryf7+fldcnR09MLhcNuzCcLYK6yNvL7D5XLZbW1ttYODg3+2srIqDQ4OXhT3lLewtkhrfiQOp6amHGg0mjOHw9GysLBootPpQ5Lso48fP/7p0aNHt/f6YP2xWCx2fX39obCwMLmP7IqVEb98Ci8Q/vznP5985513vlBVVcXeE/lRVvB/3xXLf7WsrCwmJSWlXtaQPHjw4FhcXFyhktJ2PDfMzUdXY4eFhRVhLkAMGYuLi9U1NDTs1tfXj7u4uJy1tbV1FEdAnleZtvu4JPp3tF9hc2Njpbe3twZNf8fExJSbm5vDEoQY+oW4qkDLCxMTE0/Nzc2DhBEIIyMjw01NTe7Z2dkSjVQqLm77UY/CC4SbN286JSYmNhCJRN39AAxl/pUAOo/84sWLlra2tsTU1NQZWWLT3d39qbOz8wXUZiwvLTTQ0Wi0ucePH3ueOnVKVmxXKi4uJhIIBFctLa1Mc3PzNFMzswPbN5fsfNlhYSEKv+/cZbG1vr4+PTg4+Linp+eWq6vrU9ivIAq6ki3j5s2b/omJiWXa2tpErP0LHaklk8m/PHHixCWYacLuT4UXCA8ePLAJDg5u0dPT08eOEXLuhQB6qbPZbG5vb+9Vd3f3d2QlqllRUZFFYGBgvYGBgSWyE8sMAhIIFRUVnx85cuQbsmL3bp+i5Yfbt28b6uvrB5qammYaGRlF6xsYWKgIcbveXvrM69LsDvGM0mxtbW0sLCx0T01N3evq6ir08/PrlJZTIsLYqYh5yyiUP0aGh38HiQOsAoHBYKxUVlZ6JSQkSNVeH1nzp8ILhIaGBgMbGxuqiYmJraw5T1bby2AwGDU1Nd+LjY39WBZsKCoqupCQkPAxHo/HvLbAYrE4VVVVUUePHq2SBZvf1EYkFvLy8iwIBEI0ukSIRCL5k0gkg/0K9Ssor9XV1ZXJ6WkqnUYjDw8Plx84cGDYz89PLu8FEZSNtKdH+yGsra17DQwMtqPbCioQeCcwRkZGah0cHA5Lu73S3j6FFwjIQdPT0w0mJiYB0u4seWkf+vpbWlqarq2tjTl27NhzabYLDYbDw8Mltra2sYK+rHbbNT8/P/3w4cMD586dk8lTHK/zEeJz4+4NZ0MdwwxXV9c0XV1dtBwh0cvPeKchcFwubnV1dWloaKhsY2Pj+uDgYL2lpeWcuI/sSXP/lra23bp1KzwtLe3Rzt0SmAQCh8PhkMnk7546depDabNP1toDAgGHw42MjNTb2NgEyprzZL29AwMDba2trcHSvIkIXejl4+ND1dXVRV/ImH5owLqbf/fDzo5OsV92g6nBGDOhewHU1NTc2Fz22xFhERlEItEUj8eroSWZ3UcZsSzRYGzS17LR6XR6U1NTiYqKysfz8/PUrq6uFTj+Jgqyoilj516JG7GxsVlYS0T9jEajTQ0MDPgGBQXJyl4frObuez4QCDgcrqen5/+cnZ2/se+0oYKvEeBwONz79+//JSUl5bvSui5/+/btn6Snp/8Gj8ccGwm3ubnJqKysDIiLi5Pq2RIRdk+ly5cvq5ibm/vh8fhvBgYGpuvq6n61CVhSAoF3mobL5XIWFxcXGhoa7jIYjI8yMzOfwUY2EXofY1G5ubl6GRkZYwQCAfM16sjHKMCSo6NjNsZmQLZdBEAg4HC4zs7O37m5ub0HPUO8BHiR8yorK7NjY2PzxVv73mobHR1ttrKyOohSY1li2Inm1mlqaoquU+bsrVb5SYW+Clkslp6lpeUhZWXlc56englEIlEPWfhyBD9xWL07RDb6OxJvy8vLY01NTQUsFuvq1tZWryTP/4uDgbTWUVpamnb06NE8vBAbX1Hsg4KCguysrKw8abVTltoFAgGHQ1H+3g8MDPxXWXKcPLSVFwSHRqO9aGpqOpqUlNQnTXbduXPHJTExkQz/BNwAACAASURBVEogELSwigN03Kq4uPjfkpOTL0mTbZJoC4re98knn1i6urqGoUuELCwswohEoo6kZhR4IoX3J7pEi06nPxsYGMhfWloqysjIGIaZBfH0lM7OTrWl5eW7gQEBx7D0B97s0PT0dO/IyEiIuC+WEg8l8dcCAgGHwxUWFmakpKTcFT9+xa6R91CjmYS+vr7CmZmZM1FRUavSQAVtvsvPz/+vtLQ0NLOE+bKY5eVlWmVlZUhqamqvNNglLW1AA0JbW5ujvb19jJmZ2XFDQ0NvDQ2Nr00tYxFlWOzbtfSwfYSVw+VyaQsLM3Q6vXpkZKRgeXmZkpGRMQ1iAQvdveXJz893iI+P70BhvrH4nefDrq6uDzw8PGA2eG/Y+aYCgYDD4a5fv56Qk5NTjEW58iUMCfgS2ImPwKZSqb8oLS39tTRsHLt69apWdHR0j5mZ2XbsAyw/ZNf4+HiZjY1NNJb8ipIHiQUqlerj5uaWY2lpGU8ikezU1dXVkf2SeiZ5x+XQSsj0zMz47MzM/YWFhTs0Gq0tKysLwjyLuHPW1dV9Mygo6COsxSJ/MZnMrXv37kVnZWVVYy0H8n2dAAgEHA730UcfhZw9e7ZMXV2dgEW9QqcSjgBP/a+sri5VV1WdOHbsWKlwJQqfm0KhBIWFhT0VJvYB2oRZWlr6vcTERHT/BPz2QKCtrU2ro6PjsKOj4zk3N7ejBALBUEVFRQVl3b1/YA9FCZWE1yd314s2N7548WJoaGjolpqa2p2JiYmB7OxsqZjxEspYCWeura3VIJFID93c3CKwNgXNQg4ODjYwGIyj3t7ecnWUGCsTUeQDgYDD4RCEwMDAFn19fTMQCKLoVtjKQC/lqamp/vHx8TBJHlG6dOmSckBAwP/Ex8dvR3MT9McbXGg02kRbW1vg0aNHJwQtA9LjcFQqVbO7uzvWycnpe97e3sF4PF6ddyeEpGYWkF/QYIT2loyNjY00NTX9n4WFRe7k5OQEbG7E1muvXbvmnZWV1aiurq6GrYQvxWNLS8t7fn5+H2AtA/L9LQEQCDsC4eDBgy0mJiYgECT4lOxsWuR2d3c/8PDwSJHUmu/Vq1eN4+LiOgwNDY2xDES8L93+/v5cR0fHs5KyQ4KuFGnVFApFhcPhmDAYjHgzM7Pznp6eQaqqqtuzCuL+7d6vsPN3LovFYoyOjj5vbm6+YmxsfDc6OhrO3wvgmGfPnv2rl5fX+1jEOK8aJpO5SSaTD545c6ZLgKohKR8CIBBwONzw8DABh8OVW1tbB2MZEKCXiZYAi8Vi3rt378cZGRn/I4nBtba2Ni44OLgEq1U8ofP48ePjCQkJcNwKK8hX5EPT0bOzs3ampqaxJBLppIODw0E8Hq/KG1wQe0k9wyic9vr6+vzU1BSVSqVetbCwKIuKipoXoflyV1RNTQ3R3NycYmNjg47BCmwfb69IW1tbmZ6e3jE7O7sNgQuBDK8lAAJhB01fX9+DAwcOJAqjYqGfiY4ACpFbU1MTk5CQ0CS6UvmXhI7iNbe0fHzo4MHz/FO/PsXExER/c3NzmKzdWimMzeLOi/YrDAwMeDo4OKTq6emlmJmZOeHxeBUsA40o2r5rY+P2tdS0hYWxhYWF0q6urju6urrUmJiYJVHUI09l5OXlxSQmJj5QVVVVxeI33oxOdXX1WxEREVfliY002AICYccLHR0d+e7u7mkgEKShW365pjg4ONgyNDSUEBcXNyuuVt24ccMqOjq60dDQ0BRrnajt7e3tH3h7e/9IEjMgWNsty/lKSkr0V1dXD3t4eaXr6ugcMTA0tFJWUkI3U2+bJcmZha2tra2ZmZme+fn5e52dnfnGxsa9cXFxsJHuyyB1l93c3N7F2vfQfpCtrS1GaWmpc1pa2jjWciDfqwmAQNjh0tbW9s+enp7/DgJBOh4V3tdYS0vLn+bm5t5LTEzcFEfLnj59ej4oKOgzLF8zvPahy2LKysqOxMbGVoqjzVDH1wlQqVTDoaGhY76+vtnGxsYBmpqaeug0iqSebV5fRvWjo3iDg4PUxcXF3Kmpqcfe3t5jjo6OYunb0tZPqqqqjJycnJpMTExssLYNCYS6uroHBAIhHW7sxErx9flAIOywaWlp+aGPj89/S+olInrXykeJTCaThQbtqKio3P22CIUF9vHxyTtw4ADaIClwdbzpzpGRke62traQ9PR0usCFQAaREqBQKJYzMzPZgYGBZ83MzFzQLYEo6hVvIykWP4uigah+FOb5+fPntVNTU1c2NjZKjIyMFhXppskbN26cOn78+FUVFRXMF52wWCxWYWFh6vHjx4tF4Rco4+sEQCDs8ECDUHBw8GeSemFAx3w1AfSFQKPRpsvKyuJPnjzZtp+crl+/7nbs2LEaHR0dPSz9gCcQKioqfnHkyJF/28+2QtmCEUDiz9LS0m58fPxcQEDAWWtraxskFLD4WbCaX516d5wFFC9jc2uL0UylVkxMTHwYFBRUpgib7fr6+kocHBzihJmtW11dnevo6LAJCQlhiMIvUAYIhFf2gTt37gSmp6fXC9NZoXPtH4GBwcHKrc3NY+7u7vsWmKa+vv6nAQEBv8Y6aOx8lXIrKiq8oqKiFOXmxv1z+j6UjEJof/rpp9q2trauysrK2Y6OjplmZma2vKqQ7yW5X4HJZDLX19dnnz9//mR0dPRKSEhInTyKhUePHpkHBAS0E4lEA6zvXOSnckr59aNHjp6DvT778LDshABQQtMISUlJ0/tThWyU+tlnn/mfO3euEWtnlQ0rZbeVTCaT3dzc/L9BQUHv7cfLgMvlqr548aLC0tIyBCslNNsxMDDQ2dfXF5CcnLyOtRzIJx4CKCDWoUOH9HV0dA4SSaRsS3PzRH19fVM0rSCp98DuOAtoCWJpaWloeHi4aHh4+I6zs3O7vKyz37x584eZmZm/xbo3hLdEU1BQEJeTkwOhlffpkYElhh2wn332mW1GRgZVR0fHYJ9YQ7FCENh5IawODw9/qKSkJPDgOzs7O8/hcC6/bo335s2bQYmJiY+JRCLmu+hZLBY3Ly/vH0+cOIGiuXGFMBeySoBAQUGBlY6OTpSVtVWmoYFhMIlEMkLN4M0q8P6+n03jCYTdpy9QfWtrayvz8/PN09PT9wYGBorPnDkzoKSkxN7PtuxX2Wi5x9/fn2pjY+ODlSniNDMzg65R91VSUmLuV1sVvVwQCDs9gEwm6x8+fLjF3Nwc845aRe9M+2k/b1PZ7rXbvdaHvuxLSkour6+v//3rwuFWV1f/4fDhw/+AdXkBtWVzc3OVSqU6h4aGTu61bZBO+gigAQyHw9np6+tnuLi4pBOJRA8tLS1t3qyCMH1EGGtRP0Y/dEPoxMREOZ1OvzM4OFijoaExLUthnsvLy52Dg4OfEQgEFKAO0w+xqKmp+c+IiIifYioAMu2JAAiEHUwUCkXX2tq6yd7e/sCeyEEisRPgiQRBK0ZHyx5XVBxOio2lviovuk3QyMiow8DQ0EkZw+kFXpnd3d11rq6uoUpKSl++yeEn8wS4XK7yrVu3PA0MDN7y8fE5RiQSrdClbjzDsPZJLGDQoPiyOKHT6XPPnz9/wOFwvpidnW3OysqiS3P/Q3tA7t69+x/p6ek/4d2rgYXF8vLy0v379yNPnz79DEt+yLM3AiAQdjihjtve3p7r5eWVszd0kEpWCMzNzY18+OGHjpcuXWK9qs3Xr18/mpmZ+UBNTQ1dBiSwWejFjWIfXLt27eLbb7/9scAFiDgD6ssdHR26IyMjBzY2NuzV1dVfGBsbT4yPj4/L0pemiLEIXRyKspmbmxtkZGT0zYCAgBRtbW3Sl9sVlCW6sZEnHBYWFuZra2tvqaqqftLY2Njxuv4uNAghCrh+/bpOWFhYt6WlpTmWZ41X9ejoaIWNjc2R/diPJIR5cpcVBMIulzY0NFwJCAg4J3deVnCDCgoKPkhPT//Rq/YFoMH06dOnN0JCQk5g3b2O8i0vL88MDAx4+Pn5STT2fk9PD/HFixe/CwgIyCIQCNpoAEM3D3I4HCYK/0ylUq/p6ureiouLg6hzGJ8LNKtw+/Ztop6eXpC6uvo73t7ecUQiUUdSSw+7AzEhscBisbZoNNr406dPPzU0NPwwKipKauJx1NTUBAUFBdUhcSAMr/Ly8u8dPXr0jxhdCNn2SAAEwi5QT58+/V1ISMh7e2QHyaScAHpZrq+vrzx+/DgkIyPjlccOS0tLtYKCg4d1iMTtDWlYfqie7u7uOx4eHllY8osqD1rbdXZ2LjAxMXHG4/GvjPSENlKur6/T5ubnnz1ra/uCqKV1X5yhrEVlq7SUQ6VSVTs7O40dHR0jtLS0TtrZ2UVqa2sTJR2ICfFBs1qTk5Ntz549+15ycnKNpJmhUyORkZF/CAsL+y5qC5YZBMR1YWFhuq6uLiQlJWVY0jbJe/0gEHZ5uK6u7nRQUNB1eXe6otiHXiYTExMN6Oji69Zl79y5k5aSknJbmOuDNzc3mfn5+SdycnLyJcU2Pz9f19nZ+Y6Tk9NR1AY8/tXB6Xgb3XYGEPbi4uLk4uJieUdHB1lbW7s+Pj6eJikbZL1etJelo6PDAQX/IZFImVZWVgcJBIKmJO1is9m42dnZ/tra2pTjx4/3SLItZDLZNCIigmpkZGQhzGxdX1/fF87Ozugaddjrs88OBYHwdYFwIigo6OY+M4fixUSAzWZzS0tLf5SUlISOHf7Nj0wmq5mamhaGhobGCzPdOTMz09/d3R0gyancurq6twICAj7H8lWGwKCQtWgJgr5Mvzc+Ol6ora3dERUVtW9BqcTUBSRWDZfLVc/NzfV1dXXNMDExSTA0NHRSU1NTQw3COjgKY0xPT0+ui4sLCigksUG1srIyIyws7K4wzxqbzebU1tZmhoeHFwjDA/LujQAIhF2cqqqqIsLCwir2hg5SSTsBtMO7vLw8KDMzc+hVbS0qKrKIjo4eQLvShXlpdXZ2/snDw+M7kuKBjuW5u7vnubq6YrpDgjdo8Y6QotsHx8bG2mk02u3x8fFCS0vLMQhli927nZ2d2q2trZEeHh4nrK2to7S1tU2EmbHC0hI6nb5QVVV1ODU1tRdLfmHzoD7q4uJyzcPDI0eYZ216enqYQqEEnzp1akbYNkF+/gRAIOxilJuba3/q1KlB/tgghbQTQIPd8PDwfQcHh+TXtbWiouJsWFjYVfTCwvLSQtP16Ajl7du3486ePSsxYUkmk41CQkJQDA9LLHa8jg+yj81mszs7Oxump6evaGlpFXV3d89fvHgRAtNgfACQWGhsbDzm4+PztpOTU4CamhoRHYNAfkO8X7c0hLG6r7Khsm/fvv3WyZMnrwpbFpb86N0aHx/foKenZyhMH21oaPifoKCg72NpA+QRnAAIhF3MPvzwQ/tvfetbKEKZ4Ff5Cc4ecuwTAd6u7pKSknNJSUnXXlUNhUIh6Ojo3Pfx8dles8cyNY/qGRkZaVpZWYny9vZe2ydz+BaLBEJoaGiLiYmJJRY73iQQ0L+hxwEt17DZ7I22trb6np6eD2NiYorNzc0FjmjJ1xgFSYA27KWkpBgMDg6mOjo7v+vh5naId2RyPxAggZCXl/etrKysy/tRPr8ya2pqLgYHB/8FqxhH5aPnraqqKiQyMrKOX33w76IhAAJhF8crV64YJCQkPDc0NETx2EVDGEoROwH0MpydnR1ra2sLio+Pn3pVA8hksnNycnIrgUDQwNpAVE9HR8fPfHx8foO1DFHkQ1+laurqFfZ2dodEKRBe1za0X2FjY2Oxv7+/sre393NHR0eKn58fiAWMzkRilU6nW+jp6aWYmpqesre391FRUVHhFSeKExGor5LJ5HM5OTmvFMwYm76nbBQKRcXGxuahnZ1d9J4yvCIRav/o6Cg6puufnZ29hLUcyCcYARAIu3iRyWTtgwcPttjZ2TmK40UrmKsg9V4JoBdqV1fX/7m7u198XSCVpqam7x86dOj3wghBBoPBuHfvXvB+X0O9F7ufPXv2n15eXj8Wxp691MNLwwvOs7m5ubm8vDzy4sWLx93d3bmnT59uhtj4gpD8eloKhaK9urrqZmFhkaavr59ibmHhgldW3j6SIsw7aW1tbb2goCD2zJkzT7G3DltOMpnsEx8fX0EkEknYStg+sol79OjR+/Hx8e9DcCSsFAXPBwJhF7OioiJNa2vrak9Pz4PietEK7jLIwY8Ah8Nhl5aWJiYmJj56VVoU+8De3v6xg4NDsDB+7uzsrFheXk6Uhg18xcXFvocPH6bwXsLC2MWP78v/ztvcyGAw1ubm5p7Nz88XdXV1PXBzc+uVl9sHBWUiivQlJSX6Gxsb/o6Ojtn6+vpHjYyMrNDth7svdOIX6pn372NjYzVDQ0MxUVFRG6JomyBl1NXV/SYwMPAnwvRJJovFelpT4xkVFSXRo5qC2C0PaUEg7PIiipBWXl7+cWRk5AVh1Lo8dAxZtmFsbKy3ubn5cEZGxsKr7CCTycHJycnlwp5eqK+v/2ZwcLDEQysjG3f67g/DwsL+E21626/Nbvz6BfrSQ4MSg8FYGh0drV5bW7s9MDBQ6ezsPAligR+91/87elFvbW3Fe3l5Zenr6/sRiUS02W87zPObfiw2G7e2ujpfWVl5NjU1tQR7C7DlRLEh9PX1qSYmJp7CCISBgYGO/v5+/8TExE1sLYFcWAiAQHiJ2v379z9ITEz8gTCdGYsjII/oCKAvlpCQkJ+9rsRnz5792svLa/sWOKx+3tzcZOTn57vl5OSMiK7lwpWEovoNDw//KC4u7sfa2tq6WG0TphW8r9uvbt/E4XCrKyv0rq6uRwwG4+r09HRDTk7OoqxeVSwMG1HlLS0ttVpdXc308/M7Z2Bg4KSpqan5uo3Vy8vLC42NjRdjYmLuiqp+QcrJzc2NSk9Pf4D2+mDtjzv3nPzo/PnzvxekbkgrPAEQCC8xvHv37qW09PRfCHOr35vcwlu7fdXUIO/lyu+r4FW3uvHrCjtlc/ml4/37Tvv2nH7nK3bPA66gwWJQRDgU5EUJxXB/hRG7r4F+8uRJUFxcXPOrbKVSqSRjY+M6KysrV37Ts69jhfLV19eXkkikFHd39629MhVXukePHjlubW39KCgoKF1HR8cATUvv9zG6vdiGuC0uLi41NjbeY7FYf2YwGOj2QSasKe+F3t+mQfeIlJWV2c3Nzb0bERFx0tjY2ALNKuy8H5iNjY0VNBrtB8eOHevGVoPwuWrr668GBgScRc8sFoGA+szq2tri8tKSo6Wl5StnBIVvJZTwOgIgEF4iU1paGhMdHV3Cd+4OY5/a2NjYGh4e7h0bG6tksVhfO0/OYr3yssFX1rRzAQ86WrenyGh4PJ6ppqaGjnAiQf7GIxrKyspcZWVlBrp6XhAzd2283lM2QdIrKSmtqqurL7LweGX1N5TOZDLZb7q1MDc3NzErK6tARUVFFRWD5aXF4XC4T548yY6Li7uzJ0MlkAgtOeTm5mobGxv7q6qqnvfy8jqmr6+vK4GmfFUl7/gp+h9sNnuLTqdPNjY25rNYrM9SU1Ofg1DA5h0kFD766CMNFxcXEy6Xa8lkMpmzs7O95ubmK1FRUXt/qWCr/rW5uFwuYWl5eZiorW3K76PnVYXw+kt/f3+5i4vL9nFk+ImXAAiEl3iXlZWFR0ZGUkQtEJhMJquzszN3enr6A2Vl5cHY2Nh1eCGKt7Oj2jo7O6+5urqewSIMeK1dXV1FF0DZvW6Pg/itenON6JjZ9PS0sbW1dQiBQMg6cOBAjLa2tp40zCqgr92NjY3VpaWlvmfPnhVsbGzcYrFYg3AttbT1IsHbk5ubm5qdnX2bJ8YFLQEJBPTevHPnzjunT5+WSIAnQdssb+lBILzk0crKSs/Dhw+34kW4y4vN/v/t3QdUVUmeP3CSBEFQRJKigkQJIpJBkgEEkSCigKAY2umZ3Z6entmZnd4J7s5O2OmZ6Z3w32kD0oCKgmQEARWVHARJkkQUA4igRCW//ynbN6M2yn333sd7cL+c0+f0OVb9qupTxXs/bqianCgrK/vZ2NjYn0XxFPF8W7R0x5Ofn69mYWFRpaqqqkM3Bql37dq1lKdPn+6ai19iJFm4d++eromJyRZVVVVyToCdsrKyEhMPunXffF5BguxmKSEh0d/f39vX11fe0tJyYWhoKHfnzp0P6cZHPdEJkHWmoKCQZWdnt4VuL8j6ePbsWUdbW5uVnZ0dbi/QhWRQDwnCO3hnzpxZsnv37ifS0tKvLkEz/SG3DcrLy0/39/cfwhO4TDWZ1T979uy+oKCgk3T2wed/mZGtlZOSkraHhobmMeuN6GuTJ8xv3bplbmRk5K+lpeWjoqJirKCg8OphsikeT0J6hifkhTUCYk1u4/T29nb29vbmPX78+MKzZ8/Kdu3a1YOrbsJSZzfujRs3tGxtbdvk5ORob0RG1kF9ff3XFhYWkez2DtGoCiBBeEfq2LFjKgcOHOiWkZF5dfIa05/R0dGxoqKitZs2bcIZD0wxGdZvbm7O09fX30x3u1dyOby/v/9BZ2envjg+nMiEp7W1Va6wsNDBzMwsQk9PjxwotFxWVpaVJFnQfvHvPZN54v9/V1dX26NHj5KHh4fTRkZG6ry9vQV6PkbQPqA8M4Hs7OyDW7ZsOSEtLU17S1pyaFhSUpJfaGjorL+eyWz086c2EoR35jIhIUHB0dGxcfny5avYmObm5ub62traDcHBwWL3tDsb45srMaqqqpYZGRk1L1y4cAmdPvO/qIqKik64uLh8RCfGXKlDtm6uqqryNDQ0PGBhYeEkLS29iL9BD3nYTNA3UNgcNznut6Ojo7WhoSFBTU0t/vnz53e3bds2hisLbCozi1VcXEwuROVaWFg40304kfSgo6OjZnh42NnU1BTHjjObEtq1kSB8+wrCAhcXl1JjY2Mr2qpvVExNTT3t7++/T5TnsLMxjrkeIyYm5vvh4eF/Iq+B0RkL+VJ88eLFi4yMjC0hISHFdGLMtTrkQKGwsDClioqKAAMDg8MWFha2UlJSC8jjOUwe8mTiwL/V83pDpsm7d+82V1dXR2loaJx1d3fvYhIbddkRuHDhgvGOHTvqyXNcdBMEcourvq7uV5aWlr9gp1eIQkcACcI7auThmoULF163tbV1pAP6bp3z58//effu3WTjJYH2FGCjbcT4RiArK0tOV0+vwtjIyJyuCflievLkSbWmpqatpKSkyF4do9t/pvWI4dTU1HIFBQUfDQ2NMCMjow3S0tL/OFCIxBfVlQXy3u7Lly8HOzs7q0pKSuJtbGySTUxM8FAb00mnWb+oqOgnjo6OtA8wI8nf6OjocFpamltISEglzW6gGgsCSBDeQSTvFCdcuPCn4KAgVs4cLykpKRgdHfUQ5fvILKyTOR2ioKDA0MHBgfxFQ/ueOvnyKykp+bWTk9PP5jQGC50nZ1kMDg6u0dXV9VVVVQ3S1tY2Ja+y0X22g4Uu/eNZBR6PN0n2V3j69GlRfX39OR0dnXx7e3s8r8AGMoUYhYWFizQ1Na+uWbPGmkLxaYuQBKG1tTW/s7PTG2990VVkpx4ShGkcT5069R+RkZH/zQbx7du3qwoLC+2PHDny1qZIbMRGjJkFSMKXnZ39U09Pz/+WkpIS+IEp/iXtgYGB/osXL7qFhYXdmrlV7pTIyspSHh8ft9PX199JDhRSU1PTlZGRkea78R80nI1bEm/upklmgGxE1tvb29zb25vb0NCQpq6uXuXu7o772UJcnmlpaS7btm27vGDBAkbJeEVFxcd2dnZfCbGrCE1BAAnCNEjHjx//7sGDB//KxmZJ9+7da25sbFyHVxwprEYhFElISFCxsrIq19PTM6TzJcV/OPH+/ft5urq63ly8vUB1Wsg+E93d3a7r168PW7p0qcOiRYvUZWRk/vHMBx1/qm1/qBz5i3RiYmLs/v37twYGBhLv3buXra2tfVccTuFkY3ziFKO2tvaPpqamn9F59oA/joGBgaGcnJz1wcHBd8RpbFzsCxKEaWb93Llz6wICAspkZWU/tKsvpfUyMjLy4sSJE1qffPIJLnNSEmO30OXLl208PDzK6d4f559hUVxc/F1nZ2f8RUNxei5duqTV19cXYGdnF7Zs2TIzBQWFReQKDt3zLyg2+95L1m8mJ2NjYyNNTU0lfX19caOjo5f7+/uf4C0jJsLf1CUJor6+fuHy5cuNmCSDlZWVqQsXLtw9314lZi48+xGQIExjnpOTY+zq6lpNjgNmOiWTk5PjUVFRy44cOdLPNBbqCy5ATna0t7f/ieA1v6lBvtD6+vqeZmZm2kVERLTTjcPletevX9d5/Pjxfjt7+/06OjqrpCQlpYkHk78y2fAkc0v2Kamurr7x8OHDv6qoqFzBFuj0ZS9cuLDT398/gVx5pZMg8G8RFRYW+ru4uKTR7wlqsiWABGEayeLi4uUWFha3FRUVlZlCk22WS0tL1zg7O3cwjYX6ggkkJycvtbGxKV6xYoWhYDX/WZp8aNXV1cWnpKTsPXr0KKWDsei2NZ/rkWdBrl27JicrK6v/vL9/r5Wl5R4tLS1W9hoR1O3dZxVe79w4OTIy0n/r1q0rjx49Ounk5FSgo6NDDizDD0WB5ubm8wYGBsGkON0EYXBwcDAtLU0/IiKim2KzKCZEASQI0+CSk/BevHjxSEFBQZPOQn8zJNnYpaioaKOrqysn3p0X4loVOHRubq63h4dHBnkdW+DKryuQ+9dlZWWBjo6OKXRjoN7bAiRZiI2NVV29erXpwoULd61YscJPXV39H+djiPJtCDLfY2Njo4ODgw/a29vzmpqa4iIiIirw7MmHV3FqaqqOs7Nz2dKlS7Xorndif/ny5fOysrJ78dYXXUV26yFBeI/n8+fPH6moqGizkSBcv37dfdOmTTfYnTpE+5AA+RJqaGg4vnbt2kNM5rD76dPHuTk5ze5GBwAAIABJREFU1uHh4Z0QZ1+AbMa0du1adXV1dQd1dfXdGhoabouXLNGQkhT4hRNWOvfm1QXy/y9fvhzu6+u7/eDBg9S2traM9evXN+Pe+LepU1NTv7d9+/a/MEnGyTHV2dnZnn5+fvmsTCaCMBZAgvAewnv37lWsXLnSmsmXCwk9OTnJy8vLC922bds5xrOFAJQFkpKSVjg5ORWqq6uvojOHb2yt/FVXV9e/zMWTGyljiUlBktQlJiau0dDQ8Fy1apX/4sWLrRctWrSY3z1RXlkg64G86trd3V3a09OT0N7efiU0NPQBdkh99ZyOZEdHx3UdHZ2NdH/XyBw/e/bsQV1dnSH2PhCTX0gJCQkkCO+Zi8bGxgxDQ8PtTB+kIh8sqampXwQGBv5YfKZ9/vckJydn36ZNm6Ilyd7KNE4l5CcIhYWFrq6urrj6M8tLhsfjSZ8/f95kyZIleywsLHYoKyuvkZeXX0hnLtnoOn898GP19/c/vXPnTt74+PjZ+/fvV4aEhJCTJifZaGuuxbh48aLhRheXcsWFC1Xozg+5vXDp0qU/e3t7Y9dZMVoASBDeMxkFBQXJzs7OAUzninywZGZm/u+OHTt+wDQW6lMTIH/RtLe3p+jq6vpRq/HtUuQD6+nTp51paWkmeAOFriI79cgzQeeTz9uqqagdsrS03LZo0aJlb27EQ/cVVnZ6JyHR09PztKamJoPH40V3dnZW37179yWXHmhNSkr6r8DAwJ/T9SS/ayMjI0PZ2dlOQUFBtXTjoB77AkgQ3mOamJj4o8DAwC/oZsT8sOTD68aNG+d4PF44HrxhfwFPFzErK2uNnZ1dqaqqqhrdFsmHVnJy8h+DgoL+Dedo0FVktx5J/EpKSuS7urocFBUVP3J2dvaVI1cVXj+vQOfyNhs9JGuF/PB4vKnnz593Xb169cKiRYuOlZeXN833ROHo0aMyhw8fbtTW1tana0k+I7u6uqq1tLQ24HeNrqJw6iFBeI9rXFzckdDQ0K/YSBDqGxrqb1VX20dERAwLZxoR9U2Bixcv/runl9dvpGlsrcyPMzo6OlpeXm7l4uJyG7riJ0AOVXvw4AF5E8JRQUFhn5GRkbuioqLKu0mCKJIG8oU3Njb2oqenp626ujpJQkLi/Pbt25vn45dfbm6upYuLS5mcnJws3VVCvMh26D4+PrQPeKLbNup9WAAJwnt8jh8/vmffvn2nZWVlX23qQveH/HVx79691ps3b1oFBwdjH3i6kBTrkcvRjzo7S7S/OXWRYq1vF3v06FFza2urGa760CactYoNDQ2ydXV1Onp6eh6LFi0KXrVqlYOcnJwi0+Se6QBeP7fAGxwcfN7X11fd0NCQKC8vn+nh4fF4PiQL5HctIyPjrz4+Pt9lYv38+fOeq1evOgYFBbUyNUd9dgWQILzH89y5c4be3t4VSkpKyky+aEj4np6eruTkZPMjR470sDt9iPauQHJystmWLVuKyCZXdOaN/6Gelpb2m8DAQM6f3DjXVhg5lvrJkycm69at27F06VJfdXV1U3l5eQVRbPHMt+O/Ojk1NcUjJ0329PTkk2dkeDxegbe399O5Zszvb0JCgqqHh0fTkiVLltFJEPgu9+7du6irq7sDb4SI30pAgvCeOcnMzNRzcnKqUlFR+dZlS0GnkdybjIqK0j98+DC26hUUT7Dykunp6b/39vb+EfnAopMgkCs+w8PDffn5+TZ+fn44LEYwf7EqXVlZubClpcXGxMRk9/Lly7cuWrRopays7AI6X2ZsDYz/pUg+Ezo7O+90d3dndnd3p0pLS9du2bJlTm3HfuPGDU9nZ+dLxIbu7xpJmnJzc/f5+PjEsWWMOOwJIEF4j2VDQ4OqhobGLVVVVR06i//dsOfPn9ffs2dPG3tTh0jvCiQkJMi6uLg0qaur6zL50Hrw4MH11atXu0F4/gg0NDQoVVVVbbawsDiop6dnr6CgsERaWprR7UM6Ou9u80xi8Hi8yfb29uaOjo5zk5OTqSMjI22+vr4v6MSfrToJCQnS2traJx0cHPbT3Z/i9cOJHRUVFQ5+fn6PZ6vvaIe6ABKED1j19PTUqaqqmrGRIBQWFtpv3LixjPrUoKSgArm5udZubm5FCxYsoP3A1OTkpERKSsr3du3a9X+Cto/yc0Ogurp6cV1dna+ZmdkRMzMza2lpabJeXj2wIqqrC/w3IUi+0NzcXF9XV3dSV1c3ISsrq1sc34Q4deqUTmBgYLWKispSurNOxtzU1PSVqanpx3RjoJ5wBZAgfMD34cOHtcuXLzdnYwpKS0v3ODg4nGcjFmJ8W4D8RSMnJ3fM19f3IJOErqenp7O2ttZm06ZNj+A8vwXIFaclS5Zojo+P71i9evVBQ0NDCyZbBTPRen1g1KsE5fX/T01MTAzfvn37cl9f3w82bdp0n0l8tuuWlZWF2NranmUYl3fx4sVt27dvz2EYB9WFJIAE4QOwTU1NZwwNDUOZfOHww5NfKHt7e2y3LKSFfObMmSVeXl6tS5YsWUpnvviXftva2hL19fV3z4enzIVEPS/D5uTkKE5NTa1RVVXdvmzZsl0rV640l5KSenULQpQbMb3e4rn7ypUrhwMDAzPEYV2St0Z4PN6FtWvX+tL5XeMvoHv37jU2Nzc7e3l5PZuXi2oeDAoJwgcmsba+/pjZ2rUfMfkl4IcvKSv73NHe/rfzYM2I5RDy8/O9XF1ds+l+mJN65OTNS5cu7fb19b0gloNEp2ZFICUlZbGMjIzl6tWr/RcvWeyjraW9RorBnhpMO00uxT9//vxpdXW165YtWxqZxmNaPzY21iwgIKBwIYOtlUkfysrKfmVnZ/dLcUh6mJrM1/pIED4ws9evX/+di4vLT9iY/JKSklhHR8d9bMRCjLcFyKY5cnJypxwcHMLp2pAEgTxVXl9f7+Tp6Ymz6OlCzqN6ZOfGa9euLe3t7XU1NzcPUlNTc1FRUSFHwEu9+UcDG39AUGGrqqo6MTAw8F1R781RWVn5Qysrqz+QPtMZO0l4pqamJq9cuWLr5eVVRWXsKCMaASQIH3BPTEzcFRQUlMDG1FRXV8dZWVlFsBELMd4WiI+P19m6dWu1qqoq7QemSIJQX1//pYWFxWfwhcB0AqmpqTo8Hs/f0tJyl6qqqrmSktJiuk/w0xF+9vz5s4uZmdYREREie126tbVVTlZW9sqKFSucyBjoPNRJfteamppu1dfXb8TmcXRWwuzVQYLwAevo6OjA8PDwJDbehmpqairp6OjY4unpie2WWV7fxcXF5PmOs3T+muF3hdxeuHjxorufnx9ObmR5fuZbOHJlITs7W6+/v3/vxo0bdy9btkxPRkZGlpwcSvevaipG5C/vpKQku+Dg4HIq5YVRJjY21nnXrl055GRNuvHJ3geXLl36gY+Pz5/pxkC92RFAgvAB5zNnzmzw9/e/tnDhQiWm0/HgwYN7paWlG4KDg/FADlPMN+qTY4Fv376dZGxs7Efnrxl+qLa2tob29nanubZZDYuUCEVDgLw9o6ysbDw6Onpgg7X1Hi1NTW0m6/BDXSAJQnp6ul1AQIDIEoSqqqo/W1pafsIkGZ+YmJgoLy/Xd3JyEqs3M2hM/7yvggThA1OclJS0wsPDo2rx4sXLmK6EJ0+e3L9x4wY5jwEJAlPMN+qfPn16ra+vb7GSkhKts+jJhy75sCstLf2Fo6Pjr1jsGkJxSICcS5CYmLhIY/nydRITE6EmJiZkq2fyvMKrqwr8rZ6ZfLGSv7zj4+Pt9u7dWyEKWrLZlJqaWtWyZcsMmIyjpqamvKWlhdxeGBPFONAmdQEkCB+wys3N1bawsKjS0NDQoE46fUly3vm5c+dsIiMjm5jGQv1/CpSXl/9ww4YNrx6YovOXG/+BKbLJko+Pzy3YQoCpwNGjR6VWrVqlvmbNGjtVVdVgTU3NTUuWLHn1GUJnjfL78+jRo7vFxcX2wcHBIjm/ISYmxm/Pnj0JZCMyugnCxMTEZEJSwoGwPWGxTJ1RX/gCSBA+YEze91VWVi5YsWKFLdOpIF9Ep0+fttu3b5/ILg8yHYO41ScPTMnIyOStWrVqI90PLDIvzc3N1fX19S54YErcZnju9+f1lYVVWlpa3tra2v5qamq25AA4/oZIVNYtf4+OkpKSnzs6Ov5aVK8FVldXJ1tYWATQfTCTjGNoaKj7yZMnBgYGBgNzf3bn/wiQIMwwx/fu3ctftWoV4335yS9Henq6k7+/f/H8X1azM8LTp0/b+Pv7X1FUVFxEt8XJyUleTk7Opz4+Pn+hGwP1IEBFgDyvICEhsVZdXT3A0NDQX0VFxVBeXl5xpisLZPvvO3fuXL19+3ZwYGBgL5W22C5TWVmpYmho2KqkpLSMSlLzbvuvT0mVqK2tTVm/fn0g2/1DPOEIIEGYwbW5pSXD0MBgO9PjYkn90tLSI46OjseFM5Xci1paWvqFra3tj+h8YPG1xsbGxiorKw3xwBT31o8oR1xZWbmgpaXFTltbO2LdunVeioqKGtOdITIxMTHe0tJyo6+vL9TJyUlk+3PExsbu37Nnz0lywBWd2yTk829sbGz8/Pnzu/bt25cmSnu0TV0ACcIMVo2Njf9pZGT0C1KMyRcR+QW5desW2WDkT9SnByXfJ0BuL6ioqNxSU1MzZjIvtbW1ZePj4xutra3HoQ0BUQiQZIFsOayhofGJubm53RJVVbXhoaHh9vb2mtu3b/8tLCwsSVS3FYgHObPC0NCwcN26dTZ0fcjn39OnT+9MTk6u09bWFuuTKumOcT7WQ4Iww6xWV1f/ct26dUfZSBDq6+t/amFh8bv5uJBme0wxMTGbg4ODM+Tk5OTpJgiTk5OTZ8+ePRQREfH1bPcf7UHgXQFyC0JBQUHu8ePHC5YsWTL5/Pnz0SNHjog8cb1y5coqZ2fnVllZ2QV0Z+31H0h/tbKy+oRuDNSbfQEkCDOYX7l2LdJt48ZTdB/M4YcnvyCNjY0XTE1Nd83+NM+/FsvKy0/bWFuH0U0OyMOJL1++7GlqatK3trbun39CGBEE2BHIyMj4zMfH5w/8VzYFicp/wPLly5cv0tLSPENDQwsFqY+yohVAgjCDf2JioltgYGA+GwnCnTt3sgwNDX1EO+Vzv/XKysqFa9asaVVRUdGmkyDwP7Ru1dSkW61f7zf3RTACCAhHIC0tbZGRkVGhgYGBBZ1nD0ivyO9bR0dH0fj4+CYDA4NR4fQUUYUhgARhBtXo6OiN4eHh16TIcW7f7HlC64f8kty7d++6rq7uFklJSZFfNqQ1CDGpFBcX50/ex5aRkaF1yZP/wFRycnJIaGhokpgMC92AgNgJ5OXlrffw8KjgH30taAfJlTryU11d/e/W1tb/I2h9lBetABKEGfzPnDmzysfHp1xZWVmdSYJAflE6Ozsf3bx5c4Ofn98T0U773G2dnNwoLy+fZW9vv4XuKPgPTPX09Kw3NTUdohsH9SAwnwXImRNlZWX/aWdn93O64yS/a4ODg/0XL150Cg0NbaAbB/VEI4AEYQb3hISEZc7OzlWampormCQI5Belp6ens6KiwsrHx6dLNNM991vNyclRd3d3v79gwQJ5uqMhc1FbW3vc0tLyCN0YqAeB+S6QkJCgamNjU7x69WojumMlv2u3b9/OMDU1DZSUlJygGwf1RCOABGEG90uXLqkaGxuX6ejo6NO9B0eaIFcQBgcHn+fm5joEBwc3i2a6536raWlpB3x8fMj72LTv97x8+fJlamrqVjwwNffXA0YgPIHs7GzPrVu3ZpO7q3RbIZ975eXlux0cHBLoxkA90QkgQZjBnlxma2lpSTIwMHi1xSjdH5JJk8NWvv76a+9Dhw5dohuHab329nb5goICRw0NDT89PT0zVVVVQ0lJSbLDm1j/8B8slJKSUlZRUVFkMhcTExNTfX19PVJSUpNM4og12BzrnKS0tISsjAyjvUbm2JDFvruSkpIL5eXlVZh2dHh4uFdKSkrsD2YinzEjIyNTPT09zXfv3q158eLF6cDAwFuSkpLfPEjBwR8kCBQmvaamJtHc3DyI6ZcJWYCJiYk+u3fvzqLQLKtFyLHImZmZvuvWrft86dKl5vLy8rT3D2C1YzSCMZ0H0iQ/4aDRPKqwLEDmk+lOpSx3CeE4KsD/XJji8SSGh4YG2tvbkx8+fPjZ9u3bn3ORBAkChVmvqqr6g6Wl5Q/Z+GK6evXqdzdt2vR3Cs2yVoQkBxUVFb8yNTX9VwUFBaU3P5DxwcwaMwJBAALzRICfKJCzWtra2tIVFRVDdHR0Xs6T4VEeBhIEClTV1dWH161bd5yNBOHmzZt/tLa2/hGFZlkpQk6Ty83N/dzNze2XMjIyMkz3c2ClUwgCAQhAYA4IkERhfHx8IjEx8dDevXtj5kCXWe0iEgQKnGVlZQdtbGxOspEgNDY2frl27drPKDTLSpHCwsKV1tbWjXJycgv5WTEb42ClcwgCAQhAQIwF+J+ZpaWluQ4ODl6iPBNDFExIECio5+Xl2W/atKmEjS/Wtra2bH19fW8KzbJSJCsra/fWrVvjmTz1z0pHEAQCEIDAHBUoKi7OcnJ03I4EYY5OoDC7HRsbaxYeHl7HRhsPHz4s19HRsWMjFpUYaWlpf9y+fftnTF7RpNIOykAAAhCYrwKnT5/+cXh4+BfzdXzvGxeuIFCY8RMnTphERkbWSktLy1Ao/sEiXV1dFZqamnazkYk2NDTIDg0NZdjY2Gxl4+oH07GjPgQgAIG5JEBuMUxOTk7FxMQcOXTo0Mm51Hc2+ooEgYJiTEzMUk9PzyoNDY2VFIp/sMiTJ08e1dfXb9i8ebPQt1tOSEhQ2rBhQ/Xq1asZbfLEdMyoDwEIQGAuCpAEgZxEefHiRfvg4GBWriLPJQckCBRmKyEhQcXW1vbmqlWr1lAo/sEiz58/f1ZSUkK2W77PNNZM9U+cOLFi7969TfLy8oozlcW/QwACEIDA2wKvz5IYqKqqWufu7n6Paz5IECjMODleWE5O7rKZmZkDheIfLDIwMNCXnZ1tt2fPnhamsWaqn5ycbBIQEHB7pnL4dwhAAAIQ+LYASRD6+/vvL1682ICLp/AiQaD4W1FQUHDc2dn5MMXi7y02NjbGi4mJCf3oo4/OMY01U/3S0tKddnZ2F2Yqh3+HAAQgAIHpE4QnT540a2lpGXPRBwkCxVm/fPnyV5s2bWJ8+h85vCQhISEiJCQkjmLTtIuVl5d/bGNj83+0A6AiBCAAAQ4LkM/r1tbWC8bGxru4yIAEgeKsX7169RNXV9c/M92JkFyySklJ+WTnzp1/pdg07WKlpaXRdnZ2+2kHQEUIQAACHBYgCUJlZWWcnZ1dBBcZkCBQnPWCggJfJyendKavC5IFV1ZWFufo6CjUBVdcXKygoqJyae3atS4Uh4hiEIAABCDwhgD5vE5JSfk4KCjoKy7CIEGgOOtFRUVbHRwccsgVACabDpEF19jYGG9mZhZKsWlaxRISElSdnJyqtLW1V9EKgEoQgAAEOC4wMTHBi4uLCztw4EA8FymQIFCc9fz8fGNXV9dGNhKE9vb2HH19fS+KTdMq9vXXX5vu2bOnQk5OToFWAFSCAAQgwHGBoaGh/oyMDKfQ0NAGLlIgQaA469HR0ZoRERGdpDjTKwhPnz5t09TU1KfYNK1iGRkZzt7e3gVM+kqrYVSCAAQgME8Eenp6eqqqqqw8PT0fzJMhCTQMJAgUuf7+97+rHzp06KG0tPQCJs8hkFsMAwMDd5csWcJ406UPdf3mzZufrl+//ksmfaVIg2IQgAAE5qVAd3d3lbq6uq2kpOTkvBzgDINCgkBx1mNjYxVdXV3rdHR0dJl86ZIEob+/v+vhw4drLSwsnlNsXuBiNTU1vzY3N/+cSV8FbhQVIAABCMwjgYcPH5bq6Ogw3iBvrpIgQaA4c/n5+fIaGhpVRkZGJkwu27/eunOopKRkvZeX1x2KzQtcrKWlJUNfX58cTypwXVSAAAQgAAEJsgfCV4aGhh9z1QIJAsWZJycj9vX1XXZwcNjI5Ev39eEfw5cvX97g5+fXTLF5gYrl5eWpGBoaFuno6Jgy6atAjaIwBCAAgXkmUFVV9fsNGzb8ZJ4Ni/JwkCBQpOLxeJLJyclfBAQE/JDJly5JEMbGxsbPnDkTdPDgwXSKzQtULCkpaYWrq2ulqqqqBpO+CtQoCkMAAhCYZwI5OTm7vby8EubZsCgPBwkCZSoJidOnT/8qNDT0Z0y+dEmCwJOQkPg6OvoHBw8e/F8Bmqdc9NSpUx5hYWE5CxYskGHSV8oNoiAEIACBeSRAPqenpqZ4sbGx2w4cOJAzj4Ym0FCQIAjAdebMmYO7d+8+Li0tLSVAtWmLnj59+ofh4eF/YhpnuvppaWm7duzYwdmsVximiAkBCHBH4PUpjj15eXm2wcHB7dwZ+dsjRYIgwMwnJSVZ+fr6li5YsGCBANWmLZqdk3N2m6fnXklJSXJBgdWf6urqLywtLX/EalAEgwAEIMARAfK22dOnTztv3rxp5ePj08WRYX9rmEgQBJj53NxcS1dX13JZWVnGCUJNTc211NTUTUePHp0SoAuUira2tibo6+tz8vQxSkAoBAEIQOADAiRB6OjouNbb27vV2tp6nKtYSBAEmPny8nLNdevW3ZGVlVUUoNq0RVtaWori4+NdhJEgdHZ2lmlqatoy7SPqQwACEOCiwOTkJHnFMcPExGQHF8fPHzMSBAFmPyEhQXbHjh3dcnJyKgJUm7ZoZ1fX/ePHjukfPXp0gmmsN+tfLi3VsNDTu7ls2bLlbMZFLAhAAAJcESDPINy+ffu/zczMfs6VMU83TiQIAsz+sWPHFoSEhHQuWrRoqQDVpi06NjbW9/XXX6sfOXKE1ctXcXFxRn5+fqWLFi1azLSPqA8BCECAiwIkQaiurv7Bhg0bhPKm2VwxRYIgwEzxeDyptra28jVr1mwQoNq0RUdGRweqq6o0HR0dXzKN9Wb9U6dOhYSHh5+RkZHBFopswiIWBCDAGQGSIOTl5W319PTM48ygpxkoEgQBZv/o0aNSO3fuvGpmZuYqQLVpi46Ojo5WVlauc3Z2ZnU3xdTU1B/5+vp+wWQ7aKZjQ30IQAACc1mAJAgxMTG2kZGRFXN5HEz7jgRBAEGym+LVq1eTPDw8AgSoNm3R8fHx8WvXrtlu3br1FtNYb9avqa09Y2ZqGooEgU1VxIIABLgk0NfX9yQ9PX3Dvn37HnFp3O+OFQmCgLMfHx//+e7du39NqjHZpXB8fHwiMzPTPTAwsFDALnyweEdHR+mKFSvsmPSNzf4gFgQgAIG5JtDR0XG/rKzMKjg4+Nlc6zub/UWCIKBmVFTUp/v37/+SfAEz+RIm23iePn36R/v27WNtN0VyC+T73//+HRUVFUZHUgtIguIQgAAE5pVAXV1d1tjYmD+X90AgE4oEQcBlHR0d7R8SEpJANktimCBIxMfH/3rv3r0/E7AL7y2ek5OjY29vX6OkpLQEtxjYUkUcCECAawIlJSWxjo6O+7g2btxiYDjjycnJhp6enlUKCgqKTBIE8hBMSkrK3wIDAz9ha7vl2NhY66CgoBvy8vIKTPrGkAjVIQABCMxpgdLS0p84ODj8fk4PgoXO4wqCgIhZWVlrnJycbi1atEiJyZcwSRAqb94s73n61MXb23tUwG5MWzwqKupf9+/f/xdcPWBDEzEgAAGuCpSWlu5xcHA4z9Xx88eNBEHAFdDV1aUoJyfXrKKispxJgkD2+m5ubm4kD8JERkaOCNiN6YpLpqSk/MnPz+9T8o9M+sZCXxACAhCAwJwVuH79uqObm1vJnB0ASx1HgkAD8vnz520qKip6TL6EyRWE+/fvtxUUFKyLiIgYptGNt6qQBxQDAgOvWpibM96jgWlfUB8CEIDAXBQgf7iRz/X4+Pg1YWFhd+fiGNjsMxIEGpqPHj1q0NTUXMvkUj5ZiGNjYyPx8fErDxw48JRGN95NEGS+853vtGpoaKxmGgv1IQABCHBVoL+/vzcxMdH08OHDT7hqwB83EgQaK6C5uTlJX18/kEmCQK4gkJ+YmBityMhIxueNFxcXK1hZWXXJyckp0xgSqkAAAhDgvAD5XL57925rVVUV2QNhiOsgSBBorICampqz5ubmIUxuMZArCOQnOzt7zfbt2xlfysrPzzd2cHC4JScnJ0djSKgCAQhAgPMCrx8ev9Lz9KkPWw+Pz2VUJAg0Zu/y5ct/cHd3/yHTKwhkMRYXF2/ZuHHjZRrdeKtKUlKS+44dO3JlZGRkmMZCfQhAAAJcFCB/uGVnZ//v9u3bf8DF8b87ZiQINFZBfHx8+O7du2OZXEHg32IoLCzc7uLicpFGN96qEhsb+59hYWG/YJK0MO0D6kMAAhCYywIkQcjMzPzcz8/vt3N5HGz1HQkCDcmTJ0+G79+/P1ZaWppG7W+q8BOEgoKCMFdX17O0A30TSzorK+uUl5dXBBIEJpKoCwEIcFlgampqKjc3d9O2bduucdmBP3YkCDRWQXR0tE1QUNBVJSUlJRrV36qSm5v7paen52dM4kRHR8vb2dlVGBkZmSFBYCKJuhCAAJcFJiYnp4oKC+3d3Nw4fcwzEgQGvwUXL15c5ejoWLV48WJVBmFeVb127doxd3f37zCJc+bMmSXbtm27Q/rD5LYHkz6gLgQgAIG5LjA5OTmenp6uFRgY2DvXx8JG/3EFgYZiVlbWCmtr65vLli1Tp1H9rSrl5eVn79+/HxEcHDxJN1ZMTMzyvXv3PiT1cQWBriLqQQACXBcYfvly8Hx8/PKDBw8Oct2CjB8JAo1VQO75d3Z2lmtpaVnRqP5WlaampoaWlhYHPz8/2guysLDQ2cHBoYDpEdRMx4L6EIAABOayQEtLS11NTY11cHDw2FweB1t9R4JAU/Lhw4dly5cvt6VZ/R/VOjo62srKyjYEBwf3042vjyS2AAAgAElEQVR17dq1ABcXl2RSH7cY6CqiHgQgwHWBioqKkuHhYRd3d/cJrlvgCgKDFXD37t0cXV3drQxCvKra09PzIC8vzyo0NLSHbqycnJw/b9my5RMkCHQFUQ8CEICABDmD4bchISH/ISkp+c1Wtxz/wRUEmgugsbHxT8bGxow30yCv1URFRVl89NFHDXS6Qm53lJWVnbazs9tDpz7qQAACEIDAN6+eR0VF/fjw4cNfwOMbASQINFdCZVXVHzasX/9DmtX/UY0sytOnT5tHRETU04mVlZWlbGRkVKGnp2dIpz7qQAACEICAhMT4+PhocnKy2549e0rhgQSB0RrIy8uL3Lx58ylGQV5vmHTt2jU3Dw+P63RiRUVFae/cufOWiorKMjr1UQcCEIAABCQkRkZGXhYVFVlu3ry5BR5IEBitgcTExG07d+7MYvpQILmCUFFRcdjOzu4knQ6Rqw+hoaG1TPtBp23UgQAEIDBfBIaHh3uGhoZWa2pqDs+XMTEdB24x0BSMioraum/fvmwpKSkpJl/OJEGorq4+smHDhuN0ulJUVBRkb2+fiP0P6OihDgQgAIFvBAYHBx8pKyuvgMc/BZAg0FwN8fHxOl5eXpUqKirqTBIEcjhITU3N/1hZWf07na7cunXriIWFxVdM+kCnXdSBAAQgMF8EyB9qd+7cuWZoaOg+X8bExjiQINBUJHAbNmyoUldX12Ly5UwShNra2gvr16/fRacrt27dirOwsNjLpA902kUdCEAAAvNBgCQH5L+ampp0Kysrv/kwJrbGgASBpmR+dfXi1YsXF61cuXItk8v7ZGE2NzdfMDExEThBaGhokJWSkso0MjLaggSB5kSiGgQgwGkBfoKQnp7+i4CAgF9xGuOdwSNBoLkaeDyeZFtb20VdXd1tTBKEyakpiXvt7TdHR0fdTE1NhwTpTkZGhpqVldVNLS2tlUgQBJFDWQhAAAL/FJicnJQ4e/bsRxERESfg8k8BJAgMVkNjY2OGoaHhdiYJArnF0NnZ+bC4uNgqODj4qSDdOXXq1Npdu3aVKCoqKiNBEEQOZSEAAQj8U+Dly5cvkpKStoSHhxfDBQkCK2ugvr7+f0xMTH7MNEF49uzZo+Li4g1+fn5PBOlYUlKSu7+//1Uc0iSIGspCAAIQeFugv7+/v6ysbL2np2c7bJAgsLIGbt269Zm5ufkfmSQIpCOjo6MjZ86c2Xjw4MFKQTpWWlr6qY2NzZdIEARRQ1kIQAAC/xQgzyD09va2TU5OrsMeCG+vDNxiYPCbUlpa+n1bW9v/ZXJ5nyxO8hMTE+MeGRl5TZDuNDQ0/MbExOSnJAbTJEWQdlEWAhCAwHwS6O7urtfQ0DCfT2NiYyxIEBgoXrx40WXbtm3XmSYI5As+MzNzq5+fX54g3Wlra8vT1dXdTOow6YMgbaIsBCAAgfkm0NrammJoaBg438bFdDxIEBgIxsTE2O7du7eMyV/v/FdsKioqfmRvb/9Hqt15/PjxwqmpqeLly5evo1oH5SAAAQhA4G0B8hlcX19/zMLC4juweVsACQKDFfHVV1+tjYiIqFBQUFhINww/Qaivrz+6bt26/6QaJysra4WNjU2VmpoaDmmiioZyEIAABN4RIJ/Bubm5n3p5ef0ZOEgQWFsDMTExS7du3Vqlqam5km5QfoLQ3Nz8+7Vr1/6Eapyvv/7aZffu3Tny8vLyVOugHAQgAAEIvC1AXjU/d+7czrCwsGTYIEFgbQ0kJCSo2tnZ3Vy5cuVqukH5Dym2tbXlGhgYeFKNk5iYuGfnzp3xePaAqhjKQQACEPi2wNDQ0GBiYqLbgQMHquCDBIG1NdDe3i4/PDycbWpq6kY3KEkQyJf8gwcPrq1cuZLyQSHFxcV/s7e3/x4SBLryqAcBCEBAQqKnt7e7tqbGatOmTY/ggQSB1TVQUVERa21tHU43KP8KwqNHj8oGBgZcTE1Nx6jEampqSjA0NNyFBIGKFspAAAIQmF7g4cOHtQMDA06CbnXPBU88pMhwlgsLC6OdnJz2Mwwj8eTJkye1tbVWW7dufUwlVldXV426uroFEgQqWigDAQhA4G0B/h9n9+/fv6arq0v56i2XHJEgMJzt4uLi7zk4OPyNYRiJ5319T0tLSqy8vb0fzhSruLhY1cDA4JaamprOTGXx7xCAAAQgML0ASRJaWlpOGhsbH4bRtwWQIDBcFaWlpXvs7OziGYaRGB4eHkxISKD0oExGRoaBi4tLpbKysjLTdlEfAhCAABcF6L5iziUrJAgMZ7uoqMjP0dExlWEYCXLcaExMTNDBgweTZooVFRUVvHfv3jMLFiyQwS2GmbTw7xCAAAS+LUBebyQ/169f3+fh4RELI1xBYH0NpKWlGe3YsaOJjcBJSUlBQUFBMyYI586d+zQ4OPjVIU34gQAEIAABwQXIFYQpHk8i4fx5t9DQ0OuCR5j/NXAFgeEcnzp1Si8yMrKNYZhX1XNzcz/39PT87UyxKioqUq2srPyYbPE8Uxv4dwhAAALzWYBcQXjx4kXfhQsXHCIjI1n5I2++eSFBYDijUVFR2sHBwY1KSkqMngcg2Wx1dfWxDRs2zLgf+J07d4r09PQccQWB4eShOgQgwFkBclu3u7v7YWFhoVVwcPBTzkJ8YOBIEBiuiqioqEWbN2+uXrly5RqGoSSamppOmJiYfDRTnIGBgUdKSkraSBBmksK/QwACEJhegFxBuHv3btndu3c3eXp6DsPp2wJIEBiuipycHMVVq1bdNDQ0NGLyhU2uILTfu1e0Rk/P+UNdqqqqWmZoaNiiqKi4mGHXUR0CEIAAZwXIZ+7t27cvmJmZ7eIswgwDR4LAcGVUVlYuGBsbS7K3t/dlmiB0P31ar6mhYf6hLiUnJ6/z8fEplZWVxSFNDOcO1SEAAe4KkAShpqbmi/Xr1/+YuwofHjkSBBZWRlZW1pdeXl6fMkkQSDd6enoa1NTUyO6I37x/M83PiRMnvnfgwIG/SOEJRRZmDiEgAAEuC1RVVX20YcOGE1w2+NDYkSCwsDKSk5O/CAgI+BGTUCSbffbsWW9DQ8N6V1fXB++LdebMmf8KDQ39OZO2UBcCEIAA1wXIZ25JSYm/k5NTGtct3jd+JAgsrIysrKzdnp6e8VJSUow2JhgYHOwvuHHDavv27Xen69axY8cW2NjYFK5fv96WhW4jBAQgAAHOCpAE4ezZsxZ79+6t4yzCDANHgsDCyrhy5YqLm5tbPpPL/mSxvnjxYjA1NdXpfQs2Ojpa3s3NrX716tWM35hgYdgIAQEIQGDOCpDt7ePj49cdPny4fc4OQsgdR4LAAvCNGzdsHR0dS6SlpaXohiMJwsTExFRMTEzk4cOHp93289ixYyoHDhx4IiMjI0e3HdSDAAQgAAEJiQcPHtwtLS0leyD0w2N6ASQILKyMy5cva7i5uT2UlpaWoRuOf3DI2bNnvxMeHn5sujhXr141cnFxaZCWlpam2w7qQQACEICAhER9fX3p6OjoJmtr6xfwQIIgtDVA/rI/ePDgU2lp6QV0G+EnCCkpKT8NCgr63XRxLl++7O7q6npZRkaG9pUKuv1DPQhAAALzSaCgoOCEi4vLjBvTzacxCzoWXEEQVGya8gkJCUqenp4dysrKS5iEI0lCcXFxkrOzc9B0cVJTU3/i6+v7O7zhyEQZdSEAAS4L8E9xzM/P/83mzZv/g8sWM40dCcJMQhT+PSEhQdbS0rLCwMDAgkLx9xYhCUJzc3OmiYmJ73SFMjMz/+rt7f0vTPdbYNJH1IUABCAwlwXI5yz5KSoq2rFx48aMuTwWYfcdCQILwuT1QwcHh1Jzc3MrJuFebbfc3l68Zs0ap3fjZGRkLNTV1S1cu3bteiQITJRRFwIQ4LIA/3ZuSUmJh7Ozcz6XLWYaOxKEmYQo/HtCQoL04sWLz23ZsmXaWwMUQrwqQhZuX1/fI1VV1RXv1klJSVlsZ2dXo6mpuRIJAlVRlIMABCDwtgA/QcjIyFjp7+//3k3p4CYhgQSBpVUQExPz84iIiP9iGm54eLhLSUlJ6904J06c0D1w4ECrlJQU3mBgioz6EIAAZwVIgjA2NjYWHR2t8/HHH3dzFoLCwJEgUECiUuTkyZM/PnDgwP8w/et+eHj4+d27d9dYWFg8f7Pdq1ev2rm7u5dS6QvKQAACEIDA+wXa29vbCwsLzSMiInDM8wcWChIEln6L4uLivHbv3p2+YMEC2q86kq6MjIyM3LhxY72np2fTm10rLi4OcXBwOMtSdxEGAhCAACcFyFsMtXV1tzofP7b39vYe5SQCxUEjQaAINVOxjIwM4y1btlTLyckxOoZ5bGxsJCUlxWrPnj2Nb7ZZUlLya3t7+89n6gf+HQIQgAAE3i9AbjGkpKT8NTAw8PuSkpLfvNKAn2kFkCCwtDDS0tKMSIKgoKCgwCTk+Pj4xNmzZ3fu378//c04FRUVMdbW1hFMYqMuBCAAAa4LkCsI5FTciIiIX3LdYqbxI0GYSYjiv/N4PPkXL150LFy4cBnFKtMWI9ltVFTUTw8fPvyP3RSzsrKUDQwNi/XXrDFlEht1IQABCHBdYGJiYiI1NXXHrl27srluMdP4kSDMJCTAvw8PDz9euHDht95AECDEq6JxcXG/fPONiLi4OC0vL6+bampqjGML2heUhwAEIDCfBMbGxsbz8/NtvLy8aubTuIQxFiQILKp2dnY2a2hoGDJ9kyE7O/v80NBQWHBw8CTpXlRUlPX+/fvLmBwnzeIwEQoCEIDAnBUYGRkZbmhoWG1tbd0zZwcxSx1HgsAidFNTU7ahoaEX0wShtra2qrS01P7IkSPjpHv5+fnbXVxcMnAGA4uThVAQgAAnBV6+fNkXFxenzv985SQCxUEjQaAIRaXYzerqDEsLi+1Mv8hbWlpqBgcHbaytrV8lCFVVVT+0tLT8A9PEg8oYUAYCEIDAfBbo6Oi4XVZWZsG/Qjufx8p0bEgQmAq+UT89Pf3L7du3f8r0i7y7u/tpTk6OLn8Tj/r6+q9NTEz2MU08WBwqQkEAAhCYkwK3b9++npiY6HH06NGpOTmAWew0EgQWsePj47+ze/fuvzNNECYmJ8dPRUUtO3LkSD+Px5Nsa2vL1tPT82Qal8WhIhQEIACBOSXAP8UxMzPzmK+v78fYA2Hm6UOCMLMR5RKnTp2KjIiIiJKWlpakXGmagpOTk+Pp6elagYGBvVlZWcvMzc0rtLW1V+EKAhNV1IUABLgswE8QYmNjP9u/f/+XXLagOnYkCFSlKJSLi4uzCgwMvKGgoKDI5K/9ycnJyfLy8vWOjo510dHRxoGBgcWLFi1awiQmhe6jCAQgAIF5K0AShNHR0bEzZ84EHjp06OK8HSiLA0OCwCJmZmam3saNG6uUlZVVmISdmpqaKigocHNzcys4ffr0tpCQkItSUlKMrkow6Q/qQgACEJjrAmQHxZGRkaGrV69a+fr6ts718cxG/5EgsKicn5+/wszMrHrp0qVqTP7a5/F4U5cvX966devWK1euXPnY3d39/5jEY3GICAUBCEBgTgqQKwgDAwNPGxoazJycnHDMM4VZRIJAAYlqER6PJ9Xb21u7dOlSRlsiT01N8dLT0/8tICDgjw0NDX9cu3btZ1T7gHIQgAAEIPBtAZIgDA4OtqmoqOjDh5oAEgRqTpRLdXZ21mloaJgx+YufLGTyyqS/v/9n7e3t11avXu1KuQMoCAEIQAAC3xIgn6sdHR3Fq1evdgIPNQEkCNScKJdqa2vL09PT20y5wjQFyb2yvMuX/+65deunjx8/LtfW1l7HJB7qQgACEOC6APlcbWxsPGdmZhbCdQuq40eCQFWKYrnGxsbjxsbGhykWn7YYyXRv3rx5fWho6JCZmVmJmpqaGpN4qAsBCECA6wIkQbh69eoXW7Zs+THXLaiOHwkCVSmK5SoqKv5ubW39HYrFpy1GFnLrnTstlRUV3w0ICEhbuHChIpN4qAsBCECA6wLkc/XcuXMRYWFhcVy3oDp+JAhUpSiWy8rK+hcvL6+/MnkGgSzkhw8ftl2/fv3LsLCwv2GDJIr4KAYBCEDgPQJkD4S4uLiAw4cPZwGJmgASBGpOlEudP39+565duy4wSRBIYyMjI4OXL1/O8vb23o0EgTI/CkIAAhCYVqC/v/9ZUVGRlY+Pz30QURNAgkDNiXKp48eP74iMjEyRkZGRolzpPQXLysoabW1tTZgmG0z7gfoQgAAE5rpAV1fXg7t371pjDwTqM4kEgboVpZLx8fGrvb29K5SVlRk/WNjb28tTVVWVRIJAiR6FIAABCLxX4FFnZ8UKbW07CQkJHpioCSBBoOZEudSVK1eWW1hYVKmpqalTrvSegvzDRZAgMJVEfQhAgOsCbW1tWfr6+j5cdxBk/EgQBNGiUDY/P3+xgYFB6fLly40oFP9gEZIgIDlgqoj6EIAABCQkGhoavjQzM8OutAIsBiQIAmBRLfrgwYP8FStWuFEtj3IQgAAEICBcgRs3bvzM1dX118JtZX5FR4IghPlsbW29smbNGg/89S8EXISEAAQgQEPgwoUL3rt27cqmUZWzVZAgCGHqGxsb/2RkZPQDcosArygKARghIQABCFAUIPvKjI+Pj8XHx2+OjIwsoFgNxSQkJJAgCGEZ1NXV/dLU1PQoCY2rCEIARkgIQAACFAXIH2o9PT1dBQUFVjt37uykWA3FkCAIZw0Ul5X9m4Ot7e/xkKFwfBEVAhCAAFWB16c4Ng8MDDhYWFg8p1oP5XAFQShrIC0tbYuvr28uriAIhRdBIQABCFAWIAnC3bt3s/X19b0pV0LBVwK4xSCEhRAdHe0WERGRT24v4BaDEIAREgIQgABFAfIMQlNTU5ypqWkExSoo9loACYIQlkJUVNS6PSEhRQry8opIEIQAjJAQgAAEKAqQKwj19fU/tLCw+BPFKiiGBEF4ayAhIWGZu7s72U1xhfBaQWQIQAACEJhJgCQIZWVlHzs4OHw1U1n8+9sCuIIghBVBEgQHB4cqbW3tFXjNUQjACAkBCECAogBJENLS0uwCAgLKKVZBMVxBEN4ayM/Pl9HU1Mw0NDT0RIIgPGdEhgAEIDCTwNjY2GhsbKzt4cOHa2cqi3/HFYRZWQP19fWJa9euDcIzCLPCjUYgAAEITCvQ1dXVUVJSYhUYGNgLIsEEcItBMC/KpauqqmIsLS0jkCBQJkNBCEAAAqwLtLW11bW0tDh7e3sPsB58ngdEgiCkCb5169a/WlhY/AUJgpCAERYCEIAABYGqqqozVlZW4ZKSkjwKxVHkDQEkCEJaDuXl5Yetra2PI0EQEjDCQgACEKAgUFRUdMzZ2fk7FIqiyDsCSBCEtCRKSkoC7ezskpAgCAkYYSEAAQhQECgrK4uwt7ePo1AURZAgzM4aSEhIMA8KCqpFgjA73mgFAhCAwHQCpaWlOx0cHJKhI7gAriAIbkapxsmTJ80OHjxIXquRpFQBhSAAAQhAgHWBzMxME19f3ybWA3MgIBIEIU1yVFSU9s6dO6tVVFTUhdQEwkIAAhCAwAcEJicnx0+cOGH48ccf3wOU4AJIEAQ3o1QjISFBxc7OrmrlypV6lCqgEAQgAAEIsCZAdlDs7Oy8n5ubaxkZGdnHWmAOBUKCIKTJTktLW2RsbFxmaGhoIqQmEBYCEIAABD4g0NjYeLuystI2IiJiGFCCCyBBENyMUg0ejydVXl4ea2trG0apAgpBAAIQgABrAuSY5/z8/Nhnz54dCA4OnmQtMIcCIUEQ4mTn5+d/5ebmdkSITSA0BCAAAQhMI0AShPT09D8FBAT8EED0BJAg0HOjVCs3N/d3mzdv/gledaTEhUIQgAAEWBOYmpri5eTkhHh7e59nLSjHAiFBEOKE37hxY6ezs/MF0gSSBCFCIzQEIACBdwQmJyenrl+/7r5p06YbwKEngASBnhulWjdu3PBxdnbORIJAiQuFIAABCLAmMD4+PllUVGTs7u5+h7WgHAuEBEGIE15UVORgb29fTK4e4AqCEKERGgIQgMA7AhOTk2OnoqLUjxw50g8cegJIEOi5UaoVExOzfO/evQ9JYSkpKUp1UAgCEIAABJgLdHd3P0pNTTU8cuTIC+bRuBkBCYIQ5z06OlozIiKiE1cQhIiM0BCAAASmEWhsbKwqKCiwP3LkyDiA6AkgQaDnRqkW2U3R1dW1edmyZRq4xUCJDIUgAAEIsCJw6dKlC4ODg3uwBwJ9TiQI9O1mrJmfny+/fPnyKn19fRMkCDNyoQAEIAAB1gRiY2N/sW/fvl+xFpCDgZAgCHHSo6Oj5a2srMrMzc0tkCAIERqhIQABCLwhMDExMRkbG7vv4MGDZwBDXwAJAn27GWsmJCRIKygoRPn4+OxDgjAjFwpAAAIQYEVgbGxsJCMjwzooKKiBlYAcDYIEQcgTf+bMmV+HhIR8jgRByNAIDwEIQOC1wMuXLwcrKipMXV1dHwCFvgASBPp2lGqeOnXqZ/v37/8vSWQIlLxQCAIQgAATAXIGw4sXL7qUlJS0JSUleUxicb0uEgQhr4Dk5GQPX1/fHBkZGRkhN4XwEIAABDgvwOPxJLq7u9s0NTX1OY/BEAAJAkPAmapnZWWt9/DwKJOTk1swU1n8OwQgAAEI0BcgyQH5aWlpyTY2NvamHwk1iQASBCGvg4KCAkMbG5taOTk5OSE3hfAQgAAEOC9AkoRr167FeHh47Oc8BkMAJAgMAWeqnpOTo+jq6vpYTk5Oeaay+HcIQAACEGAmQBKEs2fP/svevXv/H7NIqI0EQchr4NixYwvCw8O7FRQUFgu5KYSHAAQgwHkBcopjbGxsxKFDh85yHoMhABIEhoAzVSd7ITg6OjYtX74cD8zMhIV/hwAEIMBAgFw9GBoaGsjNzSV7ILQyCIWqeAZB+Gvg6NGjUsHBwfkmJiYuwm8NLUAAAhDgtsCzZ896a2trLd3d3V+dpIsf+gK4gkDfjlJNkiD4+Phctra2dqdUAYUgAAEIQIC2QG9vb8PSpUvNsQcCbcJ/VESCwNxwxgjJycm/DwgI+LcZC6IABCAAAQjQFiC3GB4+fFi5cuVKG9pBUBEJwmyugdjY2E/Dw8O/nM020RYEIAABLgo0NTV9bWJiEsnFsbM9ZlxBYFt0mnjHjx8/fODAga+kpKSksOPyLICjCQhAgLMCxcXFf3ZycvqUswAsDhwJAouY7wt17ty5dTt27CiWl5dfiARhFsDRBAQgwEkBcoshJSVlz86dO89zEoDlQSNBYBl0unAZGRkGbm5uVYqKikpIEGYBHE1AAAKcFJiYmJiMiYkJOHToUAYnAVgeNBIElkGnC3flypXlVlZWtSoqKqpIEGYBHE1AAAKcFBgYGHh648YNa19f3w5OArA8aCQILINOF47H40n29/ffUVZW1kOCMAvgaAICEOCUAP+Qpu7u7s6WlpYNLi4unZwCENJgkSAICfbdsN3d3a1Lly7Vl5KSmqUW0QwEIAABbgk8evSosLi42C04OHiSWyMXzmiRIAjH9VtR29raLuvq6m7CFYRZAkczEIAAZwT4VxDutLXlGBoYeHFm4EIeKBIEIQPzw99ubDxrbGQUggRhlsDRDAQgwBkBkiCQ/5qamn5ramr6OWcGLuSBIkEQMjA/fHFxcYy9vX0EEoRZAkczEIAAZwT4CcLNmzc/t7W1/S1nBi7kgSJBEDIwP3xSUtJ3/f39/x+eQZglcDQDAQhwRmBqakqC/PGVlpa2OSAg4ApnBi7kgSJBEDIwP3xsbGx4WFhYLBKEWQJHMxCAAGcEyBWEyampqZivv3Y/dOjQDc4MXMgDRYIgZGB++JMnT/ru3bs3SU5ObsEsNYlmIAABCHBCgCQIz54968zLy7MOCQl5zIlBz8IgkSDMAjJpIikpSW/z5s2VysrKS2apSTQDAQhAgBMC5BbDo0eP2ltaWmw2b97cy4lBz8IgkSDMAjJpIi8vb+X69eurly5dqjpLTaIZCEAAApwQIFcQWlpasjo7O/3c3d0nODHoWRgkEoRZQCZNtLa2KisqKlZqaWkZzFKTaAYCEIAAJwRIgnDr1q14KyurUE4MeJYGiQRhlqBJM3fu3EnR09PzJ4sZDyvOIjyaggAE5rUAucVQV1f3r5aWln+b1wOd5cEhQZhF8PT09GBvb++zkpKS0kgQZhEeTUEAAvNagCQIlZWV++3s7GLm9UBneXBIEGYRPCMjY6GRkVH6mjVrNiFBmEV4NAUBCMxLAf4GSUNDQ0M5OTnrg4OD78zLgYpoUEgQZhk+Ly/P3NTUNFVLS0tvlptGcxCAAATmlcDk5DdnMhUXF/+iq6vrNzikid3pRYLArueM0cjRz/n5+bZGRkbRWlpaJvwK/C2YSUaM7ZhnZEQBCECAgwL8z0f+4Uzj4+OjdXV1cYODgz9wd3cf4iCJUIeMBEGovO8Pnp2dvXr16tVfrFixwktRUVGJlERyIKLJQLMQgMCcEhgdHR199uxZQ0VFxe/9/PwuSEpK4nhnIcwgEgQhoAoSMi4uzlFNTS1g1apVFsuWLTOSlpaWFaQ+ykIAAhDgggCPx5vq6+tru3fv3u0nT56kbdy48bqOjs5LLoxdVGNEgiAqebQLAQhAAAIQEGMBJAhiPDnoGgQgAAEIQEBUAkgQRCWPdiEAAQhAAAJiLIAEQYwnB12DAAQgAAEIiEoACYKo5NEuBCAAAQhAQIwFkCCI8eSgaxCAAAQgAAFRCSBBEJU82oUABCAAAQiIsQASBDGeHHQNAhCAAAQgICoBJAiikke7EIAABCAAATEWQIIgxpODrkEAAhCAAAREJYAEQVTyaBcCEIAABCAgxgJIEMR4ctA1CEAAAhCAgKgEkCCISh7tQgACEIAABMRYAAmCGE8OugYBCEAAAhAQlQASBFHJo10IQAACEICAGAsgQRDjyUHXIAABCEAAAqISQIIgKgl2mBUAAANXSURBVHm0CwEIQAACEBBjASQIYjw56BoEIAABCEBAVAJIEEQlj3YhAAEIQAACYiyABEGMJwddgwAEIAABCIhKAAmCqOTRLgQgAAEIQECMBZAgiPHkoGsQgAAEIAABUQkgQRCVPNqFAAQgAAEIiLEAEgQxnhx0DQIQgAAEICAqASQIopJHuxCAAAQgAAExFkCCIMaTg65BAAIQgAAERCWABEFU8mgXAhCAAAQgIMYCSBDEeHLQNQhAAAIQgICoBJAgiEoe7UIAAhCAAATEWAAJghhPDroGAQhAAAIQEJUAEgRRyaNdCEAAAhCAgBgLIEEQ48lB1yAAAQhAAAKiEkCCICp5tAsBCEAAAhAQYwEkCGI8OegaBCAAAQhAQFQCSBBEJY92IQABCEAAAmIsgARBjCcHXYMABCAAAQiISgAJgqjk0S4EIAABCEBAjAWQIIjx5KBrEIAABCAAAVEJIEEQlTzahQAEIAABCIixABIEMZ4cdA0CEIAABCAgKgEkCKKSR7sQgAAEIAABMRZAgiDGk4OuQQACEIAABEQlgARBVPJoFwIQgAAEICDGAkgQxHhy0DUIQAACEICAqASQIIhKHu1CAAIQgAAExFgACYIYTw66BgEIQAACEBCVABIEUcmjXQhAAAIQgIAYCyBBEOPJQdcgAAEIQAACohJAgiAqebQLAQhAAAIQEGMBJAhiPDnoGgQgAAEIQEBUAkgQRCWPdiEAAQhAAAJiLIAEQYwnB12DAAQgAAEIiEoACYKo5NEuBCAAAQhAQIwFkCCI8eSgaxCAAAQgAAFRCSBBEJU82oUABCAAAQiIsQASBDGeHHQNAhCAAAQgICoBJAiikke7EIAABCAAATEWQIIgxpODrkEAAhCAAAREJYAEQVTyaBcCEIAABCAgxgJIEMR4ctA1CEAAAhCAgKgEkCCISh7tQgACEIAABMRYAAmCGE8OugYBCEAAAhAQlQASBFHJo10IQAACEICAGAsgQRDjyUHXIAABCEAAAqISQIIgKnm0CwEIQAACEBBjASQIYjw56BoEIAABCEBAVAJIEEQlj3YhAAEIQAACYiyABEGMJwddgwAEIAABCIhK4FWCEBcXt05VVfWJqDqBdiEAAQhAAAIQEC+BZ8+eafx/NdJ7u1l8ZSsAAAAASUVORK5CYII=;" parent="1" vertex="1">
                    <mxGeometry x="764.3499999999999" y="3360" width="138" height="138" as="geometry"/>
                </mxCell>
                <mxCell id="99" value="&lt;font style=&quot;font-size: 18px;&quot;&gt;(Coming Soon)&lt;/font&gt;" style="text;html=1;strokeColor=none;fillColor=none;align=center;verticalAlign=middle;whiteSpace=wrap;rounded=0;fontFamily=Roboto Slab;fontSource=https%3A%2F%2Ffonts.googleapis.com%2Fcss%3Ffamily%3DRoboto%2BSlab;fontSize=19;fontColor=#00A0DF;" parent="1" vertex="1">
                    <mxGeometry x="696.95" y="3500" width="307.1" height="30" as="geometry"/>
                </mxCell>
                <mxCell id="105" value="Synchronize data modalities&lt;br&gt;&amp;amp; exploratory&lt;br&gt;analysis" style="rounded=1;whiteSpace=wrap;html=1;fontSize=28;fontFamily=Roboto Slab;fontSource=https%3A%2F%2Ffonts.googleapis.com%2Fcss%3Ffamily%3DRoboto%2BSlab;container=0;labelBackgroundColor=none;fillColor=#808285;fontColor=#FFFFFF;strokeColor=none;" parent="1" vertex="1">
                    <mxGeometry x="45" y="3300" width="253" height="200" as="geometry"/>
                </mxCell>
                <mxCell id="67" value="" style="triangle;whiteSpace=wrap;html=1;fillColor=#FFFFFF;rounded=1;strokeColor=#808285;strokeWidth=2;rotation=90;fontSize=28;" parent="1" vertex="1">
                    <mxGeometry x="144.96000000000004" y="3230" width="53.08" height="160" as="geometry"/>
                </mxCell>
                <mxCell id="106" value="Present stimuli (with&amp;nbsp;diode for synchronization)" style="rounded=1;whiteSpace=wrap;html=1;fontSize=28;fontFamily=Roboto Slab;fontSource=https%3A%2F%2Ffonts.googleapis.com%2Fcss%3Ffamily%3DRoboto%2BSlab;container=1;labelBackgroundColor=none;fillColor=#808285;fontColor=#FFFFFF;strokeColor=none;" vertex="1" parent="1">
                    <mxGeometry x="706" y="3010" width="289" height="200" as="geometry"/>
                </mxCell>
                <mxCell id="58" value="" style="triangle;whiteSpace=wrap;html=1;fillColor=#FFFFFF;rounded=1;strokeColor=#808285;fontSize=28;" parent="1" vertex="1">
                    <mxGeometry x="656" y="3030" width="60" height="160" as="geometry"/>
                </mxCell>
            </root>
        </mxGraphModel>
    </diagram>
</mxfile>